<svg xmlns="http://www.w3.org/2000/svg" xmlns:xlink="http://www.w3.org/1999/xlink" width="518.882" height="197.833" viewBox="0 0 518.882 197.833">
  <defs>
    <clipPath id="clip-path">
      <rect id="Rectangle_6" data-name="Rectangle 6" width="22.088" height="22.091" fill="none"/>
    </clipPath>
  </defs>
  <g id="Group_56" data-name="Group 56" transform="translate(-129 -139)">
    <g id="Group_51" data-name="Group 51" transform="translate(354.241 -144.648)">
      <path id="Path_123" data-name="Path 123" d="M86.965,34.565a1.45,1.45,0,0,1,.879,1.51q-.025,12.053-.01,24.106v.429a15.623,15.623,0,0,0-1.538-1.028,4.624,4.624,0,0,0-3.192-.328.545.545,0,0,1-.417-.081,4.95,4.95,0,0,0-3.139-1.221c-.057-1.562.222-3.182-.763-4.594.12-.072.207-.126.3-.177A3.137,3.137,0,0,0,77.637,47.3c-.289-.011-.58,0-.869-.006a.786.786,0,1,1,0-1.573c.869-.01,1.739,0,2.608,0a1.2,1.2,0,1,0-.01-2.373c-.327,0-.653,0-1.021,0,0-.162.008-.29,0-.417a1.221,1.221,0,0,0-1.173-1.162,1.177,1.177,0,0,0-1.182,1.18c.008.4-.139.543-.489.69a3.119,3.119,0,0,0-1.817,3.528,3.183,3.183,0,0,0,3.015,2.5c.289.012.58,0,.869.007a.766.766,0,0,1,.145,1.52,3.2,3.2,0,0,1-.549.038,26,26,0,0,0-3.23.109,4.714,4.714,0,0,0-3.887,4.62c-.011,1.963,0,3.925,0,5.888v.491a4.969,4.969,0,0,0-3.554-.385v-.543q0-12.665-.011-25.331a1.449,1.449,0,0,1,.879-1.51Z" transform="translate(196.243 251.805)" fill="#3d9ee1"/>
      <path id="Path_124" data-name="Path 124" d="M0,51.872a1.435,1.435,0,0,1,1.511-.879c1.738.035,3.478.011,5.217.011h.444v4.8c-.125.006-.251.017-.378.017-.975,0-1.95,0-2.925,0-.855,0-1.427.485-1.418,1.2a1.243,1.243,0,0,0,1.4,1.176c1.093,0,2.186,0,3.31,0v2.369H6.39c-.9,0-1.792-.008-2.688,0a1.186,1.186,0,1,0,0,2.369c1.145.01,2.289,0,3.462,0v2.369H4.484c-.25,0-.5,0-.751,0a1.19,1.19,0,1,0,.018,2.372c1,.006,2,0,3,0h.413v4.74h-.4c-1.752,0-3.5-.023-5.257.011A1.437,1.437,0,0,1,0,71.556Z" transform="translate(253.168 237.739)" fill="#3d9ee1"/>
      <path id="Path_125" data-name="Path 125" d="M66.021,182.129v-6.013c0-2.279-.006-4.558,0-6.837a2.408,2.408,0,0,1,2.161-2.453,2.272,2.272,0,0,1,2.577,2.164c.025,1.976.007,3.952.007,5.928v.487c.642-1.417,1.594-2.025,2.768-1.819,1.225.215,1.807,1.054,2.009,2.97a2.522,2.522,0,0,1,1.1-1.5,2.06,2.06,0,0,1,1.739-.278,3.006,3.006,0,0,1,1.169.676,2.7,2.7,0,0,1,.621,1.155,7.216,7.216,0,0,1,.107,1.412c.078-.185.137-.336.206-.483a2.36,2.36,0,0,1,4.5.986q.008,4.249,0,8.5a1.171,1.171,0,0,1-1.265,1.249q-9.406,0-18.812.006a.562.562,0,0,1-.52-.262c-1.623-2.27-3.258-4.532-4.881-6.8a2.38,2.38,0,1,1,3.872-2.758c.775,1.08,1.541,2.167,2.312,3.251.081.114.168.223.321.425" transform="translate(202.638 138.574)" fill="#3d9ee1"/>
      <path id="Path_126" data-name="Path 126" d="M231.677,60.634v-2.35c.13-.006.257-.018.384-.018,1.014,0,2.029,0,3.043,0a1.19,1.19,0,1,0,.009-2.371c-1.132-.007-2.264,0-3.425,0v-4.8c.127-.006.255-.017.382-.018q2.727,0,5.454,0a1.186,1.186,0,0,1,1.324,1.309q0,9.407,0,18.814a1.182,1.182,0,0,1-1.3,1.3q-2.747,0-5.494,0h-.374v-4.74c1.143,0,2.273,0,3.4,0a1.209,1.209,0,0,0,1.207-.726,1.177,1.177,0,0,0-1.122-1.644c-1.014-.017-2.029,0-3.043,0h-.447V63.009h.371c1,0,2,0,3,0a1.2,1.2,0,1,0-.012-2.373c-1.107,0-2.213,0-3.366,0" transform="translate(54.792 237.671)" fill="#3d9ee1"/>
    </g>
    <g id="Group_50" data-name="Group 50" transform="translate(235.35 -142.951)">
      <path id="Path_127" data-name="Path 127" d="M556.564,15.145a1.6,1.6,0,0,1,1.117,1.806c-.027.348,0,.7,0,1.088H538.6c-.858,0-1.065.207-1.065,1.064q0,6.845,0,13.691c0,.822.23,1.055,1.047,1.055h19.068v5.765h-8.316c-.768,0-1,.234-1,1.013q0,4.013,0,8.026c0,.792.239,1.028,1.035,1.028H557.6c.034.046.062.067.062.087,0,1.455.02,2.911,0,4.366a1.422,1.422,0,0,1-2.818.125c-.069-.7-.047-1.413-.055-2.12-.009-.8-.223-1.02-1.033-1.02H526.043V35.292h9.017c.786,0,1.032-.246,1.033-1.034q0-4.013,0-8.026c0-.761-.256-1.016-1.011-1.016h-9.062V24.74c0-2.6.02-5.193-.011-7.789a1.66,1.66,0,0,1,1.123-1.805ZM537.17,46.789H545.9c.742,0,.984-.243.985-.99q0-4.031,0-8.063c0-.742-.25-1-.981-1q-8.731,0-17.463,0c-.734,0-.983.257-.984,1q0,4.031,0,8.063c0,.751.241.993.98.993h8.731M536.082,19.5h-8.6v1.358h8.6Zm-4.327-2.891h-1.376v1.363h1.376Zm-4.25,1.374h1.345V16.61h-1.345Zm5.712-.016h1.388V16.588c-.406,0-.782-.014-1.156.01a.323.323,0,0,0-.222.222c-.024.374-.01.75-.01,1.15" transform="translate(-229.667 269.704)" fill="#3d9ee1"/>
      <path id="Path_128" data-name="Path 128" d="M496.447,271.745c.17.006.34.016.51.016h31.126a6.255,6.255,0,0,0,.418,2.893h-.508q-14.867,0-29.733.011a1.687,1.687,0,0,1-1.813-1.111Z" transform="translate(-204.413 50.484)" fill="#3d9ee1"/>
      <path id="Path_129" data-name="Path 129" d="M496.447,94.016l12.462.009h.482v7.231H496.447Zm6.513,1.244-1.431,4.3,1.353.448,1.43-4.3-1.352-.451m-3.437.482c-.478.47-.965.926-1.423,1.409a.623.623,0,0,0-.046.893c.484.508,1.02.967,1.495,1.408l1.032-.987-.988-.867.935-.882-1-.975m6.809,1.91-.943.894.959.975c.448-.446.921-.9,1.37-1.371a.634.634,0,0,0,.055-.951c-.473-.5-.989-.959-1.482-1.432l-1.01.99,1.052.894" transform="translate(-204.413 202.323)" fill="#3d9ee1"/>
      <path id="Path_130" data-name="Path 130" d="M615.022,54.427V44.943h22.994v9.515c-.352-.2-.68-.38-1.005-.565-.921-.525-1.847-1.043-2.76-1.582a.97.97,0,0,0-1.034-.022c-1.564.821-3.137,1.624-4.7,2.445a.515.515,0,0,1-.6-.03c-1.918-1.254-3.853-2.483-5.766-3.746a1.059,1.059,0,0,0-1.293-.022c-1.807,1.11-3.633,2.19-5.452,3.281-.108.065-.221.122-.379.209m15.481-3.04a2.511,2.511,0,1,0-2.532-2.482,2.544,2.544,0,0,0,2.532,2.482" transform="translate(-305.714 244.247)" fill="#3d9ee1"/>
      <path id="Path_131" data-name="Path 131" d="M614.865,101.175c0-.543-.009-1.064.009-1.584a.4.4,0,0,1,.188-.258q3.042-1.839,6.1-3.653a.568.568,0,0,1,.473.072q2.9,1.853,5.772,3.735a1.046,1.046,0,0,0,1.2.062c1.547-.825,3.114-1.613,4.665-2.43a.542.542,0,0,1,.607.017q1.866,1.087,3.752,2.14a.471.471,0,0,1,.282.493c-.02.457-.006.916-.006,1.407Z" transform="translate(-305.578 200.926)" fill="#3d9ee1"/>
      <path id="Path_132" data-name="Path 132" d="M701.408,200.279H689.216v-7.162h12.192Zm-7.857-1.471h6.4v-1.367h-6.4Zm0-2.9c.034.021.046.034.057.035,2.052.009,4.1.02,6.157.018a.3.3,0,0,0,.208-.2c.021-.388.01-.778.01-1.183h-6.432Zm-2.892.039h1.381v-1.367h-1.381Zm1.375,1.5h-1.361v1.376h1.361Z" transform="translate(-369.1 117.658)" fill="#3d9ee1"/>
      <path id="Path_133" data-name="Path 133" d="M562.465,180.435H545.928v-7.151h16.537ZM547.391,179h8.558v-1.37h-8.558Zm4.313-2.875h6.418v-1.378H551.7Zm5.756,2.869h3.521v-1.369H557.46Zm-10.078-2.875h2.808v-1.374h-2.808Zm12.221-.006h1.384v-1.368H559.6Z" transform="translate(-246.685 134.602)" fill="#3d9ee1"/>
      <path id="Path_134" data-name="Path 134" d="M714.8,66.643a1.086,1.086,0,1,1,1.078-1.075,1.105,1.105,0,0,1-1.078,1.075" transform="translate(-390.013 227.564)" fill="#3d9ee1"/>
    </g>
    <g id="Group_52" data-name="Group 52" transform="translate(120.451 -144.576)">
      <path id="Path_135" data-name="Path 135" d="M982.994,112.428v20.6a9.2,9.2,0,0,1-.443,1.014,2.656,2.656,0,0,1-1.444,1.03H944.636c-.028-.024-.052-.06-.085-.071a2.382,2.382,0,0,1-1.787-2.5q0-9.788,0-19.576a3.314,3.314,0,0,1,.122-.928,2.374,2.374,0,0,1,2.469-1.671H980.3c.118,0,.236,0,.354,0a2.372,2.372,0,0,1,2.2,1.66c.047.148.092.3.138.444m-32.246,2.584c-.72,0-1.44-.005-2.161,0a1.928,1.928,0,0,0-1.976,1.916q-.042,1.748,0,3.5a1.931,1.931,0,0,0,1.982,1.914q2.181.01,4.361,0a1.884,1.884,0,0,0,1.916-1.84q.051-1.826,0-3.654a1.879,1.879,0,0,0-1.922-1.831c-.733-.009-1.467,0-2.2,0m1.5,12.622h-5.781v2.306h5.781Zm9.013,0H955.5v2.305h5.758Zm3.22,2.307h5.76V127.63h-5.76Zm14.8-2.307h-5.777v2.3h5.777Z" transform="translate(-615.787 188.861)" fill="#3d9ee1"/>
      <path id="Path_136" data-name="Path 136" d="M1040.429,5.735c-.072.087-.134.169-.2.243q-3.274,3.474-6.545,6.95a.8.8,0,0,1-.648.274q-6.482-.011-12.964-.006c-.125,0-.25-.012-.434-.022.123-.135.2-.224.277-.3q6.027-6.03,12.056-12.058a2.333,2.333,0,0,1,2.827-.55,2.707,2.707,0,0,1,.662.482q2.427,2.406,4.837,4.83c.045.045.083.1.135.16" transform="translate(-681.845 283.664)" fill="#3d9ee1"/>
      <path id="Path_137" data-name="Path 137" d="M1140.553,58.6l5.433-5.765,1.862,1.87c-.038.047-.1.13-.165.2q-1.626,1.73-3.258,3.453a.651.651,0,0,1-.38.228c-1.122.018-2.243.01-3.493.01" transform="translate(-785.755 238.259)" fill="#3d9ee1"/>
      <path id="Path_138" data-name="Path 138" d="M1194.278,80.293h-4.269l-.045-.144L1191.981,78l2.3,2.29" transform="translate(-828.217 216.632)" fill="#3d9ee1"/>
      <rect id="Rectangle_8" data-name="Rectangle 8" width="3.566" height="2.607" transform="translate(333.187 306.232)" fill="#3d9ee1"/>
    </g>
    <g id="Group_54" data-name="Group 54" transform="translate(215.072 284.742)">
      <g id="Group_44" data-name="Group 44" clip-path="url(#clip-path)">
        <path id="Path_93" data-name="Path 93" d="M.01,10.5V8.508c.346,0,.683.005,1.02,0a.36.36,0,0,0,.37-.5.379.379,0,0,0-.384-.225h-1V5.793H1.443c.252-.006.408-.145.41-.358a.364.364,0,0,0-.4-.365c-.474-.006-.948,0-1.437,0V3.078H.964c.3,0,.473-.143.467-.371s-.177-.352-.462-.354H0C0,1.633,0,.934.008.236.011.054.161,0,.333,0H3.545c.38,0,.435.054.435.426V21.284c0,.381-.053.435-.426.435H.365C.08,21.719,0,21.641,0,21.36V19.368H1.026a.369.369,0,0,0,.4-.386.374.374,0,0,0-.41-.336c-.33,0-.661,0-1,0V16.653h1.4c.272,0,.432-.135.436-.354s-.16-.368-.444-.37H.008v-1.99c.337,0,.674.005,1.011,0a.361.361,0,0,0,.373-.5.377.377,0,0,0-.383-.226h-1v-1.99H1.083c.6,0,.769-.078.774-.357s-.175-.369-.786-.369H.01" fill="#1a1818"/>
        <path id="Path_94" data-name="Path 94" d="M102.573,165.184H92.9v-7.578a.477.477,0,0,1,.157-.374c.543-.534,1.078-1.075,1.64-1.639l7.878,9.592" transform="translate(-87.284 -146.189)" fill="#1a1818"/>
        <path id="Path_95" data-name="Path 95" d="M137.549,111.742l-5.961-7.258,2.3-2.308,1.239,1.7a5.671,5.671,0,0,0-.788.226,3.618,3.618,0,0,0-.87.5.622.622,0,0,0-.006.989,2.419,2.419,0,0,0,1.264.608,10.535,10.535,0,0,0,5.247-.114,2.442,2.442,0,0,0,.722-.359.711.711,0,0,0,.011-1.265,3.083,3.083,0,0,0-1.2-.5c-.1-.025-.2-.045-.34-.076.059-.082.107-.143.151-.207.427-.619.852-1.239,1.282-1.856.038-.054.1-.123.16-.124.435-.01.871-.006,1.334-.006v5.236a.477.477,0,0,1-.156.374q-2.124,2.113-4.239,4.236a2.252,2.252,0,0,0-.158.2" transform="translate(-123.636 -95.547)" fill="#1a1818"/>
        <path id="Path_96" data-name="Path 96" d="M172.134,13.66a3.344,3.344,0,0,1,3.339,3.31,3.735,3.735,0,0,1-.573,1.83,15.853,15.853,0,0,1-1.936,2.579c-.232.268-.466.533-.7.8-.073.084-.138.139-.235.026a21.253,21.253,0,0,1-2.694-3.475,3.855,3.855,0,0,1-.506-1.437,3.276,3.276,0,0,1,2.028-3.371,10.562,10.562,0,0,1,1.258-.322l.014.056m.012,5.475a2.121,2.121,0,1,0-1.513-.614,2.14,2.14,0,0,0,1.513.614" transform="translate(-158.613 -12.782)" fill="#1a1818"/>
        <path id="Path_97" data-name="Path 97" d="M242,216.021h-2.137a.222.222,0,0,1-.15-.074q-.885-1.071-1.763-2.148a.085.085,0,0,1-.017-.037l4.067-4.07Z" transform="translate(-223.557 -197.017)" fill="#1a1818"/>
        <path id="Path_98" data-name="Path 98" d="M99.563,327.783c-.072-.066-.12-.1-.161-.147a.352.352,0,0,1-.031-.49.357.357,0,0,1,.489-.061c.35.261.7.529,1.033.807a.339.339,0,0,1,0,.564c-.33.274-.67.537-1.014.794a.35.35,0,0,1-.5-.047.356.356,0,0,1,.06-.521c.031-.03.065-.058.129-.116H88.451l-.037.039a.953.953,0,0,1,.158.11.351.351,0,0,1,.022.49.33.33,0,0,1-.467.068q-.547-.4-1.069-.834a.33.33,0,0,1,0-.533c.341-.284.693-.556,1.049-.823a.36.36,0,0,1,.458.554c-.041.043-.089.08-.162.144Z" transform="translate(-81.67 -307.252)" fill="#1a1818"/>
        <path id="Path_99" data-name="Path 99" d="M327.624,113.655v-10.21c-.07.074-.115.13-.169.176a.338.338,0,0,1-.472.012.325.325,0,0,1-.073-.465q.4-.549.832-1.069a.347.347,0,0,1,.579.046c.25.311.495.627.737.944a.37.37,0,0,1-.017.543c-.167.142-.372.109-.552-.088l-.087-.1v10.2l.056.066a.68.68,0,0,1,.1-.189.329.329,0,0,1,.469-.021.32.32,0,0,1,.083.462q-.4.557-.848,1.086a.324.324,0,0,1-.516,0q-.434-.52-.835-1.068a.333.333,0,0,1,.061-.469.347.347,0,0,1,.489.017,1.185,1.185,0,0,1,.118.154l.042-.028" transform="translate(-307.09 -95.801)" fill="#1a1818"/>
        <path id="Path_100" data-name="Path 100" d="M93.106,105.925v-3.934h3.931l-3.931,3.934" transform="translate(-87.479 -95.827)" fill="#1a1818"/>
        <path id="Path_101" data-name="Path 101" d="M229.768,150.042c.316-.353.627-.687.92-1.035a.357.357,0,0,1,.4-.155c.44.121.882.234,1.319.363.077.023.135.108.2.164-.067.063-.125.164-.2.184-.564.146-1.129.294-1.7.4a7.706,7.706,0,0,1-.938.074" transform="translate(-215.883 -139.842)" fill="#1a1818"/>
        <path id="Path_102" data-name="Path 102" d="M173.748,150.2a7.345,7.345,0,0,1-2.674-.468c-.08-.032-.137-.123-.2-.186.067-.056.125-.143.2-.164.475-.132.953-.255,1.434-.365a.291.291,0,0,1,.221.1c.221.236.425.487.642.726.11.12.236.226.379.362" transform="translate(-160.544 -140.01)" fill="#1a1818"/>
      </g>
    </g>
    <g id="Group_48" data-name="Group 48" transform="translate(-245.24 90.003)">
      <path id="Path_103" data-name="Path 103" d="M68.231.106V.835c0,3.119-.012,6.237.018,9.356A6.1,6.1,0,0,0,71.291,15.7a7.351,7.351,0,0,0,3.69.916c.794.024,1.589-.014,2.384-.015H85.26V41.446c0,.265-.007.53-.018.794a5.255,5.255,0,0,1-5.195,5.2c-4.421.077-8.844.035-13.267.045-4.932.011-9.864.034-14.8.024a18.9,18.9,0,0,1-3.406-.2,5.1,5.1,0,0,1-4.2-5c-.011-.285-.016-.571-.016-.856,0-11.843.046-23.686-.033-35.528A5.685,5.685,0,0,1,50.174,0C54.881-.014,59.589.069,64.3.1c1.281.01,2.563,0,3.935,0M64.782,41.868A9.272,9.272,0,1,0,55.51,32.55a9.272,9.272,0,0,0,9.272,9.318M56.058,9.175h0c2.281,0,4.563.007,6.844,0a1.337,1.337,0,0,0,1.423-1.41A1.333,1.333,0,0,0,62.894,6.3c-4.542-.014-9.085-.006-13.627,0a.578.578,0,0,0-.3.033c-.352.243-.82.434-1.008.775a1.384,1.384,0,0,0,1.255,2.064c2.281.022,4.563.007,6.844.007m0,5.872h0c2.281,0,4.563.008,6.844,0a1.364,1.364,0,0,0,1.417-1.6c-.078-.858-.621-1.286-1.675-1.287q-6.539-.006-13.078,0a1.3,1.3,0,0,0-.6.046,2.6,2.6,0,0,0-1.01.77,1.384,1.384,0,0,0,1.259,2.061c2.281.022,4.563.007,6.844.007M52.7,20.657c.978,0,1.956.01,2.934,0a1.473,1.473,0,1,0-.008-2.933q-2.933-.017-5.867,0a1.53,1.53,0,0,0-1.665,1.426,1.6,1.6,0,0,0,1.674,1.509c.978.009,1.956,0,2.934,0" transform="translate(329.92 49)" fill="#3d9ee1"/>
      <path id="Path_104" data-name="Path 104" d="M208.615,8.353l12.6,12.3c-.384.022-.558.04-.733.04h-8.073a3.52,3.52,0,0,1-3.788-3.769c-.008-2.873,0-5.746,0-8.57" transform="translate(192.476 42.012)" fill="#3d9ee1"/>
      <path id="Path_105" data-name="Path 105" d="M137.2,160.47a6.377,6.377,0,1,1-6.421,6.078,6.377,6.377,0,0,1,6.421-6.078m-1.419,8.378c0,.691-.013,1.382,0,2.072a1.488,1.488,0,0,0,1.343,1.477,1.386,1.386,0,0,0,1.516-1.271c.068-1.519.068-3.046,0-4.565a1.387,1.387,0,0,0-1.521-1.267,1.488,1.488,0,0,0-1.34,1.48c-.016.69,0,1.382,0,2.072m3.085-5.5a1.637,1.637,0,0,0-1.69-1.756,1.686,1.686,0,0,0-1.771,1.693,1.731,1.731,0,1,0,3.461.063" transform="translate(257.589 -85.247)" fill="#3d9ee1"/>
    </g>
    <g id="Group_47" data-name="Group 47" transform="translate(-252.968 90.19)">
      <path id="Path_106" data-name="Path 106" d="M548.133,89.5a1.854,1.854,0,0,1,1.2-1.044q5.484-2.176,10.957-4.381c.143-.057.291-.1.465-.165v.465q0,12.463.008,24.926a.556.556,0,0,1-.409.628c-3.391,1.338-6.773,2.7-10.158,4.048-1.044.417-1.534.245-2.064-.727Z" transform="translate(-91.564 -24.536)" fill="#3d9ee1"/>
      <path id="Path_107" data-name="Path 107" d="M742.887,1.605c.43.1.863.185,1.289.3a8.847,8.847,0,0,1,6.533,7.436,7.816,7.816,0,0,1-.683,4.176,29.824,29.824,0,0,1-3.905,6.4c-1.021,1.334-2.1,2.628-3.177,3.916a1.225,1.225,0,0,1-1.982.031,46.254,46.254,0,0,1-6.629-9.315,9.254,9.254,0,0,1-1.226-4.466,8.87,8.87,0,0,1,6.748-8.227c.377-.094.759-.167,1.139-.249Zm-4.731,8.857a3.746,3.746,0,0,0,3.783,3.747,3.684,3.684,0,0,0,3.767-3.785,3.681,3.681,0,0,0-3.765-3.747,3.749,3.749,0,0,0-3.785,3.785" transform="translate(-253.809 47.657)" fill="#3d9ee1"/>
      <path id="Path_108" data-name="Path 108" d="M671.4,83.787l1.343.536c1.4.559,2.8,1.113,4.2,1.684a.74.74,0,0,1,.386.336,32.749,32.749,0,0,0,3.913,6.678,1.324,1.324,0,0,1,.261.833q-.011,9.663-.005,19.327v.48c-.134-.044-.24-.072-.342-.113l-9.426-3.762a.433.433,0,0,1-.336-.474q.014-12.582.008-25.164Z" transform="translate(-199.677 -24.428)" fill="#3d9ee1"/>
      <path id="Path_109" data-name="Path 109" d="M786.981,131.533v18.284a1.351,1.351,0,0,1-1.033,1.521q-5.606,2.244-11.214,4.485l-.353.139V138.478c.3.345.568.642.829.943a3.772,3.772,0,0,0,2.265,1.323,3.613,3.613,0,0,0,3.563-1.294q2-2.388,3.892-4.861c.638-.831,1.172-1.743,1.754-2.618.076-.114.153-.226.3-.439" transform="translate(-290.015 -66.308)" fill="#3d9ee1"/>
    </g>
    <g id="Group_46" data-name="Group 46" transform="translate(-261.95 87.782)">
      <path id="Path_110" data-name="Path 110" d="M1110.03,145.879q.677-2.232,1.352-4.466,1.361-4.537,2.715-9.076a.453.453,0,0,1,.18-.27v.455c0,3.539-.01,7.078,0,10.617a6.4,6.4,0,0,0,6.571,6.574q11.93-.016,23.859-.005h.563c-.262.84-.512,1.644-.764,2.448s-.509,1.613-.761,2.421a3.809,3.809,0,0,1-4.779,2.63q-9.021-2.412-18.039-4.829-3.9-1.05-7.813-2.093a3.862,3.862,0,0,1-3.027-3.111.377.377,0,0,0-.06-.1Z" transform="translate(-561.646 -66.673)" fill="#3d9ee1"/>
      <path id="Path_111" data-name="Path 111" d="M1186.27,53.823h-12.484a4.267,4.267,0,0,1-3.889-2.107,4.036,4.036,0,0,1-.6-2.154c0-6.216-.015-12.432,0-18.647a4.222,4.222,0,0,1,4.321-4.247h25.327a4.214,4.214,0,0,1,4.293,4.306c0,6.123-.036,12.246.02,18.369a4.378,4.378,0,0,1-4.472,4.487c-4.174-.035-8.35-.009-12.524-.009M1199.82,42.9c.012-.164.02-.228.02-.292V31c0-.626-.318-.92-.979-.92H1173.7c-.674,0-.987.318-.988,1.006V46.55c0,.094.02.188.043.4.161-.194.245-.315.348-.418q2.12-2.125,4.245-4.245a2.944,2.944,0,0,1,2.917-.813,3.09,3.09,0,0,1,1.5.922c.615.632,1.234,1.26,1.869,1.907.169-.2.289-.339.407-.481,1.959-2.351,3.909-4.71,5.881-7.05a2.957,2.957,0,0,1,4.614-.031c.637.727,1.26,1.467,1.89,2.2l3.4,3.96" transform="translate(-614.14 26.689)" fill="#3d9ee1"/>
      <path id="Path_112" data-name="Path 112" d="M1217.34,78.036a3.393,3.393,0,1,1,3.39-3.391,3.393,3.393,0,0,1-3.39,3.391" transform="translate(-653.665 -12.802)" fill="#3d9ee1"/>
    </g>
    <g id="Group_51-2" data-name="Group 51" transform="translate(-0.106 -1.775)">
      <path id="Path_113" data-name="Path 113" d="M26.145,635.375c-7.274,3.635-14.188,3.288-20.314-2.125-5.366-4.742-7-10.912-5.014-17.777,1.79-6.175,6.086-10.01,12.262-11.84.061.546.129,1.011.155,1.479a.493.493,0,0,1-.191.358,4.845,4.845,0,0,0-2.169,4.483,1.447,1.447,0,0,1-.639,1.352c-3.8,3.114-5.286,7.154-4.108,11.909a10.921,10.921,0,0,0,9.1,8.569,11.191,11.191,0,0,0,11.02-3.934.954.954,0,0,1,.591-.272c1.069-.081,2.154-.043,3.208-.207a4,4,0,0,0,2.61-1.676c.319-.434.608-.705,1.245-.346-.224.618-.437,1.289-.71,1.933s-.6,1.259-.937,1.941c.422.348.864.717,1.31,1.081,1.732,1.416,3.476,2.817,5.195,4.249a5.015,5.015,0,0,1,1.835,5.484,5.2,5.2,0,0,1-9.035,1.946c-1.694-2.034-3.354-4.1-5.03-6.146-.129-.158-.262-.312-.386-.46" transform="translate(367 -457.092)" fill="#3d9ee1"/>
      <path id="Path_114" data-name="Path 114" d="M127.171,568.245c-.289.678-.533,1.271-.795,1.855a1.308,1.308,0,0,0,.685,1.692c.4.148.807.274,1.2.44a1.551,1.551,0,0,1,1.053,1.443c.025,1.109.026,2.22-.005,3.329a1.515,1.515,0,0,1-1.027,1.4,6.434,6.434,0,0,1-.909.337,1.286,1.286,0,0,0-1.022.922,1.11,1.11,0,0,0,.032.908c1,2.13.987,2.179-.673,3.839-.423.423-.842.849-1.27,1.266a1.653,1.653,0,0,1-2.016.35,6.409,6.409,0,0,1-.736-.355,1.275,1.275,0,0,0-1.417-.062,1.014,1.014,0,0,0-.59.628c-.124.407-.272.808-.435,1.2A1.6,1.6,0,0,1,117.7,588.5c-1.024.018-2.05.021-3.074,0a1.593,1.593,0,0,1-1.545-1.06c-.16-.395-.323-.789-.449-1.2a1.028,1.028,0,0,0-.586-.63,1.4,1.4,0,0,0-1.421.058c-1.786.865-1.923.827-3.325-.576-.483-.483-.97-.963-1.448-1.451a1.642,1.642,0,0,1-.38-2.051c.157-.359.3-.725.487-1.07a.964.964,0,0,0,.029-.812,1.4,1.4,0,0,0-1.035-.976c-1.862-.649-1.97-.836-1.97-2.81v-1.9a1.755,1.755,0,0,1,1.325-1.891,3.412,3.412,0,0,1,.578-.2,1.3,1.3,0,0,0,1.137-1.126.982.982,0,0,0-.01-.521c-.173-.444-.4-.866-.583-1.306a1.625,1.625,0,0,1,.343-1.888c.717-.732,1.437-1.462,2.176-2.171a1.584,1.584,0,0,1,1.841-.337,6.443,6.443,0,0,1,.88.409,1.134,1.134,0,0,0,1.367.028,1.808,1.808,0,0,0,.558-.578c.2-.39.315-.826.486-1.234a1.572,1.572,0,0,1,1.549-1.044H117.7a1.576,1.576,0,0,1,1.524,1.009,10.245,10.245,0,0,1,.456,1.247,1.016,1.016,0,0,0,.6.624,1.371,1.371,0,0,0,1.379-.045c1.782-.872,1.986-.824,3.379.568.483.483,1,.937,1.437,1.46a7.812,7.812,0,0,1,.7,1.221m-5.527,7.067a5.488,5.488,0,1,0-5.446,5.509,5.488,5.488,0,0,0,5.446-5.509" transform="translate(278.124 -421.298)" fill="#3d9ee1"/>
    </g>
    <g id="Group_52-2" data-name="Group 52" transform="translate(-133.827 144.819)">
      <path id="Path_115" data-name="Path 115" d="M0,75.56V74.267H2.22V58.48c0-.065.005-.13,0-.194-.012-.123.031-.172.162-.192.667-.1,1.332-.221,2-.332l4.8-.8,1.229-.2V74.254h1.306V59.805h8.176V74.267h2.219V75.56Zm8.54-4.426H4.116v3.123H5.385V72.422H7.256V74.25H8.54Zm5,1.257h1.343v-1.26H13.544ZM8.569,58.518H7.228v1.264H8.569ZM5.407,67.986H4.071v1.259H5.407Zm3.165,0H7.224v1.256H8.572Zm4.969,1.258h1.343V67.977H13.541Zm3.163,0h1.338v-1.26H16.7Zm1.339,1.888H16.7V72.4h1.338ZM4.07,62.932H5.4V61.675H4.069Zm3.153,0H8.571V61.675H7.222Zm7.669-1.242h-1.35v1.248h1.349Zm3.152,0H16.707v1.251h1.336ZM5.4,64.831H4.069v1.255H5.4Zm1.817,1.252H8.57v-1.25H7.221Zm7.667-1.251H13.54v1.253h1.348Zm3.157.007H16.7v1.244h1.344Z" transform="translate(272.243 85.352)" fill="#1a1818"/>
      <path id="Path_116" data-name="Path 116" d="M71.053,0l-.016,1.957v.268L66,3.062V0Z" transform="translate(210.043 138.845)" fill="#1a1818"/>
    </g>
    <g id="Group_53" data-name="Group 53" transform="translate(-267.071 69.142)">
      <path id="Path_118" data-name="Path 118" d="M512.593,146.8a3.173,3.173,0,0,1-4.92.015c-.193.175-.374.366-.581.524a3.131,3.131,0,0,1-4.989-2.022,16.752,16.752,0,0,1-.016-2.245h21.044a12.083,12.083,0,0,1-.122,2.575,3.153,3.153,0,0,1-5.361,1.3c-.045-.046-.088-.1-.145-.157a3.152,3.152,0,0,1-4.911,0" transform="translate(-57.017 79.477)" fill="#1a1818"/>
      <g id="Group_53-2" data-name="Group 53" transform="translate(443.616 215.492)">
        <path id="Path_117" data-name="Path 117" d="M532.2,247.577h-5.607a.684.684,0,0,1-.713-.7q0-3.633,0-7.266a.488.488,0,0,1,0-.059c.44.089.875.206,1.319.261a4.3,4.3,0,0,0,2.716-.573.308.308,0,0,1,.352,0,4.413,4.413,0,0,0,4.567,0,.309.309,0,0,1,.352,0,4.424,4.424,0,0,0,4.569,0,.271.271,0,0,1,.313-.023,4.515,4.515,0,0,0,3.9.339l.17-.056v7.273a.708.708,0,0,1-.81.8h-5.512v-4.747c0-.611-.259-.874-.862-.874h-3.929a.732.732,0,0,0-.831.837v4.522Z" transform="translate(-523.059 -226.481)" fill="#1a1818"/>
        <path id="Path_123-2" data-name="Path 123" d="M512.593,146.8a3.173,3.173,0,0,1-4.92.015c-.193.175-.374.366-.581.524a3.131,3.131,0,0,1-4.989-2.022,16.752,16.752,0,0,1-.016-2.245h21.044a12.083,12.083,0,0,1-.122,2.575,3.153,3.153,0,0,1-5.361,1.3c-.045-.046-.088-.1-.145-.157a3.152,3.152,0,0,1-4.911,0" transform="translate(-502.055 -136.015)" fill="#1a1818"/>
        <path id="Path_119" data-name="Path 119" d="M513,22.988,511.469,28.6h-4.816c.032-.071.058-.134.089-.2.82-1.639,1.644-3.276,2.459-4.917a.812.812,0,0,1,.817-.5c.98.014,1.96,0,2.98,0" transform="translate(-504.961 -22.969)" fill="#1a1818"/>
        <path id="Path_120" data-name="Path 120" d="M754.914,28.656H750.28c-.111,0-.186-.008-.222-.142q-.72-2.673-1.45-5.344c-.009-.035-.013-.071-.022-.123.068,0,.13-.011.192-.011h2.854a.709.709,0,0,1,.69.414Q753.6,26,754.873,28.543a1.147,1.147,0,0,1,.04.114" transform="translate(-732.701 -23.017)" fill="#1a1818"/>
        <path id="Path_121" data-name="Path 121" d="M616.69,23.018v5.608h-3.285l.618-2.267c.288-1.055.58-2.109.859-3.166a.2.2,0,0,1,.238-.178c.518.007,1.036,0,1.569,0" transform="translate(-605.451 -22.998)" fill="#1a1818"/>
        <path id="Path_122" data-name="Path 122" d="M697.108,28.368h-3.27V22.756h1.083c.218,0,.5-.067.637.04s.146.393.2.6q.66,2.416,1.317,4.832c.011.041.019.083.03.135" transform="translate(-681.165 -22.737)" fill="#1a1818"/>
        <rect id="Rectangle_7" data-name="Rectangle 7" width="2.782" height="4.186" transform="translate(10.56 16.9)" fill="#1a1818"/>
      </g>
    </g>
    <g id="Group_62" data-name="Group 62" transform="translate(-245.24 157.003)">
      <path id="Path_103-2" data-name="Path 103" d="M68.231.106V.835c0,3.119-.012,6.237.018,9.356A6.1,6.1,0,0,0,71.291,15.7a7.351,7.351,0,0,0,3.69.916c.794.024,1.589-.014,2.384-.015H85.26V41.446c0,.265-.007.53-.018.794a5.255,5.255,0,0,1-5.195,5.2c-4.421.077-8.844.035-13.267.045-4.932.011-9.864.034-14.8.024a18.9,18.9,0,0,1-3.406-.2,5.1,5.1,0,0,1-4.2-5c-.011-.285-.016-.571-.016-.856,0-11.843.046-23.686-.033-35.528A5.685,5.685,0,0,1,50.174,0C54.881-.014,59.589.069,64.3.1c1.281.01,2.563,0,3.935,0M64.782,41.868A9.272,9.272,0,1,0,55.51,32.55a9.272,9.272,0,0,0,9.272,9.318M56.058,9.175h0c2.281,0,4.563.007,6.844,0a1.337,1.337,0,0,0,1.423-1.41A1.333,1.333,0,0,0,62.894,6.3c-4.542-.014-9.085-.006-13.627,0a.578.578,0,0,0-.3.033c-.352.243-.82.434-1.008.775a1.384,1.384,0,0,0,1.255,2.064c2.281.022,4.563.007,6.844.007m0,5.872h0c2.281,0,4.563.008,6.844,0a1.364,1.364,0,0,0,1.417-1.6c-.078-.858-.621-1.286-1.675-1.287q-6.539-.006-13.078,0a1.3,1.3,0,0,0-.6.046,2.6,2.6,0,0,0-1.01.77,1.384,1.384,0,0,0,1.259,2.061c2.281.022,4.563.007,6.844.007M52.7,20.657c.978,0,1.956.01,2.934,0a1.473,1.473,0,1,0-.008-2.933q-2.933-.017-5.867,0a1.53,1.53,0,0,0-1.665,1.426,1.6,1.6,0,0,0,1.674,1.509c.978.009,1.956,0,2.934,0" transform="translate(329.92 49)" fill="#fff"/>
      <path id="Path_104-2" data-name="Path 104" d="M208.615,8.353l12.6,12.3c-.384.022-.558.04-.733.04h-8.073a3.52,3.52,0,0,1-3.788-3.769c-.008-2.873,0-5.746,0-8.57" transform="translate(192.476 42.012)" fill="#fff"/>
      <path id="Path_105-2" data-name="Path 105" d="M137.2,160.47a6.377,6.377,0,1,1-6.421,6.078,6.377,6.377,0,0,1,6.421-6.078m-1.419,8.378c0,.691-.013,1.382,0,2.072a1.488,1.488,0,0,0,1.343,1.477,1.386,1.386,0,0,0,1.516-1.271c.068-1.519.068-3.046,0-4.565a1.387,1.387,0,0,0-1.521-1.267,1.488,1.488,0,0,0-1.34,1.48c-.016.69,0,1.382,0,2.072m3.085-5.5a1.637,1.637,0,0,0-1.69-1.756,1.686,1.686,0,0,0-1.771,1.693,1.731,1.731,0,1,0,3.461.063" transform="translate(257.589 -85.247)" fill="#fff"/>
    </g>
    <g id="Group_63" data-name="Group 63" transform="translate(-252.968 157.19)">
      <path id="Path_106-2" data-name="Path 106" d="M548.133,89.5a1.854,1.854,0,0,1,1.2-1.044q5.484-2.176,10.957-4.381c.143-.057.291-.1.465-.165v.465q0,12.463.008,24.926a.556.556,0,0,1-.409.628c-3.391,1.338-6.773,2.7-10.158,4.048-1.044.417-1.534.245-2.064-.727Z" transform="translate(-91.564 -24.536)" fill="#fff"/>
      <path id="Path_107-2" data-name="Path 107" d="M742.887,1.605c.43.1.863.185,1.289.3a8.847,8.847,0,0,1,6.533,7.436,7.816,7.816,0,0,1-.683,4.176,29.824,29.824,0,0,1-3.905,6.4c-1.021,1.334-2.1,2.628-3.177,3.916a1.225,1.225,0,0,1-1.982.031,46.254,46.254,0,0,1-6.629-9.315,9.254,9.254,0,0,1-1.226-4.466,8.87,8.87,0,0,1,6.748-8.227c.377-.094.759-.167,1.139-.249Zm-4.731,8.857a3.746,3.746,0,0,0,3.783,3.747,3.684,3.684,0,0,0,3.767-3.785,3.681,3.681,0,0,0-3.765-3.747,3.749,3.749,0,0,0-3.785,3.785" transform="translate(-253.809 47.657)" fill="#fff"/>
      <path id="Path_108-2" data-name="Path 108" d="M671.4,83.787l1.343.536c1.4.559,2.8,1.113,4.2,1.684a.74.74,0,0,1,.386.336,32.749,32.749,0,0,0,3.913,6.678,1.324,1.324,0,0,1,.261.833q-.011,9.663-.005,19.327v.48c-.134-.044-.24-.072-.342-.113l-9.426-3.762a.433.433,0,0,1-.336-.474q.014-12.582.008-25.164Z" transform="translate(-199.677 -24.428)" fill="#fff"/>
      <path id="Path_109-2" data-name="Path 109" d="M786.981,131.533v18.284a1.351,1.351,0,0,1-1.033,1.521q-5.606,2.244-11.214,4.485l-.353.139V138.478c.3.345.568.642.829.943a3.772,3.772,0,0,0,2.265,1.323,3.613,3.613,0,0,0,3.563-1.294q2-2.388,3.892-4.861c.638-.831,1.172-1.743,1.754-2.618.076-.114.153-.226.3-.439" transform="translate(-290.015 -66.308)" fill="#fff"/>
    </g>
    <g id="Group_64" data-name="Group 64" transform="translate(-261.95 154.782)">
      <path id="Path_110-2" data-name="Path 110" d="M1110.03,145.879q.677-2.232,1.352-4.466,1.361-4.537,2.715-9.076a.453.453,0,0,1,.18-.27v.455c0,3.539-.01,7.078,0,10.617a6.4,6.4,0,0,0,6.571,6.574q11.93-.016,23.859-.005h.563c-.262.84-.512,1.644-.764,2.448s-.509,1.613-.761,2.421a3.809,3.809,0,0,1-4.779,2.63q-9.021-2.412-18.039-4.829-3.9-1.05-7.813-2.093a3.862,3.862,0,0,1-3.027-3.111.377.377,0,0,0-.06-.1Z" transform="translate(-561.646 -66.673)" fill="#fff"/>
      <path id="Path_111-2" data-name="Path 111" d="M1186.27,53.823h-12.484a4.267,4.267,0,0,1-3.889-2.107,4.036,4.036,0,0,1-.6-2.154c0-6.216-.015-12.432,0-18.647a4.222,4.222,0,0,1,4.321-4.247h25.327a4.214,4.214,0,0,1,4.293,4.306c0,6.123-.036,12.246.02,18.369a4.378,4.378,0,0,1-4.472,4.487c-4.174-.035-8.35-.009-12.524-.009M1199.82,42.9c.012-.164.02-.228.02-.292V31c0-.626-.318-.92-.979-.92H1173.7c-.674,0-.987.318-.988,1.006V46.55c0,.094.02.188.043.4.161-.194.245-.315.348-.418q2.12-2.125,4.245-4.245a2.944,2.944,0,0,1,2.917-.813,3.09,3.09,0,0,1,1.5.922c.615.632,1.234,1.26,1.869,1.907.169-.2.289-.339.407-.481,1.959-2.351,3.909-4.71,5.881-7.05a2.957,2.957,0,0,1,4.614-.031c.637.727,1.26,1.467,1.89,2.2l3.4,3.96" transform="translate(-614.14 26.689)" fill="#fff"/>
      <path id="Path_112-2" data-name="Path 112" d="M1217.34,78.036a3.393,3.393,0,1,1,3.39-3.391,3.393,3.393,0,0,1-3.39,3.391" transform="translate(-653.665 -12.802)" fill="#fff"/>
    </g>
    <g id="Group_65" data-name="Group 65" transform="translate(-0.106 65.225)">
      <path id="Path_113-2" data-name="Path 113" d="M26.145,635.375c-7.274,3.635-14.188,3.288-20.314-2.125-5.366-4.742-7-10.912-5.014-17.777,1.79-6.175,6.086-10.01,12.262-11.84.061.546.129,1.011.155,1.479a.493.493,0,0,1-.191.358,4.845,4.845,0,0,0-2.169,4.483,1.447,1.447,0,0,1-.639,1.352c-3.8,3.114-5.286,7.154-4.108,11.909a10.921,10.921,0,0,0,9.1,8.569,11.191,11.191,0,0,0,11.02-3.934.954.954,0,0,1,.591-.272c1.069-.081,2.154-.043,3.208-.207a4,4,0,0,0,2.61-1.676c.319-.434.608-.705,1.245-.346-.224.618-.437,1.289-.71,1.933s-.6,1.259-.937,1.941c.422.348.864.717,1.31,1.081,1.732,1.416,3.476,2.817,5.195,4.249a5.015,5.015,0,0,1,1.835,5.484,5.2,5.2,0,0,1-9.035,1.946c-1.694-2.034-3.354-4.1-5.03-6.146-.129-.158-.262-.312-.386-.46" transform="translate(367 -457.092)" fill="#fff"/>
      <path id="Path_114-2" data-name="Path 114" d="M127.171,568.245c-.289.678-.533,1.271-.795,1.855a1.308,1.308,0,0,0,.685,1.692c.4.148.807.274,1.2.44a1.551,1.551,0,0,1,1.053,1.443c.025,1.109.026,2.22-.005,3.329a1.515,1.515,0,0,1-1.027,1.4,6.434,6.434,0,0,1-.909.337,1.286,1.286,0,0,0-1.022.922,1.11,1.11,0,0,0,.032.908c1,2.13.987,2.179-.673,3.839-.423.423-.842.849-1.27,1.266a1.653,1.653,0,0,1-2.016.35,6.409,6.409,0,0,1-.736-.355,1.275,1.275,0,0,0-1.417-.062,1.014,1.014,0,0,0-.59.628c-.124.407-.272.808-.435,1.2A1.6,1.6,0,0,1,117.7,588.5c-1.024.018-2.05.021-3.074,0a1.593,1.593,0,0,1-1.545-1.06c-.16-.395-.323-.789-.449-1.2a1.028,1.028,0,0,0-.586-.63,1.4,1.4,0,0,0-1.421.058c-1.786.865-1.923.827-3.325-.576-.483-.483-.97-.963-1.448-1.451a1.642,1.642,0,0,1-.38-2.051c.157-.359.3-.725.487-1.07a.964.964,0,0,0,.029-.812,1.4,1.4,0,0,0-1.035-.976c-1.862-.649-1.97-.836-1.97-2.81v-1.9a1.755,1.755,0,0,1,1.325-1.891,3.412,3.412,0,0,1,.578-.2,1.3,1.3,0,0,0,1.137-1.126.982.982,0,0,0-.01-.521c-.173-.444-.4-.866-.583-1.306a1.625,1.625,0,0,1,.343-1.888c.717-.732,1.437-1.462,2.176-2.171a1.584,1.584,0,0,1,1.841-.337,6.443,6.443,0,0,1,.88.409,1.134,1.134,0,0,0,1.367.028,1.808,1.808,0,0,0,.558-.578c.2-.39.315-.826.486-1.234a1.572,1.572,0,0,1,1.549-1.044H117.7a1.576,1.576,0,0,1,1.524,1.009,10.245,10.245,0,0,1,.456,1.247,1.016,1.016,0,0,0,.6.624,1.371,1.371,0,0,0,1.379-.045c1.782-.872,1.986-.824,3.379.568.483.483,1,.937,1.437,1.46a7.812,7.812,0,0,1,.7,1.221m-5.527,7.067a5.488,5.488,0,1,0-5.446,5.509,5.488,5.488,0,0,0,5.446-5.509" transform="translate(278.124 -421.298)" fill="#fff"/>
    </g>
    <g id="Group_66" data-name="Group 66" transform="translate(215.072 314.742)">
      <g id="Group_44-2" data-name="Group 44" clip-path="url(#clip-path)">
        <path id="Path_93-2" data-name="Path 93" d="M.01,10.5V8.508c.346,0,.683.005,1.02,0a.36.36,0,0,0,.37-.5.379.379,0,0,0-.384-.225h-1V5.793H1.443c.252-.006.408-.145.41-.358a.364.364,0,0,0-.4-.365c-.474-.006-.948,0-1.437,0V3.078H.964c.3,0,.473-.143.467-.371s-.177-.352-.462-.354H0C0,1.633,0,.934.008.236.011.054.161,0,.333,0H3.545c.38,0,.435.054.435.426V21.284c0,.381-.053.435-.426.435H.365C.08,21.719,0,21.641,0,21.36V19.368H1.026a.369.369,0,0,0,.4-.386.374.374,0,0,0-.41-.336c-.33,0-.661,0-1,0V16.653h1.4c.272,0,.432-.135.436-.354s-.16-.368-.444-.37H.008v-1.99c.337,0,.674.005,1.011,0a.361.361,0,0,0,.373-.5.377.377,0,0,0-.383-.226h-1v-1.99H1.083c.6,0,.769-.078.774-.357s-.175-.369-.786-.369H.01" fill="#fff"/>
        <path id="Path_94-2" data-name="Path 94" d="M102.573,165.184H92.9v-7.578a.477.477,0,0,1,.157-.374c.543-.534,1.078-1.075,1.64-1.639l7.878,9.592" transform="translate(-87.284 -146.189)" fill="#fff"/>
        <path id="Path_95-2" data-name="Path 95" d="M137.549,111.742l-5.961-7.258,2.3-2.308,1.239,1.7a5.671,5.671,0,0,0-.788.226,3.618,3.618,0,0,0-.87.5.622.622,0,0,0-.006.989,2.419,2.419,0,0,0,1.264.608,10.535,10.535,0,0,0,5.247-.114,2.442,2.442,0,0,0,.722-.359.711.711,0,0,0,.011-1.265,3.083,3.083,0,0,0-1.2-.5c-.1-.025-.2-.045-.34-.076.059-.082.107-.143.151-.207.427-.619.852-1.239,1.282-1.856.038-.054.1-.123.16-.124.435-.01.871-.006,1.334-.006v5.236a.477.477,0,0,1-.156.374q-2.124,2.113-4.239,4.236a2.252,2.252,0,0,0-.158.2" transform="translate(-123.636 -95.547)" fill="#fff"/>
        <path id="Path_96-2" data-name="Path 96" d="M172.134,13.66a3.344,3.344,0,0,1,3.339,3.31,3.735,3.735,0,0,1-.573,1.83,15.853,15.853,0,0,1-1.936,2.579c-.232.268-.466.533-.7.8-.073.084-.138.139-.235.026a21.253,21.253,0,0,1-2.694-3.475,3.855,3.855,0,0,1-.506-1.437,3.276,3.276,0,0,1,2.028-3.371,10.562,10.562,0,0,1,1.258-.322l.014.056m.012,5.475a2.121,2.121,0,1,0-1.513-.614,2.14,2.14,0,0,0,1.513.614" transform="translate(-158.613 -12.782)" fill="#fff"/>
        <path id="Path_97-2" data-name="Path 97" d="M242,216.021h-2.137a.222.222,0,0,1-.15-.074q-.885-1.071-1.763-2.148a.085.085,0,0,1-.017-.037l4.067-4.07Z" transform="translate(-223.557 -197.017)" fill="#fff"/>
        <path id="Path_98-2" data-name="Path 98" d="M99.563,327.783c-.072-.066-.12-.1-.161-.147a.352.352,0,0,1-.031-.49.357.357,0,0,1,.489-.061c.35.261.7.529,1.033.807a.339.339,0,0,1,0,.564c-.33.274-.67.537-1.014.794a.35.35,0,0,1-.5-.047.356.356,0,0,1,.06-.521c.031-.03.065-.058.129-.116H88.451l-.037.039a.953.953,0,0,1,.158.11.351.351,0,0,1,.022.49.33.33,0,0,1-.467.068q-.547-.4-1.069-.834a.33.33,0,0,1,0-.533c.341-.284.693-.556,1.049-.823a.36.36,0,0,1,.458.554c-.041.043-.089.08-.162.144Z" transform="translate(-81.67 -307.252)" fill="#fff"/>
        <path id="Path_99-2" data-name="Path 99" d="M327.624,113.655v-10.21c-.07.074-.115.13-.169.176a.338.338,0,0,1-.472.012.325.325,0,0,1-.073-.465q.4-.549.832-1.069a.347.347,0,0,1,.579.046c.25.311.495.627.737.944a.37.37,0,0,1-.017.543c-.167.142-.372.109-.552-.088l-.087-.1v10.2l.056.066a.68.68,0,0,1,.1-.189.329.329,0,0,1,.469-.021.32.32,0,0,1,.083.462q-.4.557-.848,1.086a.324.324,0,0,1-.516,0q-.434-.52-.835-1.068a.333.333,0,0,1,.061-.469.347.347,0,0,1,.489.017,1.185,1.185,0,0,1,.118.154l.042-.028" transform="translate(-307.09 -95.801)" fill="#fff"/>
        <path id="Path_100-2" data-name="Path 100" d="M93.106,105.925v-3.934h3.931l-3.931,3.934" transform="translate(-87.479 -95.827)" fill="#fff"/>
        <path id="Path_101-2" data-name="Path 101" d="M229.768,150.042c.316-.353.627-.687.92-1.035a.357.357,0,0,1,.4-.155c.44.121.882.234,1.319.363.077.023.135.108.2.164-.067.063-.125.164-.2.184-.564.146-1.129.294-1.7.4a7.706,7.706,0,0,1-.938.074" transform="translate(-215.883 -139.842)" fill="#fff"/>
        <path id="Path_102-2" data-name="Path 102" d="M173.748,150.2a7.345,7.345,0,0,1-2.674-.468c-.08-.032-.137-.123-.2-.186.067-.056.125-.143.2-.164.475-.132.953-.255,1.434-.365a.291.291,0,0,1,.221.1c.221.236.425.487.642.726.11.12.236.226.379.362" transform="translate(-160.544 -140.01)" fill="#fff"/>
      </g>
    </g>
    <g id="Group_67" data-name="Group 67" transform="translate(-133.827 174.819)">
      <path id="Path_115-2" data-name="Path 115" d="M0,75.56V74.267H2.22V58.48c0-.065.005-.13,0-.194-.012-.123.031-.172.162-.192.667-.1,1.332-.221,2-.332l4.8-.8,1.229-.2V74.254h1.306V59.805h8.176V74.267h2.219V75.56Zm8.54-4.426H4.116v3.123H5.385V72.422H7.256V74.25H8.54Zm5,1.257h1.343v-1.26H13.544ZM8.569,58.518H7.228v1.264H8.569ZM5.407,67.986H4.071v1.259H5.407Zm3.165,0H7.224v1.256H8.572Zm4.969,1.258h1.343V67.977H13.541Zm3.163,0h1.338v-1.26H16.7Zm1.339,1.888H16.7V72.4h1.338ZM4.07,62.932H5.4V61.675H4.069Zm3.153,0H8.571V61.675H7.222Zm7.669-1.242h-1.35v1.248h1.349Zm3.152,0H16.707v1.251h1.336ZM5.4,64.831H4.069v1.255H5.4Zm1.817,1.252H8.57v-1.25H7.221Zm7.667-1.251H13.54v1.253h1.348Zm3.157.007H16.7v1.244h1.344Z" transform="translate(272.243 85.352)" fill="#fff"/>
      <path id="Path_116-2" data-name="Path 116" d="M71.053,0l-.016,1.957v.268L66,3.062V0Z" transform="translate(210.043 138.845)" fill="#fff"/>
    </g>
    <g id="Group_68" data-name="Group 68" transform="translate(-267.071 99.142)">
      <path id="Path_118-2" data-name="Path 118" d="M512.593,146.8a3.173,3.173,0,0,1-4.92.015c-.193.175-.374.366-.581.524a3.131,3.131,0,0,1-4.989-2.022,16.752,16.752,0,0,1-.016-2.245h21.044a12.083,12.083,0,0,1-.122,2.575,3.153,3.153,0,0,1-5.361,1.3c-.045-.046-.088-.1-.145-.157a3.152,3.152,0,0,1-4.911,0" transform="translate(-57.017 79.477)" fill="#fff"/>
      <g id="Group_53-3" data-name="Group 53" transform="translate(443.616 215.492)">
        <path id="Path_117-2" data-name="Path 117" d="M532.2,247.577h-5.607a.684.684,0,0,1-.713-.7q0-3.633,0-7.266a.488.488,0,0,1,0-.059c.44.089.875.206,1.319.261a4.3,4.3,0,0,0,2.716-.573.308.308,0,0,1,.352,0,4.413,4.413,0,0,0,4.567,0,.309.309,0,0,1,.352,0,4.424,4.424,0,0,0,4.569,0,.271.271,0,0,1,.313-.023,4.515,4.515,0,0,0,3.9.339l.17-.056v7.273a.708.708,0,0,1-.81.8h-5.512v-4.747c0-.611-.259-.874-.862-.874h-3.929a.732.732,0,0,0-.831.837v4.522Z" transform="translate(-523.059 -226.481)" fill="#fff"/>
        <path id="Path_123-3" data-name="Path 123" d="M512.593,146.8a3.173,3.173,0,0,1-4.92.015c-.193.175-.374.366-.581.524a3.131,3.131,0,0,1-4.989-2.022,16.752,16.752,0,0,1-.016-2.245h21.044a12.083,12.083,0,0,1-.122,2.575,3.153,3.153,0,0,1-5.361,1.3c-.045-.046-.088-.1-.145-.157a3.152,3.152,0,0,1-4.911,0" transform="translate(-502.055 -136.015)" fill="#fff"/>
        <path id="Path_119-2" data-name="Path 119" d="M513,22.988,511.469,28.6h-4.816c.032-.071.058-.134.089-.2.82-1.639,1.644-3.276,2.459-4.917a.812.812,0,0,1,.817-.5c.98.014,1.96,0,2.98,0" transform="translate(-504.961 -22.969)" fill="#fff"/>
        <path id="Path_120-2" data-name="Path 120" d="M754.914,28.656H750.28c-.111,0-.186-.008-.222-.142q-.72-2.673-1.45-5.344c-.009-.035-.013-.071-.022-.123.068,0,.13-.011.192-.011h2.854a.709.709,0,0,1,.69.414Q753.6,26,754.873,28.543a1.147,1.147,0,0,1,.04.114" transform="translate(-732.701 -23.017)" fill="#fff"/>
        <path id="Path_121-2" data-name="Path 121" d="M616.69,23.018v5.608h-3.285l.618-2.267c.288-1.055.58-2.109.859-3.166a.2.2,0,0,1,.238-.178c.518.007,1.036,0,1.569,0" transform="translate(-605.451 -22.998)" fill="#fff"/>
        <path id="Path_122-2" data-name="Path 122" d="M697.108,28.368h-3.27V22.756h1.083c.218,0,.5-.067.637.04s.146.393.2.6q.66,2.416,1.317,4.832c.011.041.019.083.03.135" transform="translate(-681.165 -22.737)" fill="#fff"/>
        <rect id="Rectangle_7-2" data-name="Rectangle 7" width="2.782" height="4.186" transform="translate(10.56 16.9)" fill="#fff"/>
      </g>
    </g>
    <g id="Group_53-4" data-name="Group 53" transform="translate(354.241 -75.648)">
      <path id="Path_123-4" data-name="Path 123" d="M86.965,34.565a1.45,1.45,0,0,1,.879,1.51q-.025,12.053-.01,24.106v.429a15.623,15.623,0,0,0-1.538-1.028,4.624,4.624,0,0,0-3.192-.328.545.545,0,0,1-.417-.081,4.95,4.95,0,0,0-3.139-1.221c-.057-1.562.222-3.182-.763-4.594.12-.072.207-.126.3-.177A3.137,3.137,0,0,0,77.637,47.3c-.289-.011-.58,0-.869-.006a.786.786,0,1,1,0-1.573c.869-.01,1.739,0,2.608,0a1.2,1.2,0,1,0-.01-2.373c-.327,0-.653,0-1.021,0,0-.162.008-.29,0-.417a1.221,1.221,0,0,0-1.173-1.162,1.177,1.177,0,0,0-1.182,1.18c.008.4-.139.543-.489.69a3.119,3.119,0,0,0-1.817,3.528,3.183,3.183,0,0,0,3.015,2.5c.289.012.58,0,.869.007a.766.766,0,0,1,.145,1.52,3.2,3.2,0,0,1-.549.038,26,26,0,0,0-3.23.109,4.714,4.714,0,0,0-3.887,4.62c-.011,1.963,0,3.925,0,5.888v.491a4.969,4.969,0,0,0-3.554-.385v-.543q0-12.665-.011-25.331a1.449,1.449,0,0,1,.879-1.51Z" transform="translate(196.243 251.805)" fill="#fff"/>
      <path id="Path_124-2" data-name="Path 124" d="M0,51.872a1.435,1.435,0,0,1,1.511-.879c1.738.035,3.478.011,5.217.011h.444v4.8c-.125.006-.251.017-.378.017-.975,0-1.95,0-2.925,0-.855,0-1.427.485-1.418,1.2a1.243,1.243,0,0,0,1.4,1.176c1.093,0,2.186,0,3.31,0v2.369H6.39c-.9,0-1.792-.008-2.688,0a1.186,1.186,0,1,0,0,2.369c1.145.01,2.289,0,3.462,0v2.369H4.484c-.25,0-.5,0-.751,0a1.19,1.19,0,1,0,.018,2.372c1,.006,2,0,3,0h.413v4.74h-.4c-1.752,0-3.5-.023-5.257.011A1.437,1.437,0,0,1,0,71.556Z" transform="translate(253.168 237.739)" fill="#fff"/>
      <path id="Path_125-2" data-name="Path 125" d="M66.021,182.129v-6.013c0-2.279-.006-4.558,0-6.837a2.408,2.408,0,0,1,2.161-2.453,2.272,2.272,0,0,1,2.577,2.164c.025,1.976.007,3.952.007,5.928v.487c.642-1.417,1.594-2.025,2.768-1.819,1.225.215,1.807,1.054,2.009,2.97a2.522,2.522,0,0,1,1.1-1.5,2.06,2.06,0,0,1,1.739-.278,3.006,3.006,0,0,1,1.169.676,2.7,2.7,0,0,1,.621,1.155,7.216,7.216,0,0,1,.107,1.412c.078-.185.137-.336.206-.483a2.36,2.36,0,0,1,4.5.986q.008,4.249,0,8.5a1.171,1.171,0,0,1-1.265,1.249q-9.406,0-18.812.006a.562.562,0,0,1-.52-.262c-1.623-2.27-3.258-4.532-4.881-6.8a2.38,2.38,0,1,1,3.872-2.758c.775,1.08,1.541,2.167,2.312,3.251.081.114.168.223.321.425" transform="translate(202.638 138.574)" fill="#fff"/>
      <path id="Path_126-2" data-name="Path 126" d="M231.677,60.634v-2.35c.13-.006.257-.018.384-.018,1.014,0,2.029,0,3.043,0a1.19,1.19,0,1,0,.009-2.371c-1.132-.007-2.264,0-3.425,0v-4.8c.127-.006.255-.017.382-.018q2.727,0,5.454,0a1.186,1.186,0,0,1,1.324,1.309q0,9.407,0,18.814a1.182,1.182,0,0,1-1.3,1.3q-2.747,0-5.494,0h-.374v-4.74c1.143,0,2.273,0,3.4,0a1.209,1.209,0,0,0,1.207-.726,1.177,1.177,0,0,0-1.122-1.644c-1.014-.017-2.029,0-3.043,0h-.447V63.009h.371c1,0,2,0,3,0a1.2,1.2,0,1,0-.012-2.373c-1.107,0-2.213,0-3.366,0" transform="translate(54.792 237.671)" fill="#fff"/>
    </g>
    <g id="Group_54-2" data-name="Group 54" transform="translate(235.35 -73.951)">
      <path id="Path_127-2" data-name="Path 127" d="M556.564,15.145a1.6,1.6,0,0,1,1.117,1.806c-.027.348,0,.7,0,1.088H538.6c-.858,0-1.065.207-1.065,1.064q0,6.845,0,13.691c0,.822.23,1.055,1.047,1.055h19.068v5.765h-8.316c-.768,0-1,.234-1,1.013q0,4.013,0,8.026c0,.792.239,1.028,1.035,1.028H557.6c.034.046.062.067.062.087,0,1.455.02,2.911,0,4.366a1.422,1.422,0,0,1-2.818.125c-.069-.7-.047-1.413-.055-2.12-.009-.8-.223-1.02-1.033-1.02H526.043V35.292h9.017c.786,0,1.032-.246,1.033-1.034q0-4.013,0-8.026c0-.761-.256-1.016-1.011-1.016h-9.062V24.74c0-2.6.02-5.193-.011-7.789a1.66,1.66,0,0,1,1.123-1.805ZM537.17,46.789H545.9c.742,0,.984-.243.985-.99q0-4.031,0-8.063c0-.742-.25-1-.981-1q-8.731,0-17.463,0c-.734,0-.983.257-.984,1q0,4.031,0,8.063c0,.751.241.993.98.993h8.731M536.082,19.5h-8.6v1.358h8.6Zm-4.327-2.891h-1.376v1.363h1.376Zm-4.25,1.374h1.345V16.61h-1.345Zm5.712-.016h1.388V16.588c-.406,0-.782-.014-1.156.01a.323.323,0,0,0-.222.222c-.024.374-.01.75-.01,1.15" transform="translate(-229.667 269.704)" fill="#fff"/>
      <path id="Path_128-2" data-name="Path 128" d="M496.447,271.745c.17.006.34.016.51.016h31.126a6.255,6.255,0,0,0,.418,2.893h-.508q-14.867,0-29.733.011a1.687,1.687,0,0,1-1.813-1.111Z" transform="translate(-204.413 50.484)" fill="#fff"/>
      <path id="Path_129-2" data-name="Path 129" d="M496.447,94.016l12.462.009h.482v7.231H496.447Zm6.513,1.244-1.431,4.3,1.353.448,1.43-4.3-1.352-.451m-3.437.482c-.478.47-.965.926-1.423,1.409a.623.623,0,0,0-.046.893c.484.508,1.02.967,1.495,1.408l1.032-.987-.988-.867.935-.882-1-.975m6.809,1.91-.943.894.959.975c.448-.446.921-.9,1.37-1.371a.634.634,0,0,0,.055-.951c-.473-.5-.989-.959-1.482-1.432l-1.01.99,1.052.894" transform="translate(-204.413 202.323)" fill="#fff"/>
      <path id="Path_130-2" data-name="Path 130" d="M615.022,54.427V44.943h22.994v9.515c-.352-.2-.68-.38-1.005-.565-.921-.525-1.847-1.043-2.76-1.582a.97.97,0,0,0-1.034-.022c-1.564.821-3.137,1.624-4.7,2.445a.515.515,0,0,1-.6-.03c-1.918-1.254-3.853-2.483-5.766-3.746a1.059,1.059,0,0,0-1.293-.022c-1.807,1.11-3.633,2.19-5.452,3.281-.108.065-.221.122-.379.209m15.481-3.04a2.511,2.511,0,1,0-2.532-2.482,2.544,2.544,0,0,0,2.532,2.482" transform="translate(-305.714 244.247)" fill="#fff"/>
      <path id="Path_131-2" data-name="Path 131" d="M614.865,101.175c0-.543-.009-1.064.009-1.584a.4.4,0,0,1,.188-.258q3.042-1.839,6.1-3.653a.568.568,0,0,1,.473.072q2.9,1.853,5.772,3.735a1.046,1.046,0,0,0,1.2.062c1.547-.825,3.114-1.613,4.665-2.43a.542.542,0,0,1,.607.017q1.866,1.087,3.752,2.14a.471.471,0,0,1,.282.493c-.02.457-.006.916-.006,1.407Z" transform="translate(-305.578 200.926)" fill="#fff"/>
      <path id="Path_132-2" data-name="Path 132" d="M701.408,200.279H689.216v-7.162h12.192Zm-7.857-1.471h6.4v-1.367h-6.4Zm0-2.9c.034.021.046.034.057.035,2.052.009,4.1.02,6.157.018a.3.3,0,0,0,.208-.2c.021-.388.01-.778.01-1.183h-6.432Zm-2.892.039h1.381v-1.367h-1.381Zm1.375,1.5h-1.361v1.376h1.361Z" transform="translate(-369.1 117.658)" fill="#fff"/>
      <path id="Path_133-2" data-name="Path 133" d="M562.465,180.435H545.928v-7.151h16.537ZM547.391,179h8.558v-1.37h-8.558Zm4.313-2.875h6.418v-1.378H551.7Zm5.756,2.869h3.521v-1.369H557.46Zm-10.078-2.875h2.808v-1.374h-2.808Zm12.221-.006h1.384v-1.368H559.6Z" transform="translate(-246.685 134.602)" fill="#fff"/>
      <path id="Path_134-2" data-name="Path 134" d="M714.8,66.643a1.086,1.086,0,1,1,1.078-1.075,1.105,1.105,0,0,1-1.078,1.075" transform="translate(-390.013 227.564)" fill="#fff"/>
    </g>
    <g id="Group_55" data-name="Group 55" transform="translate(120.451 -75.576)">
      <path id="Path_135-2" data-name="Path 135" d="M982.994,112.428v20.6a9.2,9.2,0,0,1-.443,1.014,2.656,2.656,0,0,1-1.444,1.03H944.636c-.028-.024-.052-.06-.085-.071a2.382,2.382,0,0,1-1.787-2.5q0-9.788,0-19.576a3.314,3.314,0,0,1,.122-.928,2.374,2.374,0,0,1,2.469-1.671H980.3c.118,0,.236,0,.354,0a2.372,2.372,0,0,1,2.2,1.66c.047.148.092.3.138.444m-32.246,2.584c-.72,0-1.44-.005-2.161,0a1.928,1.928,0,0,0-1.976,1.916q-.042,1.748,0,3.5a1.931,1.931,0,0,0,1.982,1.914q2.181.01,4.361,0a1.884,1.884,0,0,0,1.916-1.84q.051-1.826,0-3.654a1.879,1.879,0,0,0-1.922-1.831c-.733-.009-1.467,0-2.2,0m1.5,12.622h-5.781v2.306h5.781Zm9.013,0H955.5v2.305h5.758Zm3.22,2.307h5.76V127.63h-5.76Zm14.8-2.307h-5.777v2.3h5.777Z" transform="translate(-615.787 188.861)" fill="#fff"/>
      <path id="Path_136-2" data-name="Path 136" d="M1040.429,5.735c-.072.087-.134.169-.2.243q-3.274,3.474-6.545,6.95a.8.8,0,0,1-.648.274q-6.482-.011-12.964-.006c-.125,0-.25-.012-.434-.022.123-.135.2-.224.277-.3q6.027-6.03,12.056-12.058a2.333,2.333,0,0,1,2.827-.55,2.707,2.707,0,0,1,.662.482q2.427,2.406,4.837,4.83c.045.045.083.1.135.16" transform="translate(-681.845 283.664)" fill="#fff"/>
      <path id="Path_137-2" data-name="Path 137" d="M1140.553,58.6l5.433-5.765,1.862,1.87c-.038.047-.1.13-.165.2q-1.626,1.73-3.258,3.453a.651.651,0,0,1-.38.228c-1.122.018-2.243.01-3.493.01" transform="translate(-785.755 238.259)" fill="#fff"/>
      <path id="Path_138-2" data-name="Path 138" d="M1194.278,80.293h-4.269l-.045-.144L1191.981,78l2.3,2.29" transform="translate(-828.217 216.632)" fill="#fff"/>
      <rect id="Rectangle_8-2" data-name="Rectangle 8" width="3.566" height="2.607" transform="translate(333.187 306.232)" fill="#fff"/>
    </g>
  </g>
</svg>
