<svg xmlns="http://www.w3.org/2000/svg" xmlns:xlink="http://www.w3.org/1999/xlink" width="206" height="89" viewBox="0 0 206 89">
  <defs>
    <clipPath id="clip-path">
      <rect id="Rectangle_21523" data-name="Rectangle 21523" width="29.52" height="28.747" fill="none"/>
    </clipPath>
  </defs>
  <g id="Group_23581" data-name="Group 23581" transform="translate(-1422 40)">
    <g id="Component_1_1" data-name="Component 1 – 1" transform="translate(1479 14)">
      <rect id="Rectangle_21524" data-name="Rectangle 21524" width="40" height="35" fill="none"/>
      <g id="Group_23570" data-name="Group 23570" transform="translate(158.283 -277.909)">
        <path id="Path_80579" data-name="Path 80579" d="M126.417,997.745a10.45,10.45,0,0,1-.6,1.166c-1.507,2.226-3.034,4.439-4.552,6.658a5.185,5.185,0,0,1-4.511,2.381q-6.254.01-12.509,0h-.3c-.005-.115-.014-.208-.014-.3q0-5.419,0-10.837a.412.412,0,0,1,.223-.412,6.012,6.012,0,0,1,7.311.62,1.858,1.858,0,0,0,1.35.5c1.344-.027,2.69-.018,4.035-.006a1.728,1.728,0,1,1,0,3.454c-1.076.007-2.152,0-3.228,0-1.191,0-2.383,0-3.574,0a.865.865,0,1,0-.011,1.727c1.018,0,2.037,0,3.055,0q2.1,0,4.208,0a2,2,0,0,0,1.65-.788c1.438-1.8,2.887-3.594,4.329-5.393a1.687,1.687,0,0,1,1.742-.694,1.649,1.649,0,0,1,1.35,1.331c.006.025.031.045.048.068Z" transform="translate(-249.94 -699.513)"/>
        <path id="Path_80580" data-name="Path 80580" d="M96.341,825.66a3.044,3.044,0,0,1,1.265.811q4.464,4.111,8.94,8.208a2.047,2.047,0,0,1,.688,1.006,1.693,1.693,0,0,1-.761,1.891,1.772,1.772,0,0,1-2.109-.218q-2.234-2.064-4.465-4.131l-3.639-3.368c-.062-.058-.128-.112-.205-.179-.085.074-.166.139-.242.209l-8.051,7.429a1.728,1.728,0,0,1-2.946-1.3A1.861,1.861,0,0,1,85.5,834.7q2.336-2.123,4.659-4.26c1.453-1.33,2.912-2.654,4.358-3.992a3.012,3.012,0,0,1,1.244-.792Z" transform="translate(-232.549 -545.014)"/>
        <path id="Path_80581" data-name="Path 80581" d="M262.341,825.66a1.108,1.108,0,0,1,.643,1.16c-.025,1.516-.009,3.033-.009,4.617-.113-.1-.187-.163-.26-.229l-4.66-4.3a.626.626,0,0,1,.037-1.036,3.322,3.322,0,0,1,.327-.216Z" transform="translate(-389.958 -545.014)"/>
        <path id="Path_80582" data-name="Path 80582" d="M25.849,987.8q0-3.371,0-6.742c0-.756.312-1.069,1.063-1.07.509,0,1.018,0,1.527,0a2.607,2.607,0,0,1,2.713,2.727q.006,4.711,0,9.422c0,.278,0,.557,0,.836a2.6,2.6,0,0,1-2.627,2.638c-.576.012-1.152.006-1.729,0a.872.872,0,0,1-.946-.954q0-3.429,0-6.857" transform="translate(-178.892 -685.443)"/>
        <path id="Path_80583" data-name="Path 80583" d="M128.044,904.42a7.48,7.48,0,0,0-5.158-.6l-.064-.061a1.4,1.4,0,0,1,.2-.317q2.97-2.753,5.949-5.5l1.66-1.532c.087.073.161.131.229.195q3.682,3.406,7.366,6.809a.566.566,0,0,1,.2.471c-.012.692,0,1.384-.011,2.075a.754.754,0,0,1-.147.41c-.323.428-.667.841-1.028,1.292a3.712,3.712,0,0,0-4.007-1.977v-.332c0-.73,0-1.461,0-2.191a.872.872,0,0,0-.945-.955q-1.643-.007-3.286,0a.878.878,0,0,0-.956.975c0,.4,0,.8,0,1.233" transform="translate(-267.134 -609.398)"/>
        <path id="Path_80584" data-name="Path 80584" d="M201.715,981.961c-.506,0-.993,0-1.481,0-.177,0-.232-.085-.23-.25,0-.478,0-.957,0-1.458h1.709Z" transform="translate(-337.367 -685.688)"/>
      </g>
    </g>
    <g id="Component_2_1" data-name="Component 2 – 1" transform="translate(1422 -40)">
      <rect id="Rectangle_21525" data-name="Rectangle 21525" width="40" height="35" fill="none"/>
      <g id="Group_23578" data-name="Group 23578" transform="translate(-616.289 220.858)">
        <path id="Path_80569" data-name="Path 80569" d="M1411.828,201.659c.024-.786.066-1.551.068-2.316.008-2.771,0-5.541,0-8.312a8.214,8.214,0,0,0-.377-2.74.569.569,0,0,1-.016-.123c.03-.021.047-.044.064-.044a27.964,27.964,0,0,1,3.55.12,4.878,4.878,0,0,1,4.04,4.737c.035,1.888.028,3.777,0,5.665a2.922,2.922,0,0,1-2.74,3c-1.544.076-3.095.016-4.6.016" transform="translate(-765.515 -390.307)"/>
        <g id="Group_23572" data-name="Group 23572" transform="translate(618.909 -218.095)">
          <path id="Path_80566" data-name="Path 80566" d="M1202.609,192.531a10.341,10.341,0,0,1,.45-1.479,4.8,4.8,0,0,1,4.221-2.944c.987-.07,1.982-.012,3-.012-.023.1-.049.178-.062.264a16.739,16.739,0,0,0-.323,2.271c-.036,3.266-.02,6.534-.01,9.8,0,.39.077.78.121,1.2h-1.172c-.995,0-1.99-.026-2.984.006a3.05,3.05,0,0,1-3.207-2.6c0-.02-.024-.037-.037-.055Z" transform="translate(-1202.609 -172.167)"/>
          <path id="Path_80567" data-name="Path 80567" d="M1282.335,184.083h-6.818c-.909,0-1.257-.342-1.257-1.238,0-3.279-.007-6.558,0-9.836a4.976,4.976,0,0,1,3.943-4.973,4.736,4.736,0,0,1,1.041-.113c2.058-.01,4.115-.021,6.173,0a4.959,4.959,0,0,1,4.88,3.927,5.32,5.32,0,0,1,.12,1.175q.014,4.952,0,9.9a1.018,1.018,0,0,1-1.17,1.155q-3.46,0-6.919,0" transform="translate(-1264.968 -154.618)"/>
          <path id="Path_80568" data-name="Path 80568" d="M1296.125,65.382a6.03,6.03,0,1,1-6.043,5.973,6.046,6.046,0,0,1,6.043-5.973" transform="translate(-1278.742 -65.382)"/>
          <path id="Path_80570" data-name="Path 80570" d="M1229.137,113.284a4.507,4.507,0,1,1-4.455-4.516,4.535,4.535,0,0,1,4.455,4.516" transform="translate(-1217.851 -103.143)"/>
          <path id="Path_80571" data-name="Path 80571" d="M1392.6,113.259a4.507,4.507,0,1,1-4.519-4.493,4.527,4.527,0,0,1,4.519,4.493" transform="translate(-1360.118 -103.141)"/>
        </g>
      </g>
    </g>
    <g id="Component_3_1" data-name="Component 3 – 1" transform="translate(1422 14)">
      <rect id="Rectangle_21526" data-name="Rectangle 21526" width="40" height="35" fill="none"/>
      <g id="Group_23579" data-name="Group 23579" transform="translate(174.693 243.255)">
        <path id="Path_80576" data-name="Path 80576" d="M15.619,61.3H15a3.667,3.667,0,0,1-2.056-1.2c-.47-.485-.971-.939-1.453-1.412a1.048,1.048,0,0,0-.938-.307c-.791.116-1.584.221-2.373.344A2.789,2.789,0,0,1,4.813,56.4q-.237-1.175-.415-2.361a1.243,1.243,0,0,0-.725-1.009c-.706-.351-1.4-.728-2.093-1.1A2.787,2.787,0,0,1,.328,48.077c.348-.731.7-1.459,1.068-2.18a1.161,1.161,0,0,0,0-1.128c-.362-.712-.71-1.431-1.056-2.152A2.8,2.8,0,0,1,1.612,38.73c.7-.378,1.407-.759,2.12-1.12a1.16,1.16,0,0,0,.657-.919q.186-1.153.395-2.3a2.789,2.789,0,0,1,3.275-2.453c.794.091,1.585.211,2.374.34a1.175,1.175,0,0,0,1.106-.34c.573-.574,1.16-1.132,1.746-1.692a2.783,2.783,0,0,1,4.044,0q.9.861,1.792,1.734a1.075,1.075,0,0,0,.967.313c.791-.117,1.583-.227,2.373-.346A2.786,2.786,0,0,1,25.8,34.267c.161.793.295,1.592.421,2.391a1.2,1.2,0,0,0,.688.965c.7.349,1.377.725,2.064,1.092a2.8,2.8,0,0,1,1.279,3.956c-.336.69-.665,1.384-1.017,2.067a1.2,1.2,0,0,0,0,1.185c.364.711.712,1.431,1.055,2.152a2.784,2.784,0,0,1-1.248,3.846c-.711.386-1.425.769-2.147,1.135a1.161,1.161,0,0,0-.663.914c-.124.768-.257,1.535-.394,2.3a2.8,2.8,0,0,1-3.3,2.46c-.793-.1-1.585-.213-2.374-.34a1.149,1.149,0,0,0-1.077.336c-.461.464-.952.9-1.407,1.37a3.663,3.663,0,0,1-2.056,1.2M22.37,39.309a1.028,1.028,0,0,0-1-.965,1.058,1.058,0,0,0-.754.383q-5.959,5.962-11.92,11.921a1.717,1.717,0,0,0-.208.231.915.915,0,0,0,.731,1.445,1.1,1.1,0,0,0,.829-.426q5.253-5.257,10.51-10.511c.47-.47.953-.929,1.4-1.416a3.92,3.92,0,0,0,.41-.662m-3.39,7.568a3.372,3.372,0,1,0,3.38,3.35,3.367,3.367,0,0,0-3.38-3.35m-7.345-3.084a3.373,3.373,0,1,0-3.38-3.351,3.374,3.374,0,0,0,3.38,3.351" transform="translate(-170 -271.09)"/>
        <path id="Path_80577" data-name="Path 80577" d="M225.168,280.091a1.521,1.521,0,0,1-1.54-1.506,1.532,1.532,0,1,1,3.063-.02,1.528,1.528,0,0,1-1.523,1.526" transform="translate(-376.168 -499.413)"/>
        <path id="Path_80578" data-name="Path 80578" d="M132.309,152.9a1.532,1.532,0,1,1-3.063.008,1.532,1.532,0,0,1,3.063-.008" transform="translate(-289.155 -383.578)"/>
      </g>
    </g>
    <g id="Component_4_1" data-name="Component 4 – 1" transform="translate(1536 -40)">
      <rect id="Rectangle_21527" data-name="Rectangle 21527" width="40" height="35" fill="none"/>
      <g id="Group_23573" data-name="Group 23573" transform="translate(-236.307 262.984)">
        <path id="Path_80574" data-name="Path 80574" d="M626.995,82.9V81.1h3.09V62.878c0-1.3,0-2.593,0-3.889,0-.208.033-.306.277-.346,2.468-.4,4.932-.818,7.4-1.23,1.208-.2,2.416-.4,3.664-.608V81.088h1.79V61.028h11.333V81.111h3.066V82.9Zm7.467-4.347h2.589v2.531h1.764V76.755h-6.132v4.329h1.78ZM637,60.99h1.869V59.237H637Zm1.874,11.384h-1.867v1.761h1.867Zm6.877,1.754h1.873V72.371h-1.873Zm1.876,2.62h-1.873V78.51h1.873Zm2.5,1.759h1.861V76.74H650.13Zm-17.5-13.136h1.863V63.606h-1.863Zm6.242-1.758H637v1.759h1.87Zm6.88,1.758h1.865V63.607H645.75ZM652,63.614h-1.88v1.749H652Zm-19.367,6.137H634.5V68h-1.862Zm4.372,0h1.868V68h-1.868ZM647.62,68h-1.874v1.756h1.874Zm2.5,1.751h1.871V68h-1.871Zm-15.617,2.625h-1.869v1.751h1.869Zm17.489,0h-1.871v1.756h1.871Z" transform="translate(-385.687 -313.248)"/>
        <path id="Path_80575" data-name="Path 80575" d="M699.808,0c.007.975.019,1.95.012,2.924,0,.066-.136.176-.222.191-1.283.225-2.568.438-3.853.653-.941.157-1.882.312-2.877.478V0Z" transform="translate(-446.294 -260.986)"/>
      </g>
    </g>
    <g id="Component_5_1" data-name="Component 5 – 1" transform="translate(1588 -40)">
      <rect id="Rectangle_21530" data-name="Rectangle 21530" width="40" height="35" fill="none"/>
      <g id="Group_23576" data-name="Group 23576" transform="translate(5 3)">
        <g id="Group_23575" data-name="Group 23575" clip-path="url(#clip-path)">
          <path id="Path_80588" data-name="Path 80588" d="M23.275,12.266c.2-.216.39-.446.608-.647a2.772,2.772,0,0,1,3.849,0c.32.293.633.594.943.9a2.456,2.456,0,0,1-.008,3.715q-2.612,2.506-5.248,4.988a.817.817,0,0,0-.291.656c.013,1.374.01,2.748,0,4.122a2.594,2.594,0,0,1-2.876,2.745q-8.692,0-17.384,0A2.6,2.6,0,0,1,0,25.991Q0,14.377,0,2.763A2.609,2.609,0,0,1,2.906,0q8.671,0,17.343,0a2.593,2.593,0,0,1,2.884,2.737q.008,4.5,0,9V12.2ZM23.083,14.8c.017-.009-.011,0-.03.018q-3.374,3.2-6.743,6.415a.812.812,0,0,0-.268.475c-.031.641-.013,1.285-.013,1.967.558,0,1.084-.022,1.607.006a1.479,1.479,0,0,0,1.177-.465c2.091-2.007,4.2-4,6.3-6,.1-.091.186-.189.265-.269L23.083,14.8M11.573,10.151h6.75c.826,0,1.247-.285,1.254-.845s-.421-.859-1.238-.859q-6.771,0-13.542,0a2.332,2.332,0,0,0-.617.059.769.769,0,0,0-.6.764.789.789,0,0,0,.589.816,2.452,2.452,0,0,0,.617.062q3.4.006,6.792,0m.017,3.37h3.5c1.208,0,2.417.007,3.625-.009a.842.842,0,0,0,.864-.84.867.867,0,0,0-.841-.831c-.124-.01-.25,0-.375,0H4.781a3.829,3.829,0,0,0-.416.008.845.845,0,0,0-.782.984c.073.44.427.69,1.008.691q3.5,0,7,0m-1.8,3.39h2.25c1.028,0,2.056.008,3.084-.005a.841.841,0,0,0,.88-.783.823.823,0,0,0-.679-.872,2.942,2.942,0,0,0-.5-.023H4.746c-.125,0-.251,0-.375.009a.823.823,0,0,0-.8.852c.012.5.4.821,1.011.822q2.6,0,5.209,0M11.559,5.075c1.168,0,2.335.01,3.5,0a.856.856,0,0,0,.949-.845c0-.493-.363-.823-.944-.852-.111-.006-.222,0-.334,0q-3.085,0-6.171,0a4.094,4.094,0,0,0-.786.05.788.788,0,0,0-.643.778.8.8,0,0,0,.638.823,2.38,2.38,0,0,0,.536.049c1.084,0,2.168,0,3.252,0M8,18.6c-1.14,0-2.279-.007-3.419,0-.683.006-1.088.419-1,.989.07.448.441.711,1.043.712q3.377.006,6.754,0a1.579,1.579,0,0,0,.492-.064.776.776,0,0,0,.576-.786.768.768,0,0,0-.578-.784,1.965,1.965,0,0,0-.575-.065c-1.1-.006-2.2,0-3.294,0m18.749-2.888c.254-.249.515-.486.754-.742a.758.758,0,0,0,.048-1.111,13.96,13.96,0,0,0-1.177-1.116.871.871,0,0,0-1.109-.013c-.288.257-.551.541-.809.8l2.294,2.182" transform="translate(0 0)"/>
        </g>
      </g>
    </g>
    <g id="Component_6_1" data-name="Component 6 – 1" transform="translate(1536 14)">
      <rect id="Rectangle_21528" data-name="Rectangle 21528" width="40" height="35" fill="none"/>
      <g id="Group_23574" data-name="Group 23574" transform="translate(5.317 0.939)">
        <path id="Path_80587" data-name="Path 80587" d="M23.556,7.139H15.848V5.164a1.688,1.688,0,0,0,.857-1.45,1.713,1.713,0,1,0-3.426,0,1.688,1.688,0,0,0,.857,1.45V7.139H6.426A3.43,3.43,0,0,0,3,10.565V22.556a3.43,3.43,0,0,0,3.426,3.426H8.139v4.283a.857.857,0,0,0,.529.791A.846.846,0,0,0,9,31.121a.856.856,0,0,0,.606-.251l4.888-4.888h9.067a3.43,3.43,0,0,0,3.426-3.426V10.565A3.43,3.43,0,0,0,23.556,7.139ZM8.139,15.7a1.713,1.713,0,1,1,1.713,1.713A1.713,1.713,0,0,1,8.139,15.7ZM19.714,20.7a9.143,9.143,0,0,1-9.445,0,.856.856,0,1,1,.88-1.469,7.555,7.555,0,0,0,7.685,0,.856.856,0,1,1,.88,1.469Zm.417-3.28A1.713,1.713,0,1,1,21.843,15.7,1.713,1.713,0,0,1,20.13,17.417Z" transform="translate(0)"/>
      </g>
    </g>
    <g id="Component_7_1" data-name="Component 7 – 1" transform="translate(1588 14)">
      <rect id="Rectangle_21529" data-name="Rectangle 21529" width="40" height="35" fill="none"/>
      <g id="Group_23571" data-name="Group 23571" transform="translate(-225.87 -281.09)">
        <path id="Path_80585" data-name="Path 80585" d="M611.45,851.962v-16.95a1.488,1.488,0,0,0,.057-.188,4.87,4.87,0,0,1,2.806-3.8,11.453,11.453,0,0,1,1.634-.513h13.145a1.193,1.193,0,0,0,.184.059,4.945,4.945,0,0,1,4.253,4.733c.058,2.563.035,5.128.011,7.692a5.107,5.107,0,0,1-.266,1.578,4.969,4.969,0,0,1-4.835,3.409c-3.323.006-6.646,0-9.969.009a.826.826,0,0,0-.485.174c-1.652,1.362-3.293,2.738-4.944,4.1a1.486,1.486,0,0,1-.568.314c-.455.108-.747-.09-1.024-.624m10.2-11.806h0c0,.163,0,.327,0,.49a.853.853,0,0,0,.8.858.828.828,0,0,0,.9-.751c.022-.268.155-.344.362-.424a3.173,3.173,0,1,0-4.377-2.9.856.856,0,0,0,1.7.116c.019-.1.03-.209.041-.314a1.437,1.437,0,0,1,1.09-1.234,1.452,1.452,0,0,1,1.569.646,1.436,1.436,0,0,1-1.063,2.19c-.82.1-1.023.333-1.023,1.153v.173m0,3.253a.86.86,0,0,0,.844.878.883.883,0,0,0,.878-.853.869.869,0,0,0-.853-.872.848.848,0,0,0-.869.846" transform="translate(-380.34 -546.684)"/>
        <path id="Path_80586" data-name="Path 80586" d="M698.427,929.263h.351q4.582,0,9.164,0a6.791,6.791,0,0,0,6.893-6.923c-.007-1.5,0-3,0-4.5v-.351a5.14,5.14,0,0,1,3.913,1.188,4.848,4.848,0,0,1,1.763,3.794c.014,5.389.005,10.778.006,16.167a.862.862,0,0,1-.516.857.9.9,0,0,1-1.008-.209l-3.475-2.9c-.494-.412-.993-.818-1.48-1.24a.8.8,0,0,0-.569-.207c-3.276.007-6.551,0-9.827.006a5.094,5.094,0,0,1-5.214-5.69" transform="translate(-459.887 -626.23)"/>
      </g>
    </g>
    <g id="Component_8_1" data-name="Component 8 – 1" transform="translate(1479 -40)">
      <rect id="Rectangle_21531" data-name="Rectangle 21531" width="40" height="35" fill="none"/>
      <g id="Group_23580" data-name="Group 23580" transform="translate(-860.329 255.213)">
        <path id="Path_80572" data-name="Path 80572" d="M1646.934,12.175c.231.046.466.081.693.141a5.092,5.092,0,0,1,2.967,1.916.426.426,0,0,0,.2.161,2.448,2.448,0,0,1,1.667,2,8.024,8.024,0,0,1,.06,3.024c-.063.46-.164.914-.248,1.372.578.134.766.341.743.971a6.783,6.783,0,0,1-.846,2.951.591.591,0,0,1-.228.269c-.316.137-.329.422-.413.693a6.291,6.291,0,0,1-3.862,4.363,4.511,4.511,0,0,1-4.854-1.179,6.509,6.509,0,0,1-1.983-3.464c-.027-.121-.152-.223-.24-.326a2.426,2.426,0,0,1-.333-.375,6.558,6.558,0,0,1-.84-2.98c-.01-.591.192-.812.746-.909-.09-.464-.2-.926-.268-1.393a5.671,5.671,0,0,1,1.727-5.044,7,7,0,0,1,3.338-2.04c.258-.062.522-.1.783-.15Z" transform="translate(-765.898 -265.173)"/>
        <path id="Path_80573" data-name="Path 80573" d="M1589.771,178.132l2.768,8.7c.07-.164.108-.241.136-.322.3-.833.585-1.668.886-2.5a.479.479,0,0,0-.05-.438,9.915,9.915,0,0,1-.825-1.672c-.3-.956.149-1.575,1.146-1.744a2.934,2.934,0,0,1,1.47.118,1.131,1.131,0,0,1,.8,1.187,3.411,3.411,0,0,1-.714,1.806,1,1,0,0,0-.136,1.08c.29.7.514,1.419.767,2.13a.623.623,0,0,0,.172.275l2.73-8.6c.083.042.154.07.217.11a18.421,18.421,0,0,0,5.322,2.423c1.875.483,2.5,1.678,2.723,3.342a18.455,18.455,0,0,1-.133,3.539,1.145,1.145,0,0,1-.748,1.067,25.009,25.009,0,0,1-6.361,2.146,28.94,28.94,0,0,1-8.375.406,25.482,25.482,0,0,1-8.786-2.375,3.391,3.391,0,0,0-.32-.159,1.09,1.09,0,0,1-.812-1.113c-.022-.993-.165-1.983-.168-2.975a4.557,4.557,0,0,1,.672-2.5,2.662,2.662,0,0,1,1.547-1.193,21.282,21.282,0,0,0,5.506-2.382c.176-.109.351-.22.565-.355" transform="translate(-714.033 -413.75)"/>
      </g>
    </g>
  </g>
</svg>
