<svg xmlns="http://www.w3.org/2000/svg" width="272" height="103" viewBox="0 0 272 103">
  <g id="no_image" data-name="no image" transform="translate(17576 206)">
    <text id="No_Image_Available" data-name="No Image Available" transform="translate(-17440 -108)" fill="#fff" font-size="28" font-family="Gotham-Book, Gotham"><tspan x="-135.702" y="0">No Image Available</tspan></text>
    <g id="image_2_" data-name="image (2)" transform="translate(-17468 -206)">
      <g id="Group_512" data-name="Group 512">
        <g id="Group_511" data-name="Group 511">
          <path id="Path_762" data-name="Path 762" d="M50.3,0H5.2A5.2,5.2,0,0,0,0,5.2V50.3a5.2,5.2,0,0,0,5.2,5.2H50.3a5.2,5.2,0,0,0,5.2-5.2V5.2A5.2,5.2,0,0,0,50.3,0Zm1.734,33.976-7.44-7.44a1.734,1.734,0,0,0-2.445,0l-9.192,9.175L22.044,24.8a1.734,1.734,0,0,0-2.445,0L3.469,40.914V5.2A1.734,1.734,0,0,1,5.2,3.469H50.3A1.734,1.734,0,0,1,52.031,5.2Z" fill="#fff"/>
          <path id="Path_763" data-name="Path 763" d="M230.938,80a6.938,6.938,0,1,0,6.938,6.938A6.938,6.938,0,0,0,230.938,80Zm0,10.406a3.469,3.469,0,1,1,3.469-3.469A3.469,3.469,0,0,1,230.938,90.406Z" transform="translate(-199.719 -71.328)" fill="#fff"/>
        </g>
      </g>
    </g>
  </g>
</svg>
