<svg xmlns="http://www.w3.org/2000/svg" width="32.258" height="32.258" viewBox="0 0 32.258 32.258">
  <path id="smile_1_" data-name="smile (1)" d="M15.879,31.758A15.879,15.879,0,0,1,4.651,4.651,15.879,15.879,0,0,1,27.107,27.107a15.775,15.775,0,0,1-11.228,4.651Zm0-29.277a13.4,13.4,0,1,0,13.4,13.4A13.413,13.413,0,0,0,15.879,2.481ZM21.693,18.62A1.24,1.24,0,0,0,19.981,19a5.46,5.46,0,0,1-4.164,2.4A5.46,5.46,0,0,1,11.653,19,1.241,1.241,0,0,0,9.56,20.332a7.976,7.976,0,0,0,6.257,3.552,7.976,7.976,0,0,0,6.257-3.552A1.24,1.24,0,0,0,21.693,18.62ZM10.421,10.234A1.551,1.551,0,1,1,8.87,11.785,1.551,1.551,0,0,1,10.421,10.234Zm9.3,1.551a1.551,1.551,0,1,0,1.551-1.551A1.551,1.551,0,0,0,19.725,11.785Z" transform="translate(0.25 0.25)" fill="#b9b9b9" stroke="#fff" stroke-width="0.5"/>
</svg>
