<svg xmlns="http://www.w3.org/2000/svg" width="19.751" height="29.153" viewBox="0 0 19.751 29.153">
  <g id="Group_1302" data-name="Group 1302" transform="translate(0)">
    <g id="next_1_" data-name="next (1)" transform="translate(0 0)">
      <g id="Group_298" data-name="Group 298" transform="translate(0 0)">
        <path id="Path_546" data-name="Path 546" d="M.765,15.868,14.69,2.223h3.443L3.527,16.789,18.133,31.355c-1.912,0-3.265.048-3.444,0L.765,17.711a1.3,1.3,0,0,1,0-1.843Z" transform="translate(-0.382 -2.223)" fill="#878787"/>
      </g>
    </g>
    <g id="next_1_2" data-name="next (1)" transform="translate(2 0)">
      <g id="Group_298-2" data-name="Group 298" transform="translate(0 0)">
        <path id="Path_546-2" data-name="Path 546" d="M.765,15.868,14.69,2.223h3.443L3.527,16.789,18.133,31.355c-1.912,0-3.265.048-3.444,0L.765,17.711a1.3,1.3,0,0,1,0-1.843Z" transform="translate(-0.382 -2.223)" fill="#fff"/>
      </g>
    </g>
  </g>
</svg>
