<svg xmlns="http://www.w3.org/2000/svg" width="19.751" height="29.153" viewBox="0 0 19.751 29.153">
  <g id="Group_1301" data-name="Group 1301" transform="translate(-951.103 -422.877)">
    <g id="next_1_" data-name="next (1)" transform="translate(952.721 420.654)">
      <g id="Group_298" data-name="Group 298" transform="translate(0 0)">
        <path id="Path_546" data-name="Path 546" d="M17.751,15.868,3.826,2.223H.383L14.989,16.789.382,31.355c1.913,0,3.265.048,3.444,0L17.751,17.711a1.3,1.3,0,0,0,0-1.843Z" fill="#878787"/>
      </g>
    </g>
    <g id="next_1_2" data-name="next (1)" transform="translate(950.721 420.654)">
      <g id="Group_298-2" data-name="Group 298" transform="translate(0 0)">
        <path id="Path_546-2" data-name="Path 546" d="M17.751,15.868,3.826,2.223H.383L14.989,16.789.382,31.355c1.913,0,3.265.048,3.444,0L17.751,17.711a1.3,1.3,0,0,0,0-1.843Z" fill="#fff"/>
      </g>
    </g>
  </g>
</svg>
