<svg xmlns="http://www.w3.org/2000/svg" width="25.737" height="76.174" viewBox="0 0 25.737 76.174">
  <g id="Group_1002" data-name="Group 1002" transform="translate(-28.985 6704)">
    <g id="star" transform="translate(30 -6703.004)">
      <g id="Group_36" data-name="Group 36">
        <path id="Path_163" data-name="Path 163" d="M23.676,27.886a.709.709,0,0,0-.561-.5l-7.35-1.14-3.287-7.11a.676.676,0,0,0-1.246,0l-3.287,7.11-7.35,1.14a.709.709,0,0,0-.561.5.777.777,0,0,0,.176.76L5.528,34.18,4.273,42a.766.766,0,0,0,.276.725.657.657,0,0,0,.731.057l6.574-3.69,6.574,3.69a.658.658,0,0,0,.732-.056A.766.766,0,0,0,19.437,42l-1.256-7.815L23.5,28.646A.776.776,0,0,0,23.676,27.886Z" transform="translate(0 -18.718)" fill="none" stroke="#fff" stroke-width="2"/>
      </g>
    </g>
    <g id="star-2" data-name="star" transform="translate(30 -6653.004)">
      <g id="Group_36-2" data-name="Group 36">
        <path id="Path_163-2" data-name="Path 163" d="M23.676,27.886a.709.709,0,0,0-.561-.5l-7.35-1.14-3.287-7.11a.676.676,0,0,0-1.246,0l-3.287,7.11-7.35,1.14a.709.709,0,0,0-.561.5.777.777,0,0,0,.176.76L5.528,34.18,4.273,42a.766.766,0,0,0,.276.725.657.657,0,0,0,.731.057l6.574-3.69,6.574,3.69a.658.658,0,0,0,.732-.056A.766.766,0,0,0,19.437,42l-1.256-7.815L23.5,28.646A.776.776,0,0,0,23.676,27.886Z" transform="translate(0 -18.718)" fill="none" stroke="#fff" stroke-width="2"/>
      </g>
    </g>
    <g id="tick_2_" data-name="tick (2)" transform="translate(36.042 -6717.742)">
      <g id="Group_455" data-name="Group 455" transform="translate(0 67.997)">
        <path id="Path_624" data-name="Path 624" d="M17.716,68.261a.9.9,0,0,0-1.271,0L5.674,79.032l-4.14-4.14A.9.9,0,0,0,.263,76.163l4.776,4.776a.9.9,0,0,0,1.271,0L17.716,69.532A.9.9,0,0,0,17.716,68.261Z" transform="translate(0 -67.997)" fill="#f9f9f9" stroke="#fff" stroke-width="0.5"/>
      </g>
    </g>
  </g>
</svg>
