<svg xmlns="http://www.w3.org/2000/svg" width="800" height="600" viewBox="0 0 800 600">
  <g id="Group_979" data-name="Group 979" transform="translate(-7080 5832)">
    <path id="Path_436" data-name="Path 436" d="M12.933,0A12.933,12.933,0,1,0,25.865,12.933,12.933,12.933,0,0,0,12.933,0Zm0,25.031a12.1,12.1,0,1,1,12.1-12.1,12.1,12.1,0,0,1-12.1,12.1Z" transform="translate(7085 -5821.865)"/>
    <path id="Path_437" data-name="Path 437" d="M125.565,156.216l-8.466,8.466-4.294-4.294a.417.417,0,1,0-.59.59l4.589,4.589a.417.417,0,0,0,.59,0l8.761-8.761a.417.417,0,0,0-.59-.59Z" transform="translate(6978.747 -5969.823)"/>
    <g id="icons" transform="translate(7080 -5832)" fill="#fff" stroke="#707070" stroke-width="1" opacity="0">
      <rect width="800" height="600" stroke="none"/>
      <rect x="0.5" y="0.5" width="799" height="599" fill="none"/>
    </g>
    <path id="Path_324" data-name="Path 324" d="M11.771.5C9.748-.666,8.107.285,8.107,2.617v17.21c0,2.334,1.641,3.284,3.664,2.124l15.042-8.627c2.024-1.161,2.024-3.042,0-4.2Z" transform="translate(7723.385 -5586.46)" fill="#fff"/>
    <path id="Path_191" data-name="Path 191" d="M7.1,65.521c3.432,2.906,9.453,8.019,11.222,9.613a1.045,1.045,0,0,0,1.512,0c1.771-1.6,7.792-6.709,11.224-9.615a.521.521,0,0,0,.073-.719A2.069,2.069,0,0,0,29.5,64H8.66a2.068,2.068,0,0,0-1.635.8.52.52,0,0,0,.075.721Z" transform="translate(7522.016 -5645.49)" fill="#fff"/>
    <path id="Path_192" data-name="Path 192" d="M24.7,126.46a.518.518,0,0,0-.555.075c-3.805,3.226-8.662,7.361-10.19,8.738a2.109,2.109,0,0,1-2.908,0c-1.629-1.468-7.083-6.1-10.189-8.737a.521.521,0,0,0-.858.4v13.1a2.086,2.086,0,0,0,2.084,2.084H22.919A2.086,2.086,0,0,0,25,140.032v-13.1A.521.521,0,0,0,24.7,126.46Z" transform="translate(7528.592 -5704.854)" fill="#fff"/>
    <path id="Path_193" data-name="Path 193" d="M23,16.411a14.2,14.2,0,0,1-4.458-.71,2.038,2.038,0,0,0-1.982.418l-2.811,2.122A15.536,15.536,0,0,1,6.76,11.257L8.82,8.519a2.021,2.021,0,0,0,.5-2.048A14.217,14.217,0,0,1,8.6,2.006,2.008,2.008,0,0,0,6.6,0H2.006A2.009,2.009,0,0,0,0,2.006,23.022,23.022,0,0,0,23,25a2.009,2.009,0,0,0,2-2V18.417A2.009,2.009,0,0,0,23,16.411Z" transform="translate(7596.183 -5585.117)" fill="#fff"/>
    <path id="home_3_" data-name="home (3)" d="M25.3,11.31h0L14.694.7a2.394,2.394,0,0,0-3.386,0L.706,11.3.7,11.314a2.393,2.393,0,0,0,1.593,4.079h.5V23.2A2.8,2.8,0,0,0,5.59,26H9.74a.762.762,0,0,0,.762-.762v-6.12A1.28,1.28,0,0,1,11.78,17.84h2.448A1.28,1.28,0,0,1,15.5,19.122v6.12a.762.762,0,0,0,.762.762h4.15a2.8,2.8,0,0,0,2.8-2.8V15.4H23.6a2.394,2.394,0,0,0,1.7-4.09Zm0,0" transform="translate(7460 -5585.116)" fill="#fff"/>
    <path id="Path_194" data-name="Path 194" d="M42.053,15.123a1.163,1.163,0,0,1-1.163,1.163H38.563A1.163,1.163,0,0,1,37.4,15.123h0a1.163,1.163,0,0,1,1.163-1.163H40.89a1.163,1.163,0,0,1,1.163,1.163Zm0-7.445A1.163,1.163,0,0,0,40.89,6.515H38.563A1.163,1.163,0,0,0,37.4,7.678h0a1.163,1.163,0,0,0,1.163,1.163H40.89a1.163,1.163,0,0,0,1.163-1.163Zm0,14.89A1.163,1.163,0,0,0,40.89,21.4H38.563A1.163,1.163,0,0,0,37.4,22.568h0a1.163,1.163,0,0,0,1.163,1.163H40.89a1.163,1.163,0,0,0,1.163-1.163ZM62.528,3.723v22.8a3.723,3.723,0,0,1-3.722,3.723H42.519A3.723,3.723,0,0,1,38.8,26.524V24.662h2.09a2.094,2.094,0,1,0,0-4.188H38.8V17.217h2.09a2.094,2.094,0,1,0,0-4.188H38.8V9.772h2.09a2.094,2.094,0,1,0,0-4.188H38.8V3.723A3.723,3.723,0,0,1,42.519,0H58.8a3.723,3.723,0,0,1,3.728,3.723ZM47.77,11.035a3.59,3.59,0,1,0,3.59-3.59,3.59,3.59,0,0,0-3.59,3.59Zm9.173,8.775a3.989,3.989,0,0,0-3.988-3.988h-3.19a3.989,3.989,0,0,0-3.989,3.988v1.6H56.944Z" transform="translate(7626.375 -5590.36)" fill="#fff"/>
    <path id="Path_189" data-name="Path 189" d="M0,40.728V52.221H11.493V40.728H3.831a7.671,7.671,0,0,1,7.662-7.662V29.235A11.506,11.506,0,0,0,0,40.728Z" transform="translate(7794.305 -5615.695)"/>
    <path id="Path_190" data-name="Path 190" d="M245.375,33.066V29.235a11.506,11.506,0,0,0-11.493,11.493V52.221h11.493V40.728h-7.662a7.671,7.671,0,0,1,7.662-7.662Z" transform="translate(7575.748 -5615.695)"/>
    <path id="Path_164" data-name="Path 164" d="M15.251,135.31h0L12.1,132.176a.6.6,0,1,0-.85.854l2.114,2.1H.6a.6.6,0,0,0,0,1.205H13.365l-2.114,2.1a.6.6,0,1,0,.85.854l3.149-3.134h0a.6.6,0,0,0,0-.845Z" transform="translate(7104.286 -5704.5)" fill="#fff"/>
    <path id="Path_188" data-name="Path 188" d="M141.181,20.076,120.675.481a1.773,1.773,0,0,0-2.43,0,1.6,1.6,0,0,0,0,2.329l19.286,18.429L118.247,39.671a1.6,1.6,0,0,0,0,2.328,1.772,1.772,0,0,0,2.431,0l20.506-19.6a1.6,1.6,0,0,0,0-2.332Z" transform="translate(7130.312 -5596.479)"/>
    <path id="Path_188-2" data-name="Path 188" d="M118.226,20.076l19.65-19.6A1.648,1.648,0,1,1,140.2,2.813L121.72,21.242,140.2,39.671A1.647,1.647,0,0,1,137.876,42l-19.65-19.6a1.646,1.646,0,0,1,0-2.332Z" transform="translate(7061.258 -5596.488)"/>
    <path id="Path_196" data-name="Path 196" d="M11.632,0A11.631,11.631,0,1,0,23.264,11.632,11.631,11.631,0,0,0,11.632,0Zm0,3.478A3.847,3.847,0,1,1,7.785,7.325a3.847,3.847,0,0,1,3.847-3.847Zm0,16.744a8.537,8.537,0,0,1-5.559-2.05A1.639,1.639,0,0,1,5.5,16.927a3.88,3.88,0,0,1,3.9-3.879h4.477a3.874,3.874,0,0,1,3.893,3.879,1.635,1.635,0,0,1-.575,1.246,8.534,8.534,0,0,1-5.566,2.05Z" transform="translate(7102 -5512.001)"/>
    <path id="Path_197" data-name="Path 197" d="M12.18,64.183a.745.745,0,0,0-.545-.23H.776a.745.745,0,0,0-.545.23.761.761,0,0,0,0,1.091L5.66,70.7a.761.761,0,0,0,1.091,0l5.43-5.43a.761.761,0,0,0,0-1.091Z" transform="translate(7152.589 -5566.953)"/>
    <path id="Path_228" data-name="Path 228" d="M6.57,12.883a.581.581,0,0,1-.823,0L2.463,9.6a.872.872,0,0,1,0-1.234l.411-.411a.872.872,0,0,1,1.234,0L6.159,10,11.7,4.462a.872.872,0,0,1,1.234,0l.411.411a.872.872,0,0,1,0,1.234Z" transform="translate(7184.793 -5508.206)" fill="#009714"/>
    <path id="Path_393" data-name="Path 393" d="M37.154,15.4a.746.746,0,0,0-1.055,0l-6.7,6.7-3.085-3.085a.746.746,0,1,0-1.055,1.055l3.613,3.613a.746.746,0,0,0,1.055,0l7.224-7.226a.746.746,0,0,0,0-1.057Z" transform="translate(7215.448 -5522.213)" fill="#888"/>
    <path id="Path_394" data-name="Path 394" d="M12.991,11.415a.746.746,0,0,0-.746.746V17.69H1.492V6.937h8.514a.746.746,0,1,0,0-1.492H.746A.746.746,0,0,0,0,6.191V18.436a.746.746,0,0,0,.746.746H12.991a.746.746,0,0,0,.746-.746V12.161A.746.746,0,0,0,12.991,11.415Z" transform="translate(7238 -5513.445)" fill="#888"/>
    <path id="Path_395" data-name="Path 395" d="M5.35,0H1.012A1.013,1.013,0,0,0,0,1.012v2.6A1.013,1.013,0,0,0,1.012,4.627H5.35A1.013,1.013,0,0,0,6.363,3.615v-2.6A1.013,1.013,0,0,0,5.35,0Zm0,0" transform="translate(7268 -5508.145)" fill="#888"/>
    <path id="Path_396" data-name="Path 396" d="M5.35,213.332H1.012A1.013,1.013,0,0,0,0,214.344v6.073a1.013,1.013,0,0,0,1.012,1.012H5.35a1.013,1.013,0,0,0,1.012-1.012v-6.073A1.013,1.013,0,0,0,5.35,213.332Zm0,0" transform="translate(7268 -5715.692)" fill="#888"/>
    <path id="Path_397" data-name="Path 397" d="M282.682,341.332h-4.338a1.013,1.013,0,0,0-1.012,1.012v2.6a1.013,1.013,0,0,0,1.012,1.012h4.338a1.013,1.013,0,0,0,1.012-1.012v-2.6a1.013,1.013,0,0,0-1.012-1.012Zm0,0" transform="translate(6998.187 -5840.222)" fill="#888"/>
    <path id="Path_398" data-name="Path 398" d="M282.682,0h-4.338a1.013,1.013,0,0,0-1.012,1.012V7.085A1.013,1.013,0,0,0,278.344,8.1h4.338a1.013,1.013,0,0,0,1.012-1.012V1.012A1.013,1.013,0,0,0,282.682,0Zm0,0" transform="translate(6998.187 -5508.145)" fill="#888"/>
    <path id="Path_399" data-name="Path 399" d="M183.044,8.591a4.3,4.3,0,1,0-4.3-4.3A4.3,4.3,0,0,0,183.044,8.591Zm-.509-6.82V1.654a.509.509,0,1,1,1.017,0v.117a1.345,1.345,0,0,1,1.061,1.313.509.509,0,1,1-1.017,0,.326.326,0,0,0-.326-.326h-.456a.325.325,0,0,0-.194.587l.423.313,1.028.761a1.348,1.348,0,0,1,.544,1.07h0a1.344,1.344,0,0,1-1.064,1.323v.119a.509.509,0,1,1-1.017,0V6.82a1.343,1.343,0,0,1-1.06-1.3.509.509,0,0,1,.507-.52h0a.509.509,0,0,1,.509.506.325.325,0,0,0,.327.324h.455a.325.325,0,0,0,.328-.33h0a.327.327,0,0,0-.132-.259l-.423-.313-1.029-.761a1.343,1.343,0,0,1,.52-2.393Z" transform="translate(7123.192 -5510)" fill="#888"/>
    <path id="Path_400" data-name="Path 400" d="M6.826,318.638a.474.474,0,0,0-.647-.173l-2.393,1.381a.475.475,0,0,0-.173.648l2.446,4.236a.474.474,0,0,0,.647.173L9.1,323.521a.474.474,0,0,0,.173-.647Z" transform="translate(7292.451 -5817.604)" fill="#888"/>
    <path id="Path_401" data-name="Path 401" d="M148.755,272.917a.713.713,0,0,0-1-.162l-2.978,2.146a1.8,1.8,0,0,1-.214.157,1.846,1.846,0,0,1-.987.283h-2.437a.509.509,0,0,1,0-1.017h2.606a.674.674,0,0,0,.674-.7.685.685,0,0,0-.69-.646H141.75a3.3,3.3,0,0,0-.439-.389,3.254,3.254,0,0,0-1.938-.636,3.589,3.589,0,0,0-3.1,1.9l2.081,3.6h3.9a4.381,4.381,0,0,0,2.186-.578,8.754,8.754,0,0,0,.744-.483c1.12-.8,3.409-2.476,3.411-2.477a.713.713,0,0,0,.165-1Z" transform="translate(7164.232 -5772.729)" fill="#888"/>
    <path id="Path_393-2" data-name="Path 393" d="M37.154,15.4a.746.746,0,0,0-1.055,0l-6.7,6.7-3.085-3.085a.746.746,0,1,0-1.055,1.055l3.613,3.613a.746.746,0,0,0,1.055,0l7.224-7.226a.746.746,0,0,0,0-1.057Z" transform="translate(7215.448 -5490.213)" fill="#fff"/>
    <path id="Path_394-2" data-name="Path 394" d="M12.991,11.415a.746.746,0,0,0-.746.746V17.69H1.492V6.937h8.514a.746.746,0,1,0,0-1.492H.746A.746.746,0,0,0,0,6.191V18.436a.746.746,0,0,0,.746.746H12.991a.746.746,0,0,0,.746-.746V12.161A.746.746,0,0,0,12.991,11.415Z" transform="translate(7238 -5481.445)" fill="#fff"/>
    <path id="Path_395-2" data-name="Path 395" d="M5.35,0H1.012A1.013,1.013,0,0,0,0,1.012v2.6A1.013,1.013,0,0,0,1.012,4.627H5.35A1.013,1.013,0,0,0,6.363,3.615v-2.6A1.013,1.013,0,0,0,5.35,0Zm0,0" transform="translate(7268 -5476.145)" fill="#fff"/>
    <path id="Path_396-2" data-name="Path 396" d="M5.35,213.332H1.012A1.013,1.013,0,0,0,0,214.344v6.073a1.013,1.013,0,0,0,1.012,1.012H5.35a1.013,1.013,0,0,0,1.012-1.012v-6.073A1.013,1.013,0,0,0,5.35,213.332Zm0,0" transform="translate(7268 -5683.692)" fill="#fff"/>
    <path id="Path_397-2" data-name="Path 397" d="M282.682,341.332h-4.338a1.013,1.013,0,0,0-1.012,1.012v2.6a1.013,1.013,0,0,0,1.012,1.012h4.338a1.013,1.013,0,0,0,1.012-1.012v-2.6a1.013,1.013,0,0,0-1.012-1.012Zm0,0" transform="translate(6998.187 -5808.222)" fill="#fff"/>
    <path id="Path_398-2" data-name="Path 398" d="M282.682,0h-4.338a1.013,1.013,0,0,0-1.012,1.012V7.085A1.013,1.013,0,0,0,278.344,8.1h4.338a1.013,1.013,0,0,0,1.012-1.012V1.012A1.013,1.013,0,0,0,282.682,0Zm0,0" transform="translate(6998.187 -5476.145)" fill="#fff"/>
    <path id="Path_399-2" data-name="Path 399" d="M183.044,8.591a4.3,4.3,0,1,0-4.3-4.3A4.3,4.3,0,0,0,183.044,8.591Zm-.509-6.82V1.654a.509.509,0,1,1,1.017,0v.117a1.345,1.345,0,0,1,1.061,1.313.509.509,0,1,1-1.017,0,.326.326,0,0,0-.326-.326h-.456a.325.325,0,0,0-.194.587l.423.313,1.028.761a1.348,1.348,0,0,1,.544,1.07h0a1.344,1.344,0,0,1-1.064,1.323v.119a.509.509,0,1,1-1.017,0V6.82a1.343,1.343,0,0,1-1.06-1.3.509.509,0,0,1,.507-.52h0a.509.509,0,0,1,.509.506.325.325,0,0,0,.327.324h.455a.325.325,0,0,0,.328-.33h0a.327.327,0,0,0-.132-.259l-.423-.313-1.029-.761a1.343,1.343,0,0,1,.52-2.393Z" transform="translate(7123.192 -5478)" fill="#fff"/>
    <path id="Path_400-2" data-name="Path 400" d="M6.826,318.638a.474.474,0,0,0-.647-.173l-2.393,1.381a.475.475,0,0,0-.173.648l2.446,4.236a.474.474,0,0,0,.647.173L9.1,323.521a.474.474,0,0,0,.173-.647Z" transform="translate(7292.451 -5785.604)" fill="#fff"/>
    <path id="Path_401-2" data-name="Path 401" d="M148.755,272.917a.713.713,0,0,0-1-.162l-2.978,2.146a1.8,1.8,0,0,1-.214.157,1.846,1.846,0,0,1-.987.283h-2.437a.509.509,0,0,1,0-1.017h2.606a.674.674,0,0,0,.674-.7.685.685,0,0,0-.69-.646H141.75a3.3,3.3,0,0,0-.439-.389,3.254,3.254,0,0,0-1.938-.636,3.589,3.589,0,0,0-3.1,1.9l2.081,3.6h3.9a4.381,4.381,0,0,0,2.186-.578,8.754,8.754,0,0,0,.744-.483c1.12-.8,3.409-2.476,3.411-2.477a.713.713,0,0,0,.165-1Z" transform="translate(7164.232 -5740.729)" fill="#fff"/>
    <path id="Path_228-2" data-name="Path 228" d="M6.57,12.883a.581.581,0,0,1-.823,0L2.463,9.6a.872.872,0,0,1,0-1.234l.411-.411a.872.872,0,0,1,1.234,0L6.159,10,11.7,4.462a.872.872,0,0,1,1.234,0l.411.411a.872.872,0,0,1,0,1.234Z" transform="translate(7184.793 -5478.206)" fill="#888"/>
    <path id="checked" d="M0,70.029l4.7,4.71,9.027-9.018-1.3-1.278L4.7,72.165,1.278,68.742Z" transform="translate(7155.28 -5538.428)" fill="#fff3f3"/>
    <path id="Path_260" data-name="Path 260" d="M9.142,98.725c-3.494,0-6.662,2.1-9,5.522a.862.862,0,0,0,0,.951c2.338,3.422,5.506,5.526,9,5.526s6.662-2.1,9-5.522a.862.862,0,0,0,0-.951C15.8,100.829,12.636,98.725,9.142,98.725Zm.251,10.225a4.252,4.252,0,0,1-.5-8.45,4.252,4.252,0,0,1,.5,8.45ZM9.277,107a2.29,2.29,0,0,1-.266-4.55A2.29,2.29,0,0,1,9.277,107Z" transform="translate(7360 -5606.725)" fill="#fff"/>
    <circle id="Ellipse_46" data-name="Ellipse 46" cx="7" cy="7" r="7" transform="translate(7329 -5509)" fill="#fff"/>
    <path id="checked-2" data-name="checked" d="M0,68.1l3.211,3.084,6.166-5.9-.885-.837L3.211,69.5.873,67.258Z" transform="translate(7331.329 -5569.314)" fill="#ec3d3d"/>
    <path id="Path_257" data-name="Path 257" d="M7.743,13.993H20.384a.7.7,0,0,0,.672-.508l2.8-9.8a.7.7,0,0,0-.673-.892H6.128L5.627.548A.7.7,0,0,0,4.944,0H.7a.7.7,0,1,0,0,1.4H4.383L6.909,12.769a2.1,2.1,0,0,0,.834,4.023H20.384a.7.7,0,1,0,0-1.4H7.743a.7.7,0,1,1,0-1.4Zm0,0" transform="translate(7298 -5586)"/>
    <path id="Path_258" data-name="Path 258" d="M151,362.1a2.1,2.1,0,1,0,2.1-2.1A2.1,2.1,0,0,0,151,362.1Zm0,0" transform="translate(7154.043 -5929.212)"/>
    <path id="Path_259" data-name="Path 259" d="M362,362.1a2.1,2.1,0,1,0,2.1-2.1A2.1,2.1,0,0,0,362,362.1Zm0,0" transform="translate(6952.881 -5929.212)"/>
    <g id="Ellipse_73" data-name="Ellipse 73" transform="translate(7329 -5476)" fill="#fff" stroke="#000" stroke-width="1">
      <circle cx="7" cy="7" r="7" stroke="none"/>
      <circle cx="7" cy="7" r="6.5" fill="none"/>
    </g>
    <path id="checked-3" data-name="checked" d="M0,68.1l3.211,3.084,6.166-5.9-.885-.837L3.211,69.5.873,67.258Z" transform="translate(7331.329 -5536.314)"/>
    <path id="Path_530" data-name="Path 530" d="M16.891,19.834V18.223A3.223,3.223,0,0,0,13.669,15H7.223A3.223,3.223,0,0,0,4,18.223v1.611" transform="translate(7431.186 -5514.834)" fill="none" stroke="#fff" stroke-linecap="round" stroke-linejoin="round" stroke-width="1.5"/>
    <circle id="Ellipse_52" data-name="Ellipse 52" cx="3.5" cy="3.5" r="3.5" transform="translate(7438.186 -5510)" fill="none" stroke="#fff" stroke-linecap="round" stroke-linejoin="round" stroke-width="1.5"/>
    <rect id="Rectangle_442" data-name="Rectangle 442" width="15" height="11" rx="2" transform="translate(7404 -5509)" fill="none" stroke="#fff" stroke-linecap="round" stroke-linejoin="round" stroke-width="1.3"/>
    <line id="Line_150" data-name="Line 150" x2="6" transform="translate(7409 -5495)" fill="none" stroke="#fff" stroke-linecap="round" stroke-linejoin="round" stroke-width="1.3"/>
    <line id="Line_151" data-name="Line 151" y2="3" transform="translate(7412 -5498)" fill="none" stroke="#fff" stroke-linecap="round" stroke-linejoin="round" stroke-width="1.3"/>
    <path id="shield" d="M10,17s6-3,6-7.5V4.25L10,2,4,4.25V9.5C4,14,10,17,10,17Z" transform="translate(7461.632 -5513.5)" fill="none" stroke="#fff" stroke-linecap="round" stroke-linejoin="round" stroke-width="1.5"/>
    <path id="Path_531" data-name="Path 531" d="M8.444,19.332H4.815A1.815,1.815,0,0,1,3,17.517V4.815A1.815,1.815,0,0,1,4.815,3H8.444" transform="translate(7492.186 -5514.332)" fill="none" stroke="#fff" stroke-linecap="round" stroke-linejoin="round" stroke-width="1.3"/>
    <path id="Path_532" data-name="Path 532" d="M16,16.073l4.537-4.537L16,7" transform="translate(7490.98 -5514.703)" fill="none" stroke="#fff" stroke-linecap="round" stroke-linejoin="round" stroke-width="1.3"/>
    <line id="Line_152" data-name="Line 152" x1="11" transform="translate(7500.186 -5503)" fill="none" stroke="#fff" stroke-linecap="round" stroke-linejoin="round" stroke-width="1.3"/>
    <path id="Path_196-2" data-name="Path 196" d="M11.632,0A11.631,11.631,0,1,0,23.264,11.632,11.631,11.631,0,0,0,11.632,0Zm0,3.478A3.847,3.847,0,1,1,7.785,7.325a3.847,3.847,0,0,1,3.847-3.847Zm0,16.744a8.537,8.537,0,0,1-5.559-2.05A1.639,1.639,0,0,1,5.5,16.927a3.88,3.88,0,0,1,3.9-3.879h4.477a3.874,3.874,0,0,1,3.893,3.879,1.635,1.635,0,0,1-.575,1.246,8.534,8.534,0,0,1-5.566,2.05Z" transform="translate(7102 -5482.001)" fill="#fff"/>
    <path id="Path_197-2" data-name="Path 197" d="M12.18,64.183a.745.745,0,0,0-.545-.23H.776a.745.745,0,0,0-.545.23.761.761,0,0,0,0,1.091L5.66,70.7a.761.761,0,0,0,1.091,0l5.43-5.43a.761.761,0,0,0,0-1.091Z" transform="translate(7152.589 -5554.953)" fill="#fff"/>
    <path id="Path_625" data-name="Path 625" d="M10.5,15.962a14.324,14.324,0,0,1,5.885,1.212A7.292,7.292,0,0,0,18,12.5a7.5,7.5,0,1,0-15,0,7.632,7.632,0,0,0,1.615,4.673A14.324,14.324,0,0,1,10.5,15.962Z" transform="translate(7401 -5482)" fill="none" stroke="#fff" stroke-linecap="round" stroke-linejoin="round" stroke-miterlimit="10" stroke-width="1.5"/>
    <line id="Line_431" data-name="Line 431" y2="1.154" transform="translate(7411.5 -5475.27)" fill="none" stroke="#fff" stroke-linecap="round" stroke-linejoin="round" stroke-miterlimit="10" stroke-width="1.5"/>
    <line id="Line_432" data-name="Line 432" x2="0.808" y2="0.808" transform="translate(7407.404 -5473.596)" fill="none" stroke="#fff" stroke-linecap="round" stroke-linejoin="round" stroke-miterlimit="10" stroke-width="1.5"/>
    <line id="Line_433" data-name="Line 433" x2="1.154" transform="translate(7405.73 -5469.5)" fill="none" stroke="#fff" stroke-linecap="round" stroke-linejoin="round" stroke-miterlimit="10" stroke-width="1.5"/>
    <line id="Line_434" data-name="Line 434" x1="1.154" transform="translate(7416.115 -5469.5)" fill="none" stroke="#fff" stroke-linecap="round" stroke-linejoin="round" stroke-miterlimit="10" stroke-width="1.5"/>
    <line id="Line_435" data-name="Line 435" x1="0.808" y2="0.808" transform="translate(7414.787 -5473.596)" fill="none" stroke="#fff" stroke-linecap="round" stroke-linejoin="round" stroke-miterlimit="10" stroke-width="1.5"/>
    <line id="Line_436" data-name="Line 436" y1="4.615" x2="2.308" transform="translate(7411.5 -5470.654)" fill="none" stroke="#fff" stroke-linecap="round" stroke-linejoin="round" stroke-miterlimit="10" stroke-width="1.5"/>
    <path id="Path_556" data-name="Path 556" d="M23,7l-7,6,7,6Z" transform="translate(7588 -5517)" fill="none" stroke="#fff" stroke-linecap="round" stroke-linejoin="round" stroke-width="2"/>
    <rect id="Rectangle_553" data-name="Rectangle 553" width="15" height="16" rx="2" transform="translate(7589 -5512)" fill="none" stroke="#fff" stroke-linecap="round" stroke-linejoin="round" stroke-width="2"/>
    <rect id="Rectangle_554" data-name="Rectangle 554" width="18" height="20" rx="2" transform="translate(7553 -5514)" fill="none" stroke="#fff" stroke-linecap="round" stroke-linejoin="round" stroke-width="2"/>
    <circle id="Ellipse_67" data-name="Ellipse 67" cx="1.5" cy="1.5" r="1.5" transform="translate(7557 -5510)" fill="none" stroke="#fff" stroke-linecap="round" stroke-linejoin="round" stroke-width="2"/>
    <path id="Path_557" data-name="Path 557" d="M21,15l-5-5L5,21" transform="translate(7550 -5515)" fill="none" stroke="#fff" stroke-linecap="round" stroke-linejoin="round" stroke-width="2"/>
    <path id="Path_556-2" data-name="Path 556" d="M23,7l-7,6,7,6Z" transform="translate(7588 -5482)" fill="none" stroke="#fff" stroke-linecap="round" stroke-linejoin="round" stroke-width="2"/>
    <rect id="Rectangle_553-2" data-name="Rectangle 553" width="15" height="16" rx="2" transform="translate(7589 -5477)" fill="none" stroke="#fff" stroke-linecap="round" stroke-linejoin="round" stroke-width="2"/>
    <rect id="Rectangle_554-2" data-name="Rectangle 554" width="18" height="20" rx="2" transform="translate(7553 -5479)" fill="none" stroke="#fff" stroke-linecap="round" stroke-linejoin="round" stroke-width="2"/>
    <circle id="Ellipse_67-2" data-name="Ellipse 67" cx="1.5" cy="1.5" r="1.5" transform="translate(7557 -5475)" fill="none" stroke="#fff" stroke-linecap="round" stroke-linejoin="round" stroke-width="2"/>
    <path id="Path_557-2" data-name="Path 557" d="M21,15l-5-5L5,21" transform="translate(7550 -5480)" fill="none" stroke="#fff" stroke-linecap="round" stroke-linejoin="round" stroke-width="2"/>
    <path id="Path_163" data-name="Path 163" d="M23.676,27.886a.709.709,0,0,0-.561-.5l-7.35-1.14-3.287-7.11a.676.676,0,0,0-1.246,0l-3.287,7.11-7.35,1.14a.709.709,0,0,0-.561.5.777.777,0,0,0,.176.76L5.528,34.18,4.273,42a.766.766,0,0,0,.276.725.657.657,0,0,0,.731.057l6.574-3.69,6.574,3.69a.658.658,0,0,0,.732-.056A.766.766,0,0,0,19.437,42l-1.256-7.815L23.5,28.646A.776.776,0,0,0,23.676,27.886Z" transform="translate(7151.312 -5448.718)" fill="none" stroke="#fff" stroke-width="2"/>
    <path id="Path_163-2" data-name="Path 163" d="M23.676,27.886a.709.709,0,0,0-.561-.5l-7.35-1.14-3.287-7.11a.676.676,0,0,0-1.246,0l-3.287,7.11-7.35,1.14a.709.709,0,0,0-.561.5.777.777,0,0,0,.176.76L5.528,34.18,4.273,42a.766.766,0,0,0,.276.725.657.657,0,0,0,.731.057l6.574-3.69,6.574,3.69a.658.658,0,0,0,.732-.056A.766.766,0,0,0,19.437,42l-1.256-7.815L23.5,28.646A.776.776,0,0,0,23.676,27.886Z" transform="translate(7102.312 -5448.718)" fill="#fff" stroke="#fff" stroke-width="2"/>
    <path id="Path_624" data-name="Path 624" d="M17.716,68.261a.9.9,0,0,0-1.271,0L5.674,79.032l-4.14-4.14A.9.9,0,0,0,.263,76.163l4.776,4.776a.9.9,0,0,0,1.271,0L17.716,69.532a.9.9,0,0,0,0-1.271Z" transform="translate(7108.042 -5494.742)" stroke="#000" stroke-width="0.5"/>
    <path id="Path_806" data-name="Path 806" d="M0,55.1l19.652-8.422L0,38.25V44.8l14.037,1.872L0,48.544Z" transform="translate(7130 -5854.172)" fill="#fff"/>
    <g id="Group_975" data-name="Group 975">
      <path id="Path_789" data-name="Path 789" d="M54.388,47.152,28.33,28.073a1.428,1.428,0,0,0-1.687,0L.584,47.152a1.428,1.428,0,1,0,1.688,2.3L27.486,31,52.7,49.457a1.428,1.428,0,0,0,1.688-2.3Z" transform="translate(7084.854 -5791.801)" fill="#0f4c82"/>
      <path id="Path_790" data-name="Path 790" d="M97.874,232.543a1.428,1.428,0,0,0-1.428,1.428v22.735H85.019V244.3a7.142,7.142,0,0,0-14.284,0v12.41H59.309V233.971a1.428,1.428,0,0,0-2.857,0v24.164a1.428,1.428,0,0,0,1.428,1.428H72.163a1.428,1.428,0,0,0,1.423-1.317,1.081,1.081,0,0,0,.006-.111V244.3a4.286,4.286,0,1,1,8.571,0v13.839a1.045,1.045,0,0,0,.006.11,1.428,1.428,0,0,0,1.423,1.318H97.874a1.428,1.428,0,0,0,1.428-1.428V233.971A1.429,1.429,0,0,0,97.874,232.543Z" transform="translate(7034.462 -5974.563)" fill="#0f4c82"/>
    </g>
    <g id="Group_978" data-name="Group 978">
      <path id="Path_791" data-name="Path 791" d="M16.2,55.315l-2.1-.3-1.089-1.362a7.071,7.071,0,0,0-9.159-1.646l-.64.384A4.592,4.592,0,0,0,1,56.308a4.2,4.2,0,0,0,4.2,4.2H20.022v-.793a4.47,4.47,0,0,0-3.819-4.4Zm-11,3.611a2.619,2.619,0,0,1-2.618-2.618A3,3,0,0,1,4.03,53.75l.64-.384a5.485,5.485,0,0,1,7.1,1.278l.472.59-2.479.5L7.591,55l-.5,1.5,2.578.859,4.036-.808,2.276.325a2.881,2.881,0,0,1,2.345,2.042Z" transform="translate(7164 -5775.511)" fill="#0f4c82" stroke="#0f4c82" stroke-width="0.6"/>
      <path id="Path_792" data-name="Path 792" d="M47.5,37.863l-.555-.093a2.385,2.385,0,0,1-1.835-1.511l-1.062-2.833a3.952,3.952,0,0,0-3.22-2.541l-1.661-.208a2.38,2.38,0,0,1-2.083-2.359V22.784l.3.235a6.416,6.416,0,0,0,4.459,1.759h.793V10.511h-.793A4.89,4.89,0,0,1,38.369,9.1a6.533,6.533,0,0,0-8.919,0,4.963,4.963,0,0,1-6.934,0A6.945,6.945,0,0,0,19.5,7.489a3.961,3.961,0,1,0-5.4.624v9.532h-.8a3.967,3.967,0,0,0-3.963,3.963V22.8L5.4,25.753a6.025,6.025,0,0,0-2.4,4.8,5.954,5.954,0,0,0,1.756,4.239l3.1,3.1a3.938,3.938,0,0,0,2.8,1.16h6.515a2.376,2.376,0,0,1,2.307,1.8l.458,1.834a7.549,7.549,0,0,0,2.428,3.927l1.989,1.7a7.6,7.6,0,0,0,8.033,1.175l5.658-2.515h7.205l3.679-2.452A3.66,3.66,0,0,0,47.5,37.863ZM25.981,12.1a6.418,6.418,0,0,0,4.459-1.759,4.968,4.968,0,0,1,6.938,0,6.569,6.569,0,0,0,3.667,1.718v11.08a5.169,5.169,0,0,1-2.676-1.358,6.533,6.533,0,0,0-8.919,0,4.963,4.963,0,0,1-6.934,0,6.564,6.564,0,0,0-3.664-1.718V8.986a5.189,5.189,0,0,1,2.673,1.351,6.407,6.407,0,0,0,4.456,1.76ZM16.474,2.585A2.378,2.378,0,1,1,14.1,4.963a2.378,2.378,0,0,1,2.374-2.378Zm-7.5,34.178-3.1-3.1a4.38,4.38,0,0,1-1.291-3.118,4.431,4.431,0,0,1,1.764-3.528l4.577-3.433V21.607A2.381,2.381,0,0,1,13.3,19.23h.8V37.46H10.654a2.365,2.365,0,0,1-1.682-.7Zm6.709.7V8.846a3.964,3.964,0,0,0,1.585,0V37.467c-.033,0-.064-.008-.1-.008ZM48.047,43.2l-3.28,2.186H37.706l-5.967,2.652a6.1,6.1,0,0,1-6.357-.93l-1.989-1.7A5.983,5.983,0,0,1,21.472,42.3l-.458-1.834a3.946,3.946,0,0,0-2.162-2.615V21.668a5.189,5.189,0,0,1,2.673,1.351,6.528,6.528,0,0,0,8.915,0,4.893,4.893,0,0,1,3.469-1.411,4.766,4.766,0,0,1,1.587.244V28.32a3.968,3.968,0,0,0,3.472,3.932l1.661.208a2.372,2.372,0,0,1,1.932,1.524l1.062,2.833a3.974,3.974,0,0,0,3.059,2.517l.554.093a2.075,2.075,0,0,1,.81,3.773Z" transform="translate(7163.585 -5765.141)" fill="#0f4c82" stroke="#0f4c82" stroke-width="0.6"/>
    </g>
    <g id="Group_976" data-name="Group 976">
      <path id="Path_793" data-name="Path 793" d="M48.322,47.5H43.408V20.475a.819.819,0,0,0-.819-.819H31.122V.819A.819.819,0,0,0,30.3,0H9.009A.819.819,0,0,0,8.19.819V47.5H.819a.819.819,0,0,0,0,1.638h47.5a.819.819,0,0,0,0-1.638ZM17.2,47.5H13.923V40.132a.819.819,0,0,1,.819-.819H16.38a.819.819,0,0,1,.819.819Zm3.276-27.027V47.5H18.837V40.132a2.457,2.457,0,0,0-2.457-2.457H14.742a2.457,2.457,0,0,0-2.457,2.457V47.5H9.828V1.638H29.484V19.656h-8.19a.819.819,0,0,0-.819.819ZM41.77,47.5H22.113V21.294H41.77Z" transform="translate(7239 -5764.141)" fill="#0f4c82" stroke="#0f4c82" stroke-width="0.3"/>
      <path id="Path_794" data-name="Path 794" d="M205.733,112h-4.914a.819.819,0,0,0-.819.819v4.914a.819.819,0,0,0,.819.819h4.914a.819.819,0,0,0,.819-.819v-4.914a.819.819,0,0,0-.819-.819Zm-.819,4.914h-3.276v-3.276h3.276Z" transform="translate(7059.475 -5864.675)" fill="#0f4c82" stroke="#0f4c82" stroke-width="0.3"/>
      <path id="Path_795" data-name="Path 795" d="M205.733,32h-4.914a.819.819,0,0,0-.819.819v4.914a.819.819,0,0,0,.819.819h4.914a.819.819,0,0,0,.819-.819V32.819a.819.819,0,0,0-.819-.819Zm-.819,4.914h-3.276V33.638h3.276Z" transform="translate(7059.475 -5792.864)" fill="#0f4c82" stroke="#0f4c82" stroke-width="0.3"/>
      <path id="Path_796" data-name="Path 796" d="M125.733,112h-4.914a.819.819,0,0,0-.819.819v4.914a.819.819,0,0,0,.819.819h4.914a.819.819,0,0,0,.819-.819v-4.914a.819.819,0,0,0-.819-.819Zm-.819,4.914h-3.276v-3.276h3.276Z" transform="translate(7131.285 -5864.675)" fill="#0f4c82" stroke="#0f4c82" stroke-width="0.3"/>
      <path id="Path_797" data-name="Path 797" d="M125.733,32h-4.914a.819.819,0,0,0-.819.819v4.914a.819.819,0,0,0,.819.819h4.914a.819.819,0,0,0,.819-.819V32.819a.819.819,0,0,0-.819-.819Zm-.819,4.914h-3.276V33.638h3.276Z" transform="translate(7131.285 -5792.864)" fill="#0f4c82" stroke="#0f4c82" stroke-width="0.3"/>
      <path id="Path_798" data-name="Path 798" d="M125.733,192h-4.914a.819.819,0,0,0-.819.819v4.914a.819.819,0,0,0,.819.819h4.914a.819.819,0,0,0,.819-.819v-4.914a.819.819,0,0,0-.819-.819Zm-.819,4.914h-3.276v-3.276h3.276Z" transform="translate(7131.285 -5936.484)" fill="#0f4c82" stroke="#0f4c82" stroke-width="0.3"/>
      <path id="Path_799" data-name="Path 799" d="M125.733,272h-4.914a.819.819,0,0,0-.819.819v4.914a.819.819,0,0,0,.819.819h4.914a.819.819,0,0,0,.819-.819v-4.914a.819.819,0,0,0-.819-.819Zm-.819,4.914h-3.276v-3.276h3.276Z" transform="translate(7131.285 -6008.295)" fill="#0f4c82" stroke="#0f4c82" stroke-width="0.3"/>
      <path id="Path_800" data-name="Path 800" d="M320.819,310.552h4.914a.819.819,0,0,0,.819-.819v-4.914a.819.819,0,0,0-.819-.819h-4.914a.819.819,0,0,0-.819.819v4.914A.819.819,0,0,0,320.819,310.552Zm.819-4.914h3.276v3.276h-3.276Z" transform="translate(6951.76 -6037.019)" fill="#0f4c82" stroke="#0f4c82" stroke-width="0.3"/>
      <path id="Path_801" data-name="Path 801" d="M320.819,230.552h4.914a.819.819,0,0,0,.819-.819v-4.914a.819.819,0,0,0-.819-.819h-4.914a.819.819,0,0,0-.819.819v4.914A.819.819,0,0,0,320.819,230.552Zm.819-4.914h3.276v3.276h-3.276Z" transform="translate(6951.76 -5965.209)" fill="#0f4c82" stroke="#0f4c82" stroke-width="0.3"/>
      <path id="Path_802" data-name="Path 802" d="M320.819,390.552h4.914a.819.819,0,0,0,.819-.819v-4.914a.819.819,0,0,0-.819-.819h-4.914a.819.819,0,0,0-.819.819v4.914a.819.819,0,0,0,.819.819Zm.819-4.914h3.276v3.276h-3.276Z" transform="translate(6951.76 -6108.828)" fill="#0f4c82" stroke="#0f4c82" stroke-width="0.3"/>
      <path id="Path_803" data-name="Path 803" d="M240.819,310.552h4.914a.819.819,0,0,0,.819-.819v-4.914a.819.819,0,0,0-.819-.819h-4.914a.819.819,0,0,0-.819.819v4.914a.819.819,0,0,0,.819.819Zm.819-4.914h3.276v3.276h-3.276Z" transform="translate(7023.57 -6037.019)" fill="#0f4c82" stroke="#0f4c82" stroke-width="0.3"/>
      <path id="Path_804" data-name="Path 804" d="M240.819,230.552h4.914a.819.819,0,0,0,.819-.819v-4.914a.819.819,0,0,0-.819-.819h-4.914a.819.819,0,0,0-.819.819v4.914a.819.819,0,0,0,.819.819Zm.819-4.914h3.276v3.276h-3.276Z" transform="translate(7023.57 -5965.209)" fill="#0f4c82" stroke="#0f4c82" stroke-width="0.3"/>
      <path id="Path_805" data-name="Path 805" d="M240.819,390.552h4.914a.819.819,0,0,0,.819-.819v-4.914a.819.819,0,0,0-.819-.819h-4.914a.819.819,0,0,0-.819.819v4.914a.819.819,0,0,0,.819.819Zm.819-4.914h3.276v3.276h-3.276Z" transform="translate(7023.57 -6108.828)" fill="#0f4c82" stroke="#0f4c82" stroke-width="0.3"/>
    </g>
    <g id="Group_977" data-name="Group 977">
      <path id="Shape" d="M44.1,1.816H31.031A1.633,1.633,0,0,0,29.4,3.449v9.8a1.633,1.633,0,0,0,1.633,1.633h4.083v5.739a4.028,4.028,0,0,0-1.542,2.386l-1.438,6.7-6.583-2.629a10.6,10.6,0,0,0-3.944-.76h-1.7a5.014,5.014,0,0,1-.933-2.414,8.166,8.166,0,0,0,4.7-7.385V5.9a4.724,4.724,0,0,0-4.9-4.9.817.817,0,0,0-.817.817A1.537,1.537,0,0,1,16.326,3.45H14.7A7.359,7.359,0,0,0,7.35,10.8v5.716a8.166,8.166,0,0,0,4.7,7.385,5.018,5.018,0,0,1-.928,2.414h-.653a7.287,7.287,0,0,0-2.892.6L4.944,28.029A8.179,8.179,0,0,0,0,35.542v7.1A7.359,7.359,0,0,0,7.34,50H24.5a1.633,1.633,0,0,0,1.633-1.633V36.1L31.8,38.366a5.716,5.716,0,0,0,7.717-4.107l2.042-9.539a4.033,4.033,0,0,0-1.542-4.109V14.882H44.1a1.633,1.633,0,0,0,1.633-1.633v-9.8A1.633,1.633,0,0,0,44.1,1.816ZM8.983,16.515V10.8A5.723,5.723,0,0,1,14.7,5.082h1.633A3.206,3.206,0,0,0,19.5,2.714,3,3,0,0,1,22.049,5.9V8.647a4.767,4.767,0,0,0-3.266-1.115.817.817,0,1,0,0,1.633,3.144,3.144,0,0,1,3.266,3.266v4.083a6.533,6.533,0,1,1-13.066,0Zm6.533,8.166a8.147,8.147,0,0,0,1.9-.232A6.7,6.7,0,0,0,18.5,27.174a4.7,4.7,0,0,1-2.985.773,4.736,4.736,0,0,1-2.986-.77,6.7,6.7,0,0,0,1.086-2.728,8.148,8.148,0,0,0,1.9.232Zm24.443-.3L37.917,33.92A4.083,4.083,0,0,1,32.4,36.849l-9.277-3.707a.817.817,0,1,0-.606,1.517l1.977.79V48.363h-4.1a4.041,4.041,0,0,0,.838-2.45,4.088,4.088,0,0,0-4.083-4.083H8.166V35.542a.817.817,0,0,0-1.633,0v7.1a.817.817,0,0,0,.817.817h9.8a2.45,2.45,0,1,1,0,4.9H7.35a5.723,5.723,0,0,1-5.716-5.716v-7.1a6.546,6.546,0,0,1,3.953-6.01l2.633-1.12a5.658,5.658,0,0,1,2.25-.465H11c.513.639,1.752,1.633,4.521,1.633s4.008-1,4.521-1.633h1.571a8.974,8.974,0,0,1,3.326.639l7.493,2.994a.817.817,0,0,0,1.1-.587l1.641-7.644a2.419,2.419,0,0,1,1.062-1.54,2.448,2.448,0,0,1,3.725,2.57ZM38.381,19.87a4.073,4.073,0,0,0-1.633,0V14.882h1.633ZM44.1,13.248H31.031v-9.8H44.1Z" transform="translate(7322 -5764.996)" fill="#0f4c82" stroke="#0f4c82" stroke-width="0.3"/>
    </g>
    <path id="Path_787" data-name="Path 787" d="M5.957,4H37.614a3.969,3.969,0,0,1,3.957,3.957V31.7a3.969,3.969,0,0,1-3.957,3.957H5.957A3.969,3.969,0,0,1,2,31.7V7.957A3.969,3.969,0,0,1,5.957,4Z" transform="translate(7321.439 -5683.829)" fill="none" stroke="#333" stroke-linecap="round" stroke-linejoin="round" stroke-width="3"/>
    <path id="Path_788" data-name="Path 788" d="M41.572,6,21.786,19.85,2,6" transform="translate(7321.439 -5681.872)" fill="none" stroke="#333" stroke-linecap="round" stroke-linejoin="round" stroke-width="3"/>
    <path id="Path_784" data-name="Path 784" d="M33.8,27.3V23.2A8.2,8.2,0,0,0,25.6,15H9.2A8.2,8.2,0,0,0,1,23.2v4.1" transform="translate(7244.177 -5675.47)" fill="none" stroke="#333" stroke-linecap="round" stroke-linejoin="round" stroke-width="3"/>
    <circle id="Ellipse_113" data-name="Ellipse 113" cx="7.989" cy="7.989" r="7.989" transform="translate(7253.699 -5685.066)" fill="none" stroke="#333" stroke-linecap="round" stroke-linejoin="round" stroke-width="3"/>
    <path id="Path_785" data-name="Path 785" d="M26.149,27.162v-4.1A8.2,8.2,0,0,0,20,15.13" transform="translate(7264.122 -5675.333)" fill="none" stroke="#333" stroke-linecap="round" stroke-linejoin="round" stroke-width="3"/>
    <path id="Path_786" data-name="Path 786" d="M16,3.13a8.2,8.2,0,0,1,0,15.886" transform="translate(7259.923 -5687.931)" fill="none" stroke="#333" stroke-linecap="round" stroke-linejoin="round" stroke-width="3"/>
    <path id="Path_781" data-name="Path 781" d="M42.381,20.691c0,15.315-19.691,28.442-19.691,28.442S3,36.006,3,20.691a19.691,19.691,0,1,1,39.382,0Z" transform="translate(7090.46 -5686.066)" fill="none" stroke="#333" stroke-linecap="round" stroke-linejoin="round" stroke-width="3"/>
    <circle id="Ellipse_112" data-name="Ellipse 112" cx="6.509" cy="6.509" r="6.509" transform="translate(7106.478 -5672.049)" fill="none" stroke="#333" stroke-linecap="round" stroke-linejoin="round" stroke-width="3"/>
    <path id="Path_782" data-name="Path 782" d="M3,15.882,20.848,2,38.7,15.882V37.7a3.966,3.966,0,0,1-3.966,3.966H6.966A3.966,3.966,0,0,1,3,37.7Z" transform="translate(7167.602 -5687.066)" fill="none" stroke="#333" stroke-linecap="round" stroke-linejoin="round" stroke-width="3"/>
    <path id="Path_783" data-name="Path 783" d="M9,31.831V12H20.9V31.831" transform="translate(7173.501 -5677.235)" fill="none" stroke="#333" stroke-linecap="round" stroke-linejoin="round" stroke-width="3"/>
    <path id="Path_561" data-name="Path 561" d="M90.525,0a5.193,5.193,0,0,0-4.569,7.66l4.285,7.75a.325.325,0,0,0,.568,0L95.1,7.657A5.193,5.193,0,0,0,90.525,0Zm0,7.788a2.6,2.6,0,1,1,2.6-2.6,2.6,2.6,0,0,1-2.6,2.6Z" transform="translate(7020.203 -5382.577)" fill="#fff"/>
    <path id="Path_574" data-name="Path 574" d="M16.517,14.594c0,1.823-3.783,2.653-7.3,2.653s-7.3-.831-7.3-2.653c0-1.4,2.087-2.064,3.837-2.373a.664.664,0,0,1,.23,1.307c-2.111.37-2.707.951-2.742,1.076.1.348,2.092,1.316,5.971,1.316s5.87-.969,5.972-1.337c-.035-.1-.635-.688-2.761-1.058a.664.664,0,1,1,.228-1.307C14.419,12.526,16.517,13.186,16.517,14.594Zm-9.95-3.98H7.23v3.98a.664.664,0,0,0,.664.663h2.653a.665.665,0,0,0,.664-.663v-3.98h.663a.665.665,0,0,0,.664-.664V5.97A1.623,1.623,0,0,0,11.08,4.778a11.67,11.67,0,0,0-1.85-.124,11.868,11.868,0,0,0-1.871.124A1.624,1.624,0,0,0,5.9,5.97V9.95a.665.665,0,0,0,.667.664ZM9.22,3.98A1.99,1.99,0,1,0,7.23,1.99,1.99,1.99,0,0,0,9.22,3.98Z" transform="translate(7129.357 -5383.124)" fill="#fff"/>
    <path id="Path_576" data-name="Path 576" d="M152.806,43.884l7.835-7.835a1.876,1.876,0,1,0-2.653-2.653l-7.835,7.835Z" transform="translate(7017.265 -5414.737)" fill="#fff"/>
    <path id="Path_577" data-name="Path 577" d="M51.86,5.743l.385.385.717-.717-.385-.385,1-1L49.558,0,46.834,2.724l4.023,4.023Z" transform="translate(7117.092 -5383)" fill="#fff"/>
    <path id="Path_578" data-name="Path 578" d="M310.359,260.8l-1,1-.334-.334-.717.717.334.334-1,1,4.191,4.191,2.725-2.724Z" transform="translate(6865.105 -5634.987)" fill="#fff"/>
    <path id="Path_579" data-name="Path 579" d="M7.912,286.122A7.946,7.946,0,0,1,0,278.213H1.018a6.9,6.9,0,0,0,6.9,6.895Z" transform="translate(7162.341 -5651.81)" fill="#fff"/>
    <path id="Path_580" data-name="Path 580" d="M86.408,283.378a5.17,5.17,0,0,1-5.165-5.164h1.014a4.155,4.155,0,0,0,4.151,4.151Z" transform="translate(7083.846 -5651.81)" fill="#fff"/>
    <path id="Path_561-2" data-name="Path 561" d="M90.525,0a5.193,5.193,0,0,0-4.569,7.66l4.285,7.75a.325.325,0,0,0,.568,0L95.1,7.657A5.193,5.193,0,0,0,90.525,0Zm0,7.788a2.6,2.6,0,1,1,2.6-2.6,2.6,2.6,0,0,1-2.6,2.6Z" transform="translate(7020.203 -5351.577)"/>
    <path id="Path_574-2" data-name="Path 574" d="M16.517,14.594c0,1.823-3.783,2.653-7.3,2.653s-7.3-.831-7.3-2.653c0-1.4,2.087-2.064,3.837-2.373a.664.664,0,0,1,.23,1.307c-2.111.37-2.707.951-2.742,1.076.1.348,2.092,1.316,5.971,1.316s5.87-.969,5.972-1.337c-.035-.1-.635-.688-2.761-1.058a.664.664,0,1,1,.228-1.307C14.419,12.526,16.517,13.186,16.517,14.594Zm-9.95-3.98H7.23v3.98a.664.664,0,0,0,.664.663h2.653a.665.665,0,0,0,.664-.663v-3.98h.663a.665.665,0,0,0,.664-.664V5.97A1.623,1.623,0,0,0,11.08,4.778a11.67,11.67,0,0,0-1.85-.124,11.868,11.868,0,0,0-1.871.124A1.624,1.624,0,0,0,5.9,5.97V9.95a.665.665,0,0,0,.667.664ZM9.22,3.98A1.99,1.99,0,1,0,7.23,1.99,1.99,1.99,0,0,0,9.22,3.98Z" transform="translate(7129.357 -5352.124)"/>
    <path id="Path_576-2" data-name="Path 576" d="M152.806,43.884l7.835-7.835a1.876,1.876,0,1,0-2.653-2.653l-7.835,7.835Z" transform="translate(7017.265 -5383.737)"/>
    <path id="Path_577-2" data-name="Path 577" d="M51.86,5.743l.385.385.717-.717-.385-.385,1-1L49.558,0,46.834,2.724l4.023,4.023Z" transform="translate(7117.092 -5352)"/>
    <path id="Path_578-2" data-name="Path 578" d="M310.359,260.8l-1,1-.334-.334-.717.717.334.334-1,1,4.191,4.191,2.725-2.724Z" transform="translate(6865.105 -5603.987)"/>
    <path id="Path_579-2" data-name="Path 579" d="M7.912,286.122A7.946,7.946,0,0,1,0,278.213H1.018a6.9,6.9,0,0,0,6.9,6.895Z" transform="translate(7162.341 -5620.81)"/>
    <path id="Path_580-2" data-name="Path 580" d="M86.408,283.378a5.17,5.17,0,0,1-5.165-5.164h1.014a4.155,4.155,0,0,0,4.151,4.151Z" transform="translate(7083.846 -5620.81)"/>
    <g id="Group_251" data-name="Group 251" transform="translate(7085 -5821.865)">
      <path id="Path_436-2" data-name="Path 436" d="M12.933,0A12.933,12.933,0,1,0,25.865,12.933,12.933,12.933,0,0,0,12.933,0Zm0,25.031a12.1,12.1,0,1,1,12.1-12.1,12.1,12.1,0,0,1-12.1,12.1Z" fill="#fff" stroke="#fff" stroke-width="0.5"/>
      <path id="Path_437-2" data-name="Path 437" d="M125.565,156.216l-8.466,8.466-4.294-4.294a.417.417,0,1,0-.59.59l4.589,4.589a.417.417,0,0,0,.59,0l8.761-8.761a.417.417,0,0,0-.59-.59Z" transform="translate(-106.253 -147.958)" fill="#fff" stroke="#fff" stroke-width="0.5"/>
    </g>
    <path id="Path_193-2" data-name="Path 193" d="M23,16.411a14.2,14.2,0,0,1-4.458-.71,2.038,2.038,0,0,0-1.982.418l-2.811,2.122A15.536,15.536,0,0,1,6.76,11.257L8.82,8.519a2.021,2.021,0,0,0,.5-2.048A14.217,14.217,0,0,1,8.6,2.006,2.008,2.008,0,0,0,6.6,0H2.006A2.009,2.009,0,0,0,0,2.006,23.022,23.022,0,0,0,23,25a2.009,2.009,0,0,0,2-2V18.417A2.009,2.009,0,0,0,23,16.411Z" transform="translate(7271.25 -5410.5)" fill="#333"/>
    <path id="Path_194-2" data-name="Path 194" d="M42.053,15.123a1.163,1.163,0,0,1-1.163,1.163H38.563A1.163,1.163,0,0,1,37.4,15.123h0a1.163,1.163,0,0,1,1.163-1.163H40.89a1.163,1.163,0,0,1,1.163,1.163Zm0-7.445A1.163,1.163,0,0,0,40.89,6.515H38.563A1.163,1.163,0,0,0,37.4,7.678h0a1.163,1.163,0,0,0,1.163,1.163H40.89a1.163,1.163,0,0,0,1.163-1.163Zm0,14.89A1.163,1.163,0,0,0,40.89,21.4H38.563A1.163,1.163,0,0,0,37.4,22.568h0a1.163,1.163,0,0,0,1.163,1.163H40.89a1.163,1.163,0,0,0,1.163-1.163ZM62.528,3.723v22.8a3.723,3.723,0,0,1-3.722,3.723H42.519A3.723,3.723,0,0,1,38.8,26.524V24.662h2.09a2.094,2.094,0,1,0,0-4.188H38.8V17.217h2.09a2.094,2.094,0,1,0,0-4.188H38.8V9.772h2.09a2.094,2.094,0,1,0,0-4.188H38.8V3.723A3.723,3.723,0,0,1,42.519,0H58.8a3.723,3.723,0,0,1,3.728,3.723ZM47.77,11.035a3.59,3.59,0,1,0,3.59-3.59,3.59,3.59,0,0,0-3.59,3.59Zm9.173,8.775a3.989,3.989,0,0,0-3.988-3.988h-3.19a3.989,3.989,0,0,0-3.989,3.988v1.6H56.944Z" transform="translate(7373.475 -5409.997)" fill="#333"/>
    <path id="home_3_2" data-name="home (3)" d="M25.3,11.31h0L14.694.7a2.394,2.394,0,0,0-3.386,0L.706,11.3.7,11.314a2.393,2.393,0,0,0,1.593,4.079h.5V23.2A2.8,2.8,0,0,0,5.59,26H9.74a.762.762,0,0,0,.762-.762v-6.12A1.28,1.28,0,0,1,11.78,17.84h2.448A1.28,1.28,0,0,1,15.5,19.122v6.12a.762.762,0,0,0,.762.762h4.15a2.8,2.8,0,0,0,2.8-2.8V15.4H23.6a2.394,2.394,0,0,0,1.7-4.09Zm0,0" transform="translate(7271.25 -5362.505)" fill="#333"/>
    <path id="Path_8241" data-name="Path 8241" d="M163.83,38.369h3.821V32.5C166.056,33.025,164.622,35.264,163.83,38.369Z" transform="translate(7190.285 -5393.397)" fill="#333"/>
    <path id="Path_8242" data-name="Path 8242" d="M163.83,361c.792,3.1,2.226,5.344,3.821,5.868V361Z" transform="translate(7190.285 -5705.629)" fill="#333"/>
    <path id="Path_8243" data-name="Path 8243" d="M24.611,181H.743a.743.743,0,0,0-.743.743v5.942a.743.743,0,0,0,.743.743H24.611a.743.743,0,0,0,.743-.743v-5.942a.743.743,0,0,0-.743-.743Zm-.871,2.561-1.486,2.971a.743.743,0,0,1-1.329,0L20.1,184.89l-.821,1.642a.773.773,0,0,1-1.329,0l-1.423-2.847a.721.721,0,0,1-.15-.378.734.734,0,0,1-.069.254l-1.486,2.971a.743.743,0,0,1-1.329,0l-.821-1.642-.821,1.642a.773.773,0,0,1-1.329,0L9.04,183.561a.731.731,0,0,1-.066-.244.761.761,0,0,1-.177.417l-1.4,2.8a.743.743,0,0,1-1.329,0l-.821-1.642-.821,1.642a.743.743,0,0,1-1.329,0l-1.486-2.971A.743.743,0,1,1,2.94,182.9l.821,1.642.821-1.642a.749.749,0,0,1,1.329,0l.821,1.642.821-1.642a.771.771,0,0,1,.712-.409.76.76,0,0,1,.7.718.735.735,0,0,1,.4-.642.744.744,0,0,1,1,.332l.821,1.642.821-1.642a.773.773,0,0,1,1.329,0l.821,1.642.821-1.642a.744.744,0,0,1,1-.332.734.734,0,0,1,.4.635.714.714,0,0,1,.661-.709.822.822,0,0,1,.757.406l.821,1.642.821-1.642a.773.773,0,0,1,1.329,0l.821,1.642.821-1.642a.743.743,0,1,1,1.329.664Z" transform="translate(7346.002 -5534.542)" fill="#333"/>
    <path id="Path_8244" data-name="Path 8244" d="M271,361v5.868c1.6-.524,3.03-2.763,3.821-5.868Z" transform="translate(7088.422 -5705.629)" fill="#333"/>
    <path id="Path_8245" data-name="Path 8245" d="M271,32.5v5.868h3.821C274.03,35.264,272.6,33.025,271,32.5Z" transform="translate(7088.422 -5393.397)" fill="#333"/>
    <path id="Path_8246" data-name="Path 8246" d="M29.916,361H24.544a12.73,12.73,0,0,0,11.461,7.477C33.322,368.477,30.978,365.522,29.916,361Z" transform="translate(7322.673 -5705.629)" fill="#333"/>
    <path id="Path_8247" data-name="Path 8247" d="M262.09,361c-1.063,4.522-3.407,7.477-6.09,7.477A12.73,12.73,0,0,0,267.461,361Z" transform="translate(7102.679 -5705.629)" fill="#333"/>
    <path id="Path_8248" data-name="Path 8248" d="M24.544,7.477h5.372C30.978,2.955,33.322,0,36.005,0A12.73,12.73,0,0,0,24.544,7.477Z" transform="translate(7322.673 -5362.505)" fill="#333"/>
    <path id="Path_8249" data-name="Path 8249" d="M256,0c2.683,0,5.027,2.955,6.09,7.477h5.372A12.73,12.73,0,0,0,256,0Z" transform="translate(7102.679 -5362.505)" fill="#333"/>
    <path id="reliability" d="M84.2,34.331a4.993,4.993,0,0,0-2.366-1.36,4.86,4.86,0,0,0,.759-2.8,5.075,5.075,0,0,0-5.1-4.768H67.556l-.01-14.678a5.852,5.852,0,0,0-11.7,0V14.6a6.929,6.929,0,0,1-.607,2.836A13.707,13.707,0,0,1,41.965,3.848V2.061A2.078,2.078,0,0,0,39.876,0H18.308a2.078,2.078,0,0,0-2.09,2.061v1.4A13.716,13.716,0,0,1,2.425,17.069H2.09A2.078,2.078,0,0,0,0,19.131V43.869A29.163,29.163,0,0,0,55.505,55.908H72.986a4.347,4.347,0,0,0,3.06-1.272,4.008,4.008,0,0,0,.844-4.5h.6a5.075,5.075,0,0,0,5.1-4.768,4.857,4.857,0,0,0-.772-2.825,5.03,5.03,0,0,0,3.781-4.6,4.873,4.873,0,0,0-1.4-3.615ZM29.1,70.091A26.435,26.435,0,0,1,2.508,43.869V19.543A16.21,16.21,0,0,0,18.726,3.463v-.99H39.457V3.848A16.178,16.178,0,0,0,53.53,19.777a7.155,7.155,0,0,1-.978.741l-6.85,4.3a3.789,3.789,0,0,1-2.019.58H42.139a3.762,3.762,0,0,0-3.6-2.639H31.516a3.765,3.765,0,0,0-3.546,2.474H21.819a3.242,3.242,0,0,0-3.26,3.216V49.723a3.242,3.242,0,0,0,3.26,3.216h5.935V65.108A21.347,21.347,0,0,1,7.524,43.951v-20.5A17.01,17.01,0,0,0,23.364,7.339h4.39V18.224a1.254,1.254,0,0,0,2.508,0V6.1a1.245,1.245,0,0,0-1.254-1.237H22.125A1.245,1.245,0,0,0,20.871,6.1v.522a14.519,14.519,0,0,1-14.6,14.4,1.245,1.245,0,0,0-1.254,1.237V43.951A23.858,23.858,0,0,0,29.008,67.617a1.245,1.245,0,0,0,1.254-1.237V55.286a3.465,3.465,0,0,0,.92.127h7.356a3.774,3.774,0,0,0,3.009-1.486l1.338.747a9.733,9.733,0,0,0,4.741,1.234h5.089A26.613,26.613,0,0,1,29.092,70.091ZM27.754,50.465H21.819a.748.748,0,0,1-.752-.742V28.449a.748.748,0,0,1,.752-.742h5.935ZM80.5,40.24H70.722a1.237,1.237,0,0,0,0,2.474h6.855a2.506,2.506,0,0,1,1.805.756,2.437,2.437,0,0,1,.7,1.809,2.561,2.561,0,0,1-2.6,2.382h-6.76a1.237,1.237,0,0,0,0,2.474h2.346a1.67,1.67,0,0,1,1.672,1.618,1.587,1.587,0,0,1-.478,1.151,1.807,1.807,0,0,1-1.27.53H47.625a7.192,7.192,0,0,1-3.5-.912L42.3,51.5V48.7a1.254,1.254,0,1,0-2.508,0v3a1.247,1.247,0,0,1-1.254,1.237H31.182a.915.915,0,0,1-.92-.907V26.47a1.247,1.247,0,0,1,1.254-1.237h7.022a1.247,1.247,0,0,1,1.254,1.237V42.934a1.254,1.254,0,1,0,2.508,0V27.871h1.382a6.32,6.32,0,0,0,3.365-.967L53.9,22.6a9.408,9.408,0,0,0,4.452-8V10.72a3.344,3.344,0,1,1,6.688,0l.01,15.091a2.079,2.079,0,0,0,2.09,2.06H77.49a2.561,2.561,0,0,1,2.6,2.382,2.439,2.439,0,0,1-.7,1.809,2.506,2.506,0,0,1-1.805.756H70.722a1.237,1.237,0,0,0,0,2.474h9.864a2.506,2.506,0,0,1,1.8.756,2.437,2.437,0,0,1,.7,1.809,2.561,2.561,0,0,1-2.6,2.382Zm0,0" transform="translate(7522 -5329)"/>
    <path id="Path_362" data-name="Path 362" d="M70.077,45.92h-.693L62.89,28.774a3.941,3.941,0,0,0-3.681-2.51H13.363a3.941,3.941,0,0,0-3.681,2.51L3.188,45.92H2.495A2.474,2.474,0,0,0,0,48.366v1.966a2.474,2.474,0,0,0,2.5,2.446h.369V75.626a1.063,1.063,0,1,0,2.126,0V52.778H21.682a3.51,3.51,0,0,0,2.473-1l12.132-11.9,12.132,11.9a3.509,3.509,0,0,0,2.473,1H67.583v2.764a1.063,1.063,0,0,0,2.126,0V52.778h.369a2.474,2.474,0,0,0,2.495-2.446V48.366a2.474,2.474,0,0,0-2.5-2.446ZM11.675,29.5a1.807,1.807,0,0,1,1.688-1.151H59.209A1.807,1.807,0,0,1,60.9,29.5l6.22,16.42H52.34L38.759,32.6a3.546,3.546,0,0,0-4.946,0L20.233,45.92H5.456ZM70.446,50.332a.366.366,0,0,1-.369.362H50.891a1.376,1.376,0,0,1-.97-.394L37.038,37.667a1.078,1.078,0,0,0-1.5,0L22.651,50.3a1.376,1.376,0,0,1-.97.394H2.495a.366.366,0,0,1-.369-.362V48.366A.366.366,0,0,1,2.495,48H20.673a1.074,1.074,0,0,0,.752-.305L35.317,34.078a1.39,1.39,0,0,1,1.939,0L51.148,47.7a1.074,1.074,0,0,0,.752.3H70.078a.366.366,0,0,1,.369.362v1.966Z" transform="translate(7647.075 -5351.264)"/>
    <path id="Path_363" data-name="Path 363" d="M357.827,297.811a1.063,1.063,0,0,0,1.063-1.063v-18.9a1.063,1.063,0,0,0-1.063-1.063H343.508a1.063,1.063,0,0,0-1.063,1.063v18.9a1.063,1.063,0,0,0,1.063,1.063Zm-1.063-6.708H351.73V286.07h5.033Zm-7.159,0h-5.033V286.07H349.6Zm7.159,4.582H344.571v-2.456h12.192Zm0-11.741H351.73v-5.033h5.033Zm-7.159-5.033v5.033h-5.033v-5.033Z" transform="translate(7353.169 -5567.275)"/>
    <path id="Path_364" data-name="Path 364" d="M68.92,297.811a1.063,1.063,0,0,0,1.063-1.063v-18.9a1.063,1.063,0,0,0-1.063-1.063H54.6a1.063,1.063,0,0,0-1.063,1.063v18.9a1.063,1.063,0,0,0,1.063,1.063ZM67.856,291.1H62.823v-5.03h5.033Zm-7.159,0H55.664v-5.03H60.7Zm7.159,4.582H55.664v-2.456H67.856Zm0-11.741H62.823v-5.033h5.033Zm-7.156-5.03v5.033H55.664v-5.033Z" transform="translate(7601.126 -5567.275)"/>
    <path id="Path_365" data-name="Path 365" d="M232.192,309.11h-6.873a1.063,1.063,0,0,0-1.063,1.063v4.582a1.063,1.063,0,0,0,1.063,1.063h6.873a1.063,1.063,0,0,0,1.063-1.063v-4.582a1.063,1.063,0,0,0-1.063-1.063Zm-1.063,4.582h-4.747v-2.456h4.747Z" transform="translate(7454.606 -5594.705)"/>
    <path id="Path_366" data-name="Path 366" d="M227.465,180.4a5.645,5.645,0,1,0-5.645,5.645,5.645,5.645,0,0,0,5.645-5.645Zm-9.164,0a3.519,3.519,0,1,1,3.519,3.519A3.519,3.519,0,0,1,218.3,180.4Z" transform="translate(7461.541 -5479.101)"/>
    <path id="Path_367" data-name="Path 367" d="M71.509,288.864h-1.8v-23.3a1.063,1.063,0,0,0-2.126,0v23.3H45.367V267.3a1.063,1.063,0,0,0-1.063-1.063H28.268A1.063,1.063,0,0,0,27.2,267.3v21.56H4.99v-2.818a1.063,1.063,0,1,0-2.126,0v2.818h-1.8A1.063,1.063,0,0,0,0,289.927V294.8a1.063,1.063,0,0,0,1.063,1.063H71.509a1.063,1.063,0,0,0,1.063-1.063v-4.868a1.063,1.063,0,0,0-1.063-1.068Zm-42.178-7.753h1.514a1.063,1.063,0,0,0,0-2.126H29.331V268.367H43.242v20.5H29.331Zm41.115,12.622H2.126V290.99h68.32Z" transform="translate(7647.075 -5556.732)"/>
    <path id="Path_368" data-name="Path 368" d="M68.843,0H18.353a4.579,4.579,0,0,0-4.6,4.543V70.489a4.579,4.579,0,0,0,4.6,4.543h50.49a4.579,4.579,0,0,0,4.6-4.543V4.542A4.579,4.579,0,0,0,68.843,0Zm2.524,70.487a2.51,2.51,0,0,1-2.524,2.491H18.353a2.51,2.51,0,0,1-2.524-2.491V4.542a2.51,2.51,0,0,1,2.524-2.49h50.49a2.51,2.51,0,0,1,2.524,2.491Z" transform="translate(7747.25 -5330)"/>
    <path id="Path_369" data-name="Path 369" d="M70.527,10H24.789a1.039,1.039,0,0,0-1.039,1.039V24.107a1.039,1.039,0,0,0,1.039,1.039H70.527a1.039,1.039,0,0,0,1.039-1.039V11.039A1.039,1.039,0,0,0,70.527,10ZM69.488,23.068H25.829V12.079H69.488Z" transform="translate(7743.19 -5334.06)"/>
    <path id="Path_370" data-name="Path 370" d="M65.075,97.523H53.789a1.039,1.039,0,0,0-1.039,1.04v10.082a1.039,1.039,0,0,0,1.039,1.042H65.075a1.039,1.039,0,0,0,1.039-1.039V98.563a1.039,1.039,0,0,0-1.039-1.039Zm-1.04,10.084H54.828V99.6h9.207Z" transform="translate(7731.416 -5370.595)"/>
    <path id="Path_371" data-name="Path 371" d="M36.093,97.523h-11.3a1.04,1.04,0,0,0-1.039,1.04v10.082a1.039,1.039,0,0,0,1.039,1.042h11.3a1.039,1.039,0,0,0,1.039-1.039V98.563a1.039,1.039,0,0,0-1.039-1.039Zm-1.039,10.084H25.829V99.6h9.224Z" transform="translate(7743.19 -5370.595)"/>
    <path id="Path_372" data-name="Path 372" d="M65.075,69.766H53.789a1.039,1.039,0,0,0-1.039,1.039V80.887a1.039,1.039,0,0,0,1.039,1.039H65.075a1.039,1.039,0,0,0,1.039-1.039V70.805A1.039,1.039,0,0,0,65.075,69.766ZM64.036,79.847H54.829v-8h9.207Z" transform="translate(7731.416 -5358.974)"/>
    <path id="Path_373" data-name="Path 373" d="M36.093,69.766h-11.3a1.039,1.039,0,0,0-1.039,1.039V80.887a1.039,1.039,0,0,0,1.039,1.039h11.3a1.039,1.039,0,0,0,1.039-1.039V70.805a1.039,1.039,0,0,0-1.039-1.039Zm-1.04,10.081H25.829v-8h9.224Z" transform="translate(7743.19 -5358.974)"/>
    <path id="Path_374" data-name="Path 374" d="M94.064,69.766H82.76a1.039,1.039,0,0,0-1.039,1.039v26.57a1.039,1.039,0,0,0,1.039,1.039h11.3a1.039,1.039,0,0,0,1.04-1.039V70.805a1.039,1.039,0,0,0-1.039-1.039Zm-1.04,26.569H83.8V71.845h9.224Z" transform="translate(7719.653 -5359.325)"/>
    <path id="Path_375" data-name="Path 375" d="M65.075,42.008H53.789a1.039,1.039,0,0,0-1.039,1.039V53.129a1.039,1.039,0,0,0,1.039,1.039H65.075a1.039,1.039,0,0,0,1.039-1.039V43.047A1.039,1.039,0,0,0,65.075,42.008Zm-1.04,10.081H54.828v-8h9.207Z" transform="translate(7731.416 -5347.446)"/>
    <path id="Path_376" data-name="Path 376" d="M36.093,42.008h-11.3a1.039,1.039,0,0,0-1.039,1.039V53.129a1.039,1.039,0,0,0,1.039,1.039h11.3a1.039,1.039,0,0,0,1.039-1.039V43.047a1.039,1.039,0,0,0-1.039-1.039Zm-1.04,10.081H25.829v-8h9.224Z" transform="translate(7743.19 -5347.446)"/>
    <path id="Path_377" data-name="Path 377" d="M94.064,42.008H82.76a1.039,1.039,0,0,0-1.039,1.039V53.129a1.039,1.039,0,0,0,1.039,1.039h11.3a1.039,1.039,0,0,0,1.04-1.039V43.047a1.039,1.039,0,0,0-1.039-1.039Zm-1.04,10.081H83.8v-8h9.224Z" transform="translate(7719.653 -5347.446)"/>
    <path id="reliability-2" data-name="reliability" d="M84.2,34.331a4.993,4.993,0,0,0-2.366-1.36,4.86,4.86,0,0,0,.759-2.8,5.075,5.075,0,0,0-5.1-4.768H67.556l-.01-14.678a5.852,5.852,0,0,0-11.7,0V14.6a6.929,6.929,0,0,1-.607,2.836A13.707,13.707,0,0,1,41.965,3.848V2.061A2.078,2.078,0,0,0,39.876,0H18.308a2.078,2.078,0,0,0-2.09,2.061v1.4A13.716,13.716,0,0,1,2.425,17.069H2.09A2.078,2.078,0,0,0,0,19.131V43.869A29.163,29.163,0,0,0,55.505,55.908H72.986a4.347,4.347,0,0,0,3.06-1.272,4.008,4.008,0,0,0,.844-4.5h.6a5.075,5.075,0,0,0,5.1-4.768,4.857,4.857,0,0,0-.772-2.825,5.03,5.03,0,0,0,3.781-4.6,4.873,4.873,0,0,0-1.4-3.615ZM29.1,70.091A26.435,26.435,0,0,1,2.508,43.869V19.543A16.21,16.21,0,0,0,18.726,3.463v-.99H39.457V3.848A16.178,16.178,0,0,0,53.53,19.777a7.155,7.155,0,0,1-.978.741l-6.85,4.3a3.789,3.789,0,0,1-2.019.58H42.139a3.762,3.762,0,0,0-3.6-2.639H31.516a3.765,3.765,0,0,0-3.546,2.474H21.819a3.242,3.242,0,0,0-3.26,3.216V49.723a3.242,3.242,0,0,0,3.26,3.216h5.935V65.108A21.347,21.347,0,0,1,7.524,43.951v-20.5A17.01,17.01,0,0,0,23.364,7.339h4.39V18.224a1.254,1.254,0,0,0,2.508,0V6.1a1.245,1.245,0,0,0-1.254-1.237H22.125A1.245,1.245,0,0,0,20.871,6.1v.522a14.519,14.519,0,0,1-14.6,14.4,1.245,1.245,0,0,0-1.254,1.237V43.951A23.858,23.858,0,0,0,29.008,67.617a1.245,1.245,0,0,0,1.254-1.237V55.286a3.465,3.465,0,0,0,.92.127h7.356a3.774,3.774,0,0,0,3.009-1.486l1.338.747a9.733,9.733,0,0,0,4.741,1.234h5.089A26.613,26.613,0,0,1,29.092,70.091ZM27.754,50.465H21.819a.748.748,0,0,1-.752-.742V28.449a.748.748,0,0,1,.752-.742h5.935ZM80.5,40.24H70.722a1.237,1.237,0,0,0,0,2.474h6.855a2.506,2.506,0,0,1,1.805.756,2.437,2.437,0,0,1,.7,1.809,2.561,2.561,0,0,1-2.6,2.382h-6.76a1.237,1.237,0,0,0,0,2.474h2.346a1.67,1.67,0,0,1,1.672,1.618,1.587,1.587,0,0,1-.478,1.151,1.807,1.807,0,0,1-1.27.53H47.625a7.192,7.192,0,0,1-3.5-.912L42.3,51.5V48.7a1.254,1.254,0,1,0-2.508,0v3a1.247,1.247,0,0,1-1.254,1.237H31.182a.915.915,0,0,1-.92-.907V26.47a1.247,1.247,0,0,1,1.254-1.237h7.022a1.247,1.247,0,0,1,1.254,1.237V42.934a1.254,1.254,0,1,0,2.508,0V27.871h1.382a6.32,6.32,0,0,0,3.365-.967L53.9,22.6a9.408,9.408,0,0,0,4.452-8V10.72a3.344,3.344,0,1,1,6.688,0l.01,15.091a2.079,2.079,0,0,0,2.09,2.06H77.49a2.561,2.561,0,0,1,2.6,2.382,2.439,2.439,0,0,1-.7,1.809,2.506,2.506,0,0,1-1.805.756H70.722a1.237,1.237,0,0,0,0,2.474h9.864a2.506,2.506,0,0,1,1.8.756,2.437,2.437,0,0,1,.7,1.809,2.561,2.561,0,0,1-2.6,2.382Zm0,0" transform="translate(7522 -5428)" fill="#fff"/>
    <path id="Path_362-2" data-name="Path 362" d="M70.077,45.92h-.693L62.89,28.774a3.941,3.941,0,0,0-3.681-2.51H13.363a3.941,3.941,0,0,0-3.681,2.51L3.188,45.92H2.495A2.474,2.474,0,0,0,0,48.366v1.966a2.474,2.474,0,0,0,2.5,2.446h.369V75.626a1.063,1.063,0,1,0,2.126,0V52.778H21.682a3.51,3.51,0,0,0,2.473-1l12.132-11.9,12.132,11.9a3.509,3.509,0,0,0,2.473,1H67.583v2.764a1.063,1.063,0,0,0,2.126,0V52.778h.369a2.474,2.474,0,0,0,2.495-2.446V48.366a2.474,2.474,0,0,0-2.5-2.446ZM11.675,29.5a1.807,1.807,0,0,1,1.688-1.151H59.209A1.807,1.807,0,0,1,60.9,29.5l6.22,16.42H52.34L38.759,32.6a3.546,3.546,0,0,0-4.946,0L20.233,45.92H5.456ZM70.446,50.332a.366.366,0,0,1-.369.362H50.891a1.376,1.376,0,0,1-.97-.394L37.038,37.667a1.078,1.078,0,0,0-1.5,0L22.651,50.3a1.376,1.376,0,0,1-.97.394H2.495a.366.366,0,0,1-.369-.362V48.366A.366.366,0,0,1,2.495,48H20.673a1.074,1.074,0,0,0,.752-.305L35.317,34.078a1.39,1.39,0,0,1,1.939,0L51.148,47.7a1.074,1.074,0,0,0,.752.3H70.078a.366.366,0,0,1,.369.362v1.966Z" transform="translate(7647.075 -5450.264)" fill="#fff"/>
    <path id="Path_363-2" data-name="Path 363" d="M357.827,297.811a1.063,1.063,0,0,0,1.063-1.063v-18.9a1.063,1.063,0,0,0-1.063-1.063H343.508a1.063,1.063,0,0,0-1.063,1.063v18.9a1.063,1.063,0,0,0,1.063,1.063Zm-1.063-6.708H351.73V286.07h5.033Zm-7.159,0h-5.033V286.07H349.6Zm7.159,4.582H344.571v-2.456h12.192Zm0-11.741H351.73v-5.033h5.033Zm-7.159-5.033v5.033h-5.033v-5.033Z" transform="translate(7353.169 -5666.275)" fill="#fff"/>
    <path id="Path_364-2" data-name="Path 364" d="M68.92,297.811a1.063,1.063,0,0,0,1.063-1.063v-18.9a1.063,1.063,0,0,0-1.063-1.063H54.6a1.063,1.063,0,0,0-1.063,1.063v18.9a1.063,1.063,0,0,0,1.063,1.063ZM67.856,291.1H62.823v-5.03h5.033Zm-7.159,0H55.664v-5.03H60.7Zm7.159,4.582H55.664v-2.456H67.856Zm0-11.741H62.823v-5.033h5.033Zm-7.156-5.03v5.033H55.664v-5.033Z" transform="translate(7601.126 -5666.275)" fill="#fff"/>
    <path id="Path_365-2" data-name="Path 365" d="M232.192,309.11h-6.873a1.063,1.063,0,0,0-1.063,1.063v4.582a1.063,1.063,0,0,0,1.063,1.063h6.873a1.063,1.063,0,0,0,1.063-1.063v-4.582a1.063,1.063,0,0,0-1.063-1.063Zm-1.063,4.582h-4.747v-2.456h4.747Z" transform="translate(7454.606 -5693.705)" fill="#fff"/>
    <path id="Path_366-2" data-name="Path 366" d="M227.465,180.4a5.645,5.645,0,1,0-5.645,5.645,5.645,5.645,0,0,0,5.645-5.645Zm-9.164,0a3.519,3.519,0,1,1,3.519,3.519A3.519,3.519,0,0,1,218.3,180.4Z" transform="translate(7461.541 -5578.101)" fill="#fff"/>
    <path id="Path_367-2" data-name="Path 367" d="M71.509,288.864h-1.8v-23.3a1.063,1.063,0,0,0-2.126,0v23.3H45.367V267.3a1.063,1.063,0,0,0-1.063-1.063H28.268A1.063,1.063,0,0,0,27.2,267.3v21.56H4.99v-2.818a1.063,1.063,0,1,0-2.126,0v2.818h-1.8A1.063,1.063,0,0,0,0,289.927V294.8a1.063,1.063,0,0,0,1.063,1.063H71.509a1.063,1.063,0,0,0,1.063-1.063v-4.868a1.063,1.063,0,0,0-1.063-1.068Zm-42.178-7.753h1.514a1.063,1.063,0,0,0,0-2.126H29.331V268.367H43.242v20.5H29.331Zm41.115,12.622H2.126V290.99h68.32Z" transform="translate(7647.075 -5655.732)" fill="#fff"/>
    <path id="Path_368-2" data-name="Path 368" d="M68.843,0H18.353a4.579,4.579,0,0,0-4.6,4.543V70.489a4.579,4.579,0,0,0,4.6,4.543h50.49a4.579,4.579,0,0,0,4.6-4.543V4.542A4.579,4.579,0,0,0,68.843,0Zm2.524,70.487a2.51,2.51,0,0,1-2.524,2.491H18.353a2.51,2.51,0,0,1-2.524-2.491V4.542a2.51,2.51,0,0,1,2.524-2.49h50.49a2.51,2.51,0,0,1,2.524,2.491Z" transform="translate(7747.25 -5429)" fill="#fff"/>
    <path id="Path_369-2" data-name="Path 369" d="M70.527,10H24.789a1.039,1.039,0,0,0-1.039,1.039V24.107a1.039,1.039,0,0,0,1.039,1.039H70.527a1.039,1.039,0,0,0,1.039-1.039V11.039A1.039,1.039,0,0,0,70.527,10ZM69.488,23.068H25.829V12.079H69.488Z" transform="translate(7743.19 -5433.06)" fill="#fff"/>
    <path id="Path_370-2" data-name="Path 370" d="M65.075,97.523H53.789a1.039,1.039,0,0,0-1.039,1.04v10.082a1.039,1.039,0,0,0,1.039,1.042H65.075a1.039,1.039,0,0,0,1.039-1.039V98.563a1.039,1.039,0,0,0-1.039-1.039Zm-1.04,10.084H54.828V99.6h9.207Z" transform="translate(7731.416 -5469.595)" fill="#fff"/>
    <path id="Path_371-2" data-name="Path 371" d="M36.093,97.523h-11.3a1.04,1.04,0,0,0-1.039,1.04v10.082a1.039,1.039,0,0,0,1.039,1.042h11.3a1.039,1.039,0,0,0,1.039-1.039V98.563a1.039,1.039,0,0,0-1.039-1.039Zm-1.039,10.084H25.829V99.6h9.224Z" transform="translate(7743.19 -5469.595)" fill="#fff"/>
    <path id="Path_372-2" data-name="Path 372" d="M65.075,69.766H53.789a1.039,1.039,0,0,0-1.039,1.039V80.887a1.039,1.039,0,0,0,1.039,1.039H65.075a1.039,1.039,0,0,0,1.039-1.039V70.805A1.039,1.039,0,0,0,65.075,69.766ZM64.036,79.847H54.829v-8h9.207Z" transform="translate(7731.416 -5457.974)" fill="#fff"/>
    <path id="Path_373-2" data-name="Path 373" d="M36.093,69.766h-11.3a1.039,1.039,0,0,0-1.039,1.039V80.887a1.039,1.039,0,0,0,1.039,1.039h11.3a1.039,1.039,0,0,0,1.039-1.039V70.805a1.039,1.039,0,0,0-1.039-1.039Zm-1.04,10.081H25.829v-8h9.224Z" transform="translate(7743.19 -5457.974)" fill="#fff"/>
    <path id="Path_374-2" data-name="Path 374" d="M94.064,69.766H82.76a1.039,1.039,0,0,0-1.039,1.039v26.57a1.039,1.039,0,0,0,1.039,1.039h11.3a1.039,1.039,0,0,0,1.04-1.039V70.805a1.039,1.039,0,0,0-1.039-1.039Zm-1.04,26.569H83.8V71.845h9.224Z" transform="translate(7719.653 -5458.325)" fill="#fff"/>
    <path id="Path_375-2" data-name="Path 375" d="M65.075,42.008H53.789a1.039,1.039,0,0,0-1.039,1.039V53.129a1.039,1.039,0,0,0,1.039,1.039H65.075a1.039,1.039,0,0,0,1.039-1.039V43.047A1.039,1.039,0,0,0,65.075,42.008Zm-1.04,10.081H54.828v-8h9.207Z" transform="translate(7731.416 -5446.446)" fill="#fff"/>
    <path id="Path_376-2" data-name="Path 376" d="M36.093,42.008h-11.3a1.039,1.039,0,0,0-1.039,1.039V53.129a1.039,1.039,0,0,0,1.039,1.039h11.3a1.039,1.039,0,0,0,1.039-1.039V43.047a1.039,1.039,0,0,0-1.039-1.039Zm-1.04,10.081H25.829v-8h9.224Z" transform="translate(7743.19 -5446.446)" fill="#fff"/>
    <path id="Path_377-2" data-name="Path 377" d="M94.064,42.008H82.76a1.039,1.039,0,0,0-1.039,1.039V53.129a1.039,1.039,0,0,0,1.039,1.039h11.3a1.039,1.039,0,0,0,1.04-1.039V43.047a1.039,1.039,0,0,0-1.039-1.039Zm-1.04,10.081H83.8v-8h9.224Z" transform="translate(7719.653 -5446.446)" fill="#fff"/>
    <path id="Path_191-2" data-name="Path 191" d="M7.1,65.521c3.432,2.906,9.453,8.019,11.222,9.613a1.045,1.045,0,0,0,1.512,0c1.771-1.6,7.792-6.709,11.224-9.615a.521.521,0,0,0,.073-.719A2.069,2.069,0,0,0,29.5,64H8.66a2.068,2.068,0,0,0-1.635.8.52.52,0,0,0,.075.721Z" transform="translate(7339.426 -5467.25)" fill="#333"/>
    <path id="Path_192-2" data-name="Path 192" d="M24.7,126.46a.518.518,0,0,0-.555.075c-3.805,3.226-8.662,7.361-10.19,8.738a2.109,2.109,0,0,1-2.908,0c-1.629-1.468-7.083-6.1-10.189-8.737a.521.521,0,0,0-.858.4v13.1a2.086,2.086,0,0,0,2.084,2.084H22.919A2.086,2.086,0,0,0,25,140.032v-13.1A.521.521,0,0,0,24.7,126.46Z" transform="translate(7346.002 -5526.614)" fill="#333"/>
    <path id="Path_193-3" data-name="Path 193" d="M23,16.411a14.2,14.2,0,0,1-4.458-.71,2.038,2.038,0,0,0-1.982.418l-2.811,2.122A15.536,15.536,0,0,1,6.76,11.257L8.82,8.519a2.021,2.021,0,0,0,.5-2.048A14.217,14.217,0,0,1,8.6,2.006,2.008,2.008,0,0,0,6.6,0H2.006A2.009,2.009,0,0,0,0,2.006,23.022,23.022,0,0,0,23,25a2.009,2.009,0,0,0,2-2V18.417A2.009,2.009,0,0,0,23,16.411Z" transform="translate(7323 -5302)" fill="#fff"/>
    <path id="Path_191-3" data-name="Path 191" d="M7.1,65.521c3.432,2.906,9.453,8.019,11.222,9.613a1.045,1.045,0,0,0,1.512,0c1.771-1.6,7.792-6.709,11.224-9.615a.521.521,0,0,0,.073-.719A2.069,2.069,0,0,0,29.5,64H8.66a2.068,2.068,0,0,0-1.635.8.52.52,0,0,0,.075.721Z" transform="translate(7365.424 -5362.752)" fill="#fff"/>
    <path id="Path_192-3" data-name="Path 192" d="M24.7,126.46a.518.518,0,0,0-.555.075c-3.805,3.226-8.662,7.361-10.19,8.738a2.109,2.109,0,0,1-2.908,0c-1.629-1.468-7.083-6.1-10.189-8.737a.521.521,0,0,0-.858.4v13.1a2.086,2.086,0,0,0,2.084,2.084H22.919A2.086,2.086,0,0,0,25,140.032v-13.1A.521.521,0,0,0,24.7,126.46Z" transform="translate(7372 -5422.116)" fill="#fff"/>
    <path id="Chevron_Right_1_" d="M64.4,8.907,55.768.283A.969.969,0,0,0,54.4,1.652l7.943,7.94L54.4,17.532A.969.969,0,1,0,55.769,18.9L64.4,10.277a.977.977,0,0,0,0-1.37Z" transform="translate(7117.977 -5817.592)" fill="#fff"/>
    <path id="Chevron_Right_1_2" data-name="Chevron_Right_1_" d="M64.4,8.907,55.768.283A.969.969,0,0,0,54.4,1.652l7.943,7.94L54.4,17.532A.969.969,0,1,0,55.769,18.9L64.4,10.277a.977.977,0,0,0,0-1.37Z" transform="translate(7126.977 -5817.592)" fill="#fff"/>
    <path id="Chevron_Right_1_3" data-name="Chevron_Right_1_" d="M64.4,8.907,55.768.283A.969.969,0,0,0,54.4,1.652l7.943,7.94L54.4,17.532A.969.969,0,1,0,55.769,18.9L64.4,10.277a.977.977,0,0,0,0-1.37Z" transform="translate(7154.977 -5817.34)" fill="#0f4c82"/>
    <path id="Chevron_Right_1_4" data-name="Chevron_Right_1_" d="M64.4,8.907,55.768.283A.969.969,0,0,0,54.4,1.652l7.943,7.94L54.4,17.532A.969.969,0,1,0,55.769,18.9L64.4,10.277a.977.977,0,0,0,0-1.37Z" transform="translate(7163.977 -5817.34)"/>
    <path id="Chevron_Right_1_5" data-name="Chevron_Right_1_" d="M64.4,8.907,55.768.283A.969.969,0,0,0,54.4,1.652l7.943,7.94L54.4,17.532A.969.969,0,1,0,55.769,18.9L64.4,10.277a.977.977,0,0,0,0-1.37Z" transform="translate(7192.887 -5817.592)" fill="#0f4c82"/>
    <path id="Chevron_Right_1_6" data-name="Chevron_Right_1_" d="M64.4,8.907,55.768.283A.969.969,0,0,0,54.4,1.652l7.943,7.94L54.4,17.532A.969.969,0,1,0,55.769,18.9L64.4,10.277a.977.977,0,0,0,0-1.37Z" transform="translate(7201.887 -5817.592)" fill="#fff"/>
    <path id="search_1_" data-name="search (1)" d="M14.263,12.721,10.939,9.264a5.637,5.637,0,1,0-4.316,2.014,5.578,5.578,0,0,0,3.231-1.02L13.2,13.741a.736.736,0,1,0,1.06-1.02ZM6.623,1.471A4.168,4.168,0,1,1,2.455,5.639,4.168,4.168,0,0,1,6.623,1.471Z" transform="translate(7283.016 -5813.966)" fill="#fff"/>
    <path id="Path_559" data-name="Path 559" d="M76.471,211.786v9.793h-3.7v-4.235a.672.672,0,0,0-.672-.672H67.373a.672.672,0,0,0-.672.672v4.235H63.026v-9.793H61.681v10.465a.672.672,0,0,0,.672.672h5.02a.672.672,0,0,0,.672-.672v-4.235h3.384v4.235a.672.672,0,0,0,.672.672h5.042a.672.672,0,0,0,.672-.672V211.786Z" transform="translate(7261.851 -6020.279)"/>
    <path id="Path_560" data-name="Path 560" d="M20.808,38.233,11.06,29.112a.672.672,0,0,0-.914,0L.217,38.229a.672.672,0,0,0,.91.99l9.469-8.7,9.293,8.7a.672.672,0,1,0,.919-.982Z" transform="translate(7321 -5844.931)"/>
    <path id="Path_8536" data-name="Path 8536" d="M96.783,12.734v1.283a1.738,1.738,0,0,0-1.157,1.635V18a1.735,1.735,0,0,0,3.47,0V15.652a1.738,1.738,0,0,0-1.157-1.635V12.734a6.361,6.361,0,1,0-1.157,0ZM97.939,18a.578.578,0,0,1-1.157,0V15.652a.578.578,0,0,1,1.157,0ZM97.361,1.157a5.224,5.224,0,1,1-5.2,5.243,5.224,5.224,0,0,1,5.2-5.243Z" transform="translate(7344.002 -5480.736)" fill="#fff" stroke="#fff" stroke-width="0.3"/>
    <path id="dollar-currency-symbol_1_" data-name="dollar-currency-symbol (1)" d="M80.528,4.578a1.427,1.427,0,0,0-.622-1.242,3.722,3.722,0,0,0-1.09-.46c-.787-.239-1.015-.364-1.015-.741,0-.419.545-.568,1.011-.568a1.95,1.95,0,0,1,.973.262l.481-.745A2.757,2.757,0,0,0,79.086.7V0H78.2V.745a1.448,1.448,0,0,0-1.286,1.392,1.332,1.332,0,0,0,.607,1.158,3.723,3.723,0,0,0,1.039.432c.772.233,1.085.375,1.082.846h0c0,.4-.524.536-.972.536a1.664,1.664,0,0,1-1.146-.462l-.645.61a2.474,2.474,0,0,0,1.321.694V6.68h.887V5.97a1.468,1.468,0,0,0,1.441-1.392Z" transform="translate(7362.786 -5477.547)" fill="#fff" stroke="#fff" stroke-width="0.3"/>
    <path id="favorite" d="M9.637,2,12,6.781l5.277.771-3.819,3.719.9,5.254-4.72-2.482-4.72,2.482.9-5.254L2,7.552l5.277-.771Z" transform="translate(7461.726 -5480.262)" fill="none" stroke="#fff" stroke-linecap="round" stroke-linejoin="round" stroke-width="1.3"/>
    <g id="Ellipse_114" data-name="Ellipse 114" transform="translate(7554 -5822)" fill="none" stroke="#fffefe" stroke-width="1.5">
      <circle cx="14" cy="14" r="14" stroke="none"/>
      <circle cx="14" cy="14" r="13.25" fill="none"/>
    </g>
    <g id="Ellipse_115" data-name="Ellipse 115" transform="translate(7507 -5822)" fill="none" stroke="#fff" stroke-width="1.5">
      <circle cx="14" cy="14" r="14" stroke="none"/>
      <circle cx="14" cy="14" r="13.25" fill="none"/>
    </g>
    <path id="plus_1_" data-name="plus (1)" d="M15.544,7.363H9V.818a.818.818,0,1,0-1.636,0V7.363H.818A.819.819,0,1,0,.818,9H7.363v6.545a.818.818,0,0,0,1.636,0V9h6.545a.818.818,0,1,0,0-1.636Zm0,0" transform="translate(7513 -5816)" fill="#fff"/>
    <path id="plus_1_2" data-name="plus (1)" d="M15.544,7.363H.818A.819.819,0,1,0,.818,9C.861,9.011,9.03,9.017,9,9h6.545a.818.818,0,1,0,0-1.636Zm0,0" transform="translate(7560 -5816)" fill="#fff"/>
    <path id="Path_568" data-name="Path 568" d="M5.321,1.33V0H.665A.665.665,0,0,0,0,.665V5.321H1.33V2.268L7.509,8.447l.938-.938L2.268,1.33Z" transform="translate(7463.039 -5818.96)" fill="#fff" stroke="#fff" stroke-width="0.3"/>
    <path id="Path_569" data-name="Path 569" d="M316.581,0h-4.655V1.33h3.053L308.8,7.509l.938.938,6.179-6.179V5.321h1.33V.665A.665.665,0,0,0,316.581,0Z" transform="translate(7167.075 -5818.96)" fill="#fff" stroke="#fff" stroke-width="0.3"/>
    <path id="Path_570" data-name="Path 570" d="M315.916,314.979l-6.179-6.179-.938.938,6.179,6.179h-3.053v1.33h4.655a.665.665,0,0,0,.665-.665v-4.655h-1.33Z" transform="translate(7167.075 -6114.924)" fill="#fff" stroke="#fff" stroke-width="0.3"/>
    <path id="Path_571" data-name="Path 571" d="M7.509,308.64,1.33,314.825v-3.053H0v4.656a.665.665,0,0,0,.665.665H5.321v-1.33H2.268l6.179-6.179Z" transform="translate(7463.039 -6114.771)" fill="#fff" stroke="#fff" stroke-width="0.3"/>
    <path id="Path_581" data-name="Path 581" d="M22.042,54.6h0L18.86,51.418a.8.8,0,0,0-1.125,1.125l1.825,1.825H15.114a5.575,5.575,0,0,0-5.568,5.568,3.982,3.982,0,0,1-3.977,3.977H.8A.8.8,0,1,0,.8,65.5H5.568a5.575,5.575,0,0,0,5.568-5.568,3.982,3.982,0,0,1,3.977-3.977h4.444l-1.824,1.824a.8.8,0,1,0,1.1,1.144l.02-.02,3.182-3.182a.8.8,0,0,0,0-1.125Z" transform="translate(7414.047 -5867.337)" fill="#fff"/>
    <path id="Path_582" data-name="Path 582" d="M249.936,259.4h0l-3.182-3.182a.8.8,0,0,0-1.125,1.125l1.825,1.825H243.01a3.972,3.972,0,0,1-2.652-1.013.8.8,0,0,0-1.061,1.185,5.56,5.56,0,0,0,3.713,1.418h4.444l-1.824,1.824a.8.8,0,1,0,1.1,1.144l.02-.02,3.182-3.182a.8.8,0,0,0,0-1.124Z" transform="translate(7186.153 -6062.592)" fill="#fff"/>
    <path id="Path_583" data-name="Path 583" d="M9.282,120.69a5.56,5.56,0,0,0-3.713-1.418H.8a.8.8,0,1,0,0,1.591H5.568a3.972,3.972,0,0,1,2.652,1.013.8.8,0,0,0,1.061-1.185Z" transform="translate(7414.047 -5932.239)" fill="#fff"/>
    <path id="Chevron_Right_1_7" data-name="Chevron_Right_1_" d="M60.648,5.661,55.165.18a.616.616,0,1,0-.872.87L59.342,6.1l-5.048,5.046a.616.616,0,1,0,.872.87l5.483-5.481a.621.621,0,0,0,0-.874Z" transform="translate(7311.953 -5812.096)" fill="#0f4c82"/>
    <path id="Chevron_Right_1_8" data-name="Chevron_Right_1_" d="M60.648,5.661,55.165.18a.616.616,0,1,0-.872.87L59.342,6.1l-5.048,5.046a.616.616,0,1,0,.872.87l5.483-5.481a.621.621,0,0,0,0-.874Z" transform="translate(7317.673 -5812.096)"/>
    <path id="Path_8532" data-name="Path 8532" d="M29.369,11.381a3.074,3.074,0,0,0-2.474,1.26l-4.862-2.49a2.911,2.911,0,0,0-.091-2.014l5.089-3.062a3.1,3.1,0,1,0-.531-.881L21.4,7.265a3.08,3.08,0,1,0,.194,3.814l4.846,2.482a3.043,3.043,0,0,0-.151.9,3.085,3.085,0,1,0,3.085-3.085Z" transform="translate(7593.28 -5815)"/>
    <path id="Path_191-4" data-name="Path 191" d="M7.018,64.857c1.933,1.637,5.326,4.518,6.323,5.416a.589.589,0,0,0,.852,0c1-.9,4.391-3.78,6.324-5.417a.293.293,0,0,0,.041-.4A1.165,1.165,0,0,0,19.637,64H7.9a1.165,1.165,0,0,0-.921.452.293.293,0,0,0,.039.4Z" transform="translate(7670.369 -5874.189)" fill="#747474"/>
    <path id="Path_192-4" data-name="Path 192" d="M13.917,126.439a.292.292,0,0,0-.313.042c-2.144,1.818-4.881,4.147-5.742,4.923a1.188,1.188,0,0,1-1.638,0c-.918-.827-3.991-3.439-5.741-4.923a.293.293,0,0,0-.483.224v7.381a1.175,1.175,0,0,0,1.174,1.174H12.913a1.175,1.175,0,0,0,1.174-1.174v-7.381A.293.293,0,0,0,13.917,126.439Z" transform="translate(7677.092 -5934.883)" fill="#747474"/>
    <path id="Subtraction_19" data-name="Subtraction 19" d="M10149.8,11271.2h-12.727a2.078,2.078,0,0,1-2.078-2.079v-9.089a2.078,2.078,0,0,1,2.076-2.08h12.727a2.081,2.081,0,0,1,2.082,2.079v9.089a2.076,2.076,0,0,1-2.079,2.08Zm-10.175-5.966a2.875,2.875,0,0,0-2.061.871,2.952,2.952,0,0,0-.852,2.073.223.223,0,0,0,.065.158.219.219,0,0,0,.158.065h6.278a.215.215,0,0,0,.158-.064.222.222,0,0,0,.064-.159,2.937,2.937,0,0,0-.85-2.072,2.883,2.883,0,0,0-2.065-.872Zm6,1.1a.536.536,0,1,0,0,1.072h2.866a.536.536,0,1,0,0-1.07Zm0-2.292a.535.535,0,1,0,0,1.068h4.013a.535.535,0,0,0,0-1.068Zm-5.556-3.295a5,5,0,1,1,.029.053Zm5.556,1a.535.535,0,1,0,0,1.069h4.014a.535.535,0,0,0,0-1.07Z" transform="translate(-2425 -17069.383)" fill="#747474"/>
    <path id="Path_8556" data-name="Path 8556" d="M98.126,0h-6.1a2.165,2.165,0,0,0-2.171,2.171V15.2a2.178,2.178,0,0,0,2.171,2.171h6.1A2.165,2.165,0,0,0,100.3,15.2V2.171A2.165,2.165,0,0,0,98.126,0Zm-3.04,15.968a.987.987,0,1,1,.987-.987.977.977,0,0,1-.987.987Zm4.224-3.02H90.843V2.9H99.31Z" transform="translate(7562.364 -5813.801)" fill="#747474"/>
    <path id="Path_193-4" data-name="Path 193" d="M13.006,9.282a8.029,8.029,0,0,1-2.521-.4,1.152,1.152,0,0,0-1.121.236l-1.59,1.2a8.787,8.787,0,0,1-3.951-3.95l1.165-1.55A1.143,1.143,0,0,0,5.269,3.66a8.041,8.041,0,0,1-.4-2.526A1.136,1.136,0,0,0,3.732,0h-2.6A1.136,1.136,0,0,0,0,1.135,13.021,13.021,0,0,0,13.006,14.141a1.136,1.136,0,0,0,1.135-1.135v-2.59a1.136,1.136,0,0,0-1.135-1.134Z" transform="translate(7748.038 -5812.889)" fill="#747474"/>
    <g id="Group_971" data-name="Group 971" transform="translate(11332 -6131)">
      <path id="Path_9054" data-name="Path 9054" d="M13.574,1.941,2.125.2A1.846,1.846,0,0,0,.646.607,1.863,1.863,0,0,0,0,2V23.95a1.045,1.045,0,0,0,1.042,1.042H4.427V19.525A1.818,1.818,0,0,1,6.25,17.7h2.6a1.818,1.818,0,0,1,1.823,1.823v5.469H15.1V3.743a1.824,1.824,0,0,0-1.531-1.8ZM5.73,15.358H4.167a.781.781,0,1,1,0-1.563H5.73a.781.781,0,1,1,0,1.563Zm0-3.125H4.167a.781.781,0,1,1,0-1.563H5.73a.781.781,0,1,1,0,1.563Zm0-3.125H4.167a.781.781,0,1,1,0-1.563H5.73a.781.781,0,0,1,0,1.563Zm0-3.125H4.167a.781.781,0,1,1,0-1.563H5.73a.781.781,0,0,1,0,1.563Zm5.209,9.376H9.376a.781.781,0,0,1,0-1.563h1.563a.781.781,0,0,1,0,1.563Zm0-3.125H9.376a.781.781,0,0,1,0-1.563h1.563a.781.781,0,0,1,0,1.563Zm0-3.125H9.376a.781.781,0,0,1,0-1.563h1.563a.781.781,0,1,1,0,1.563Zm0-3.125H9.376a.781.781,0,1,1,0-1.563h1.563a.781.781,0,0,1,0,1.563Z" transform="translate(-4059 826.321)" fill="#fff"/>
      <path id="Path_9055" data-name="Path 9055" d="M22.917,10.9,15.5,9.351V24.612h7.032a1.825,1.825,0,0,0,1.823-1.823v-10.1A1.814,1.814,0,0,0,22.917,10.9ZM20.448,21.486H18.886a.781.781,0,0,1,0-1.563h1.563a.781.781,0,1,1,0,1.563Zm0-3.125H18.886a.781.781,0,0,1,0-1.563h1.563a.781.781,0,1,1,0,1.563Zm0-3.125H18.886a.782.782,0,0,1,0-1.563h1.563a.781.781,0,1,1,0,1.563Z" transform="translate(-4058.353 826.704)" fill="#fff"/>
    </g>
  </g>
</svg>
