<svg xmlns="http://www.w3.org/2000/svg" width="168.055" height="28" viewBox="0 0 168.055 28">
  <g id="Group_1034" data-name="Group 1034" transform="translate(-3413.945 8790)">
    <g id="Group_1003" data-name="Group 1003" transform="translate(2188 -240)">
      <g id="Ellipse_115" data-name="Ellipse 115" transform="translate(1319 -8550)" fill="none" stroke="#fff" stroke-width="1.5">
        <circle cx="14" cy="14" r="14" stroke="none"/>
        <circle cx="14" cy="14" r="13.25" fill="none"/>
      </g>
      <path id="plus_1_" data-name="plus (1)" d="M15.544,7.363H9V.818a.818.818,0,1,0-1.636,0V7.363H.818A.819.819,0,1,0,.818,9H7.363v6.545a.818.818,0,0,0,1.636,0V9h6.545a.818.818,0,1,0,0-1.636Zm0,0" transform="translate(1325 -8544)" fill="#fff"/>
    </g>
    <g id="Group_1002" data-name="Group 1002" transform="translate(2188 -240)">
      <g id="Ellipse_114" data-name="Ellipse 114" transform="translate(1366 -8550)" fill="none" stroke="#fff" stroke-width="1.5">
        <circle cx="14" cy="14" r="14" stroke="none"/>
        <circle cx="14" cy="14" r="13.25" fill="none"/>
      </g>
      <path id="plus_1_2" data-name="plus (1)" d="M15.544,7.363H.818A.819.819,0,1,0,.818,9C.861,9.011,9.03,9.017,9,9h6.545a.818.818,0,1,0,0-1.636Zm0,0" transform="translate(1372 -8544)" fill="#fff"/>
    </g>
    <g id="Group_1005" data-name="Group 1005" transform="translate(2188 -240)">
      <path id="Path_568" data-name="Path 568" d="M5.321,1.33V0H.665A.665.665,0,0,0,0,.665V5.321H1.33V2.268L7.509,8.447l.938-.938L2.268,1.33Z" transform="translate(1275.039 -8546.961)" fill="#fff" stroke="#fff" stroke-width="0.3"/>
      <path id="Path_569" data-name="Path 569" d="M316.581,0h-4.655V1.33h3.053L308.8,7.509l.938.938,6.179-6.179V5.321h1.33V.665A.665.665,0,0,0,316.581,0Z" transform="translate(979.075 -8546.961)" fill="#fff" stroke="#fff" stroke-width="0.3"/>
      <path id="Path_570" data-name="Path 570" d="M315.916,314.979l-6.179-6.179-.938.938,6.179,6.179h-3.053v1.33h4.655a.665.665,0,0,0,.665-.665v-4.655h-1.33Z" transform="translate(979.075 -8842.924)" fill="#fff" stroke="#fff" stroke-width="0.3"/>
      <path id="Path_571" data-name="Path 571" d="M7.509,308.64,1.33,314.825v-3.053H0v4.656a.665.665,0,0,0,.665.665H5.321v-1.33H2.268l6.179-6.179Z" transform="translate(1275.039 -8842.771)" fill="#fff" stroke="#fff" stroke-width="0.3"/>
    </g>
    <g id="Group_1004" data-name="Group 1004" transform="translate(2188 -240)">
      <path id="Path_581" data-name="Path 581" d="M22.042,54.6h0L18.86,51.418a.8.8,0,0,0-1.125,1.125l1.825,1.825H15.114a5.575,5.575,0,0,0-5.568,5.568,3.982,3.982,0,0,1-3.977,3.977H.8A.8.8,0,1,0,.8,65.5H5.568a5.575,5.575,0,0,0,5.568-5.568,3.982,3.982,0,0,1,3.977-3.977h4.444l-1.824,1.824a.8.8,0,1,0,1.1,1.144l.02-.02,3.182-3.182a.8.8,0,0,0,0-1.125Z" transform="translate(1226.047 -8595.338)" fill="#fff"/>
      <path id="Path_582" data-name="Path 582" d="M249.936,259.4h0l-3.182-3.182a.8.8,0,0,0-1.125,1.125l1.825,1.825H243.01a3.972,3.972,0,0,1-2.652-1.013.8.8,0,0,0-1.061,1.185,5.56,5.56,0,0,0,3.713,1.418h4.444l-1.824,1.824a.8.8,0,1,0,1.1,1.144l.02-.02,3.182-3.182a.8.8,0,0,0,0-1.124Z" transform="translate(998.152 -8790.592)" fill="#fff"/>
      <path id="Path_583" data-name="Path 583" d="M9.282,120.69a5.56,5.56,0,0,0-3.713-1.418H.8a.8.8,0,1,0,0,1.591H5.568a3.972,3.972,0,0,1,2.652,1.013.8.8,0,0,0,1.061-1.185Z" transform="translate(1226.047 -8660.238)" fill="#fff"/>
    </g>
  </g>
</svg>
