<svg xmlns="http://www.w3.org/2000/svg" width="152.137" height="26.023" viewBox="0 0 152.137 26.023">
  <g id="Group_1212" data-name="Group 1212" transform="translate(-2475 737)">
    <g id="Group_1206" data-name="Group 1206" transform="translate(2458.162 -748.688)">
      <g id="Group_1205" data-name="Group 1205" transform="translate(130.481 11.71)">
        <path id="Path_616" data-name="Path 616" d="M158.46,32.652a14.382,14.382,0,0,0,1.47-.01,2.4,2.4,0,0,0,2.24-2.079,10.672,10.672,0,0,0,.05-1.959.82.82,0,0,1,.22-.68c.86-.89,1.69-1.809,2.55-2.7a.453.453,0,0,0,.07-.65c-1.69-2.889-3.36-5.788-5.04-8.687-.09-.15-.17-.3-.24-.42a.442.442,0,0,0-.08-.03,1.333,1.333,0,0,1-.19.05,5.7,5.7,0,0,1-4.85-1.07,3.479,3.479,0,0,0-1.27-.61,4.27,4.27,0,0,0-3.03.45,48.9,48.9,0,0,0-7.52,4.718,2.032,2.032,0,0,0-.29,2.929.923.923,0,0,0,.67.33,4.677,4.677,0,0,0,1.63-.37c1.86-.95,3.68-1.959,5.51-2.969.49-.27.7-.25,1.07.15q4.605,5.068,9.21,10.126c.09.1.19.2.28.3.15-.13.26-.23.39-.34a2.343,2.343,0,0,1-1.4,2.469,1.427,1.427,0,0,1-1.67-.45c-.46-.55-.91-1.11-1.37-1.669-.61-.74-1.2-1.489-1.82-2.229-.38-.46-.89-.42-1.12.08a.746.746,0,0,0,.21.84q1.455,1.724,2.9,3.459a1.71,1.71,0,0,1,.33.66,1.254,1.254,0,0,1-.71,1.349,1.435,1.435,0,0,1-1.6-.28c-1.03-1.2-2.06-2.409-3.1-3.6-.1-.11-.26-.27-.36-.25a.863.863,0,0,0-.58.3.671.671,0,0,0,.11.6c.92,1.14,1.87,2.259,2.79,3.4a.936.936,0,0,1,.18.61,1.253,1.253,0,0,1-1.65,1.26c-.1-.02-.27-.03-.32.03-.22.3-.42.63-.63.96,2,.74,3.19.15,3.86-1.829C157.37,34.941,158.02,34.491,158.46,32.652ZM135.62,11.71a.842.842,0,0,0-.85.62q-2.1,5.473-4.19,10.946a.816.816,0,0,0,.52,1.21c.66.27,1.32.53,1.98.79a.811.811,0,0,0,1.21-.56q2.1-5.458,4.18-10.906a.816.816,0,0,0-.52-1.21c-.66-.27-1.32-.53-1.98-.79C135.83,11.76,135.69,11.73,135.62,11.71Zm26.98.9a2.013,2.013,0,0,0-.35.13q-1,.585-2.01,1.2a.775.775,0,0,0-.28,1.19q2.7,4.693,5.42,9.376a.757.757,0,0,0,1.19.32c.64-.37,1.27-.75,1.9-1.14a.807.807,0,0,0,.32-1.25c-.43-.75-.86-1.5-1.3-2.249-1.36-2.349-2.72-4.708-4.08-7.057A.847.847,0,0,0,162.6,12.61Zm-13.65,1.459c-.39-.22-.73-.42-1.07-.62a2.711,2.711,0,0,0-2.85-.06c-.82.45-1.66.87-2.48,1.329-1.4.78-1.57.79-2.62-.41-.52-.6-1.13-.32-1.36.28-.81,2.189-1.67,4.368-2.5,6.548-.43,1.14-.84,2.279-1.24,3.429a.906.906,0,0,0,.24,1.02c.68.69,1.33,1.419,1.99,2.129.32.35.64.7.98,1.07.28-.3.52-.57.77-.83-.83-.93-1.61-1.829-2.42-2.709a1.008,1.008,0,0,1-.23-1.19c1.06-2.739,2.09-5.488,3.13-8.237.01-.03.05-.05.09-.09.29.16.58.32.86.49a1.875,1.875,0,0,0,2.08.03c1.05-.61,2.15-1.13,3.19-1.759a1.84,1.84,0,0,1,2.07,0,.842.842,0,0,0,.21.11.446.446,0,0,0,.28,0A8.931,8.931,0,0,0,148.95,14.069Zm.77,17.743a1.739,1.739,0,0,0-1.03-1.439,1.219,1.219,0,0,0-1.5.35c-.87.93-1.74,1.859-2.6,2.8a1.36,1.36,0,0,0,.11,1.969,1.315,1.315,0,0,0,1.94.01c.89-.95,1.79-1.889,2.65-2.869A4.521,4.521,0,0,0,149.72,31.812Zm-8.31.21a1.794,1.794,0,0,0,1.11,1.459,1.145,1.145,0,0,0,1.43-.42l1.92-2.069a1.429,1.429,0,0,0-.68-2.469,1.05,1.05,0,0,0-1.12.29c-.78.84-1.56,1.659-2.32,2.519A2.773,2.773,0,0,0,141.41,32.022Zm8.7,1.349a2.864,2.864,0,0,0-.77.42,16.9,16.9,0,0,0-1.42,1.509,1.459,1.459,0,0,0,.07,1.969,1.381,1.381,0,0,0,1.96.06,19.786,19.786,0,0,0,1.47-1.569,1.344,1.344,0,0,0,.17-1.539A1.456,1.456,0,0,0,150.11,33.372Zm-9.57-5.808a4.227,4.227,0,0,0-.86.48,15.954,15.954,0,0,0-1.2,1.27,1.367,1.367,0,0,0,.12,1.909,1.328,1.328,0,0,0,1.88.01c.39-.4.77-.81,1.15-1.22a1.3,1.3,0,0,0,.26-1.489A1.644,1.644,0,0,0,140.54,27.564Z" transform="translate(-130.481 -11.71)" fill="#3eae5b"/>
        <path id="Path_617" data-name="Path 617" d="M158.46,32.652c-.45,1.849-1.09,2.3-3.1,2.2-.67,1.989-1.87,2.569-3.86,1.829.21-.33.4-.66.63-.96.04-.06.21-.04.32-.03a1.246,1.246,0,0,0,1.65-1.259.935.935,0,0,0-.18-.61c-.92-1.14-1.87-2.259-2.79-3.4a.675.675,0,0,1-.11-.6.932.932,0,0,1,.58-.3c.11-.02.27.14.36.25q1.56,1.8,3.1,3.6a1.439,1.439,0,0,0,1.6.28,1.242,1.242,0,0,0,.71-1.349,1.582,1.582,0,0,0-.33-.66q-1.44-1.739-2.9-3.459a.746.746,0,0,1-.21-.84c.23-.5.74-.54,1.12-.08.61.74,1.21,1.489,1.82,2.229.45.56.91,1.12,1.37,1.669a1.427,1.427,0,0,0,1.67.45,2.342,2.342,0,0,0,1.4-2.469c-.13.12-.25.21-.39.34-.09-.1-.19-.2-.28-.3q-4.605-5.068-9.21-10.126c-.37-.41-.58-.42-1.07-.15-1.83,1-3.65,2.019-5.51,2.969a4.729,4.729,0,0,1-1.63.37.941.941,0,0,1-.67-.33,2.032,2.032,0,0,1,.29-2.929,48.9,48.9,0,0,1,7.52-4.718,4.315,4.315,0,0,1,3.03-.45,3.327,3.327,0,0,1,1.27.61,5.7,5.7,0,0,0,4.85,1.07,1.332,1.332,0,0,0,.19-.05c.01,0,.02.01.08.03.07.12.16.27.24.42,1.68,2.9,3.35,5.8,5.04,8.686a.453.453,0,0,1-.07.65c-.86.89-1.69,1.8-2.55,2.7a.8.8,0,0,0-.22.68,10.671,10.671,0,0,1-.05,1.959,2.411,2.411,0,0,1-2.24,2.079C159.45,32.692,158.97,32.652,158.46,32.652Z" transform="translate(-130.481 -11.71)" fill="#3eae5b"/>
        <path id="Path_618" data-name="Path 618" d="M135.62,11.71c.07.02.21.05.35.1.66.26,1.32.52,1.98.79a.821.821,0,0,1,.52,1.21q-2.085,5.46-4.18,10.91a.815.815,0,0,1-1.21.56c-.66-.26-1.32-.52-1.98-.79a.821.821,0,0,1-.52-1.21q2.1-5.475,4.19-10.95A.842.842,0,0,1,135.62,11.71Z" transform="translate(-130.481 -11.71)" fill="#3eae5b"/>
        <path id="Path_619" data-name="Path 619" d="M162.6,12.61a.88.88,0,0,1,.82.53q2.04,3.54,4.08,7.06c.43.75.87,1.5,1.3,2.25a.8.8,0,0,1-.32,1.25c-.63.39-1.27.77-1.9,1.14a.757.757,0,0,1-1.19-.32q-2.715-4.695-5.42-9.38a.773.773,0,0,1,.28-1.19q.99-.615,2.01-1.2A1.054,1.054,0,0,1,162.6,12.61Z" transform="translate(-130.481 -11.71)" fill="#3eae5b"/>
        <path id="Path_620" data-name="Path 620" d="M148.95,14.07c-.33.21-.59.39-.86.54a.446.446,0,0,1-.28,0,1.06,1.06,0,0,1-.21-.11,1.858,1.858,0,0,0-2.07,0c-1.04.63-2.14,1.15-3.19,1.76a1.874,1.874,0,0,1-2.08-.03c-.28-.17-.57-.33-.86-.49-.04.03-.08.05-.09.09-1.04,2.75-2.08,5.49-3.13,8.24a1.018,1.018,0,0,0,.23,1.19c.81.88,1.6,1.78,2.42,2.71-.24.27-.49.53-.77.83-.34-.37-.66-.72-.98-1.07-.66-.71-1.3-1.44-1.99-2.13a.891.891,0,0,1-.24-1.02c.41-1.15.81-2.29,1.24-3.43.83-2.19,1.69-4.36,2.5-6.55a.751.751,0,0,1,1.36-.28c1.05,1.2,1.21,1.19,2.62.41.82-.45,1.66-.87,2.48-1.33a2.71,2.71,0,0,1,2.85.06C148.22,13.65,148.56,13.84,148.95,14.07Z" transform="translate(-130.481 -11.71)" fill="#3eae5b"/>
        <path id="Path_621" data-name="Path 621" d="M149.72,31.82a3.542,3.542,0,0,1-.43.82c-.87.97-1.76,1.92-2.65,2.87a1.314,1.314,0,0,1-1.94-.01,1.369,1.369,0,0,1-.11-1.97c.86-.94,1.73-1.87,2.6-2.8a1.219,1.219,0,0,1,1.5-.35A1.759,1.759,0,0,1,149.72,31.82Z" transform="translate(-130.481 -11.72)" fill="#3eae5b"/>
        <path id="Path_622" data-name="Path 622" d="M141.41,32.03a2.957,2.957,0,0,1,.34-.69c.76-.85,1.55-1.68,2.32-2.52a1.032,1.032,0,0,1,1.12-.29,1.433,1.433,0,0,1,.68,2.47l-1.92,2.07a1.148,1.148,0,0,1-1.43.42A1.832,1.832,0,0,1,141.41,32.03Z" transform="translate(-130.481 -11.718)" fill="#3eae5b"/>
        <path id="Path_623" data-name="Path 623" d="M150.11,33.38a1.5,1.5,0,0,1,1.49.83,1.36,1.36,0,0,1-.17,1.54,18.2,18.2,0,0,1-1.47,1.57,1.38,1.38,0,0,1-1.96-.06,1.46,1.46,0,0,1-.07-1.97,20.275,20.275,0,0,1,1.42-1.51A3.134,3.134,0,0,1,150.11,33.38Z" transform="translate(-130.481 -11.72)" fill="#3eae5b"/>
        <path id="Path_624" data-name="Path 624" d="M140.54,27.57a1.606,1.606,0,0,1,1.34.97,1.3,1.3,0,0,1-.26,1.49c-.38.41-.75.82-1.15,1.22a1.328,1.328,0,0,1-1.88-.01,1.369,1.369,0,0,1-.12-1.91,16.061,16.061,0,0,1,1.2-1.27A4.341,4.341,0,0,1,140.54,27.57Z" transform="translate(-130.481 -11.717)" fill="#3eae5b"/>
      </g>
    </g>
    <g id="Group_1208" data-name="Group 1208" transform="translate(2458.162 -748.688)">
      <g id="Group_1207" data-name="Group 1207" transform="translate(16.838 11.688)">
        <path id="Path_625" data-name="Path 625" d="M26.07,11.72h8.09a1.008,1.008,0,0,1,1.01.48.848.848,0,0,1-.76,1.269c-.54,0-.62.21-.61.68a10.808,10.808,0,0,1-.6,4.538,11.17,11.17,0,0,1-3.73,4.548c-.39.3-.8.58-1.2.88-.52.4-.51.79,0,1.209.98.8,2.02,1.559,2.92,2.439a8.437,8.437,0,0,1,2.6,6.377v.74c.01.3-.08.65.06.87.1.16.49.15.74.21a.81.81,0,0,1,.65.83.778.778,0,0,1-.62.84,1.947,1.947,0,0,1-.54.06H18.01a1.033,1.033,0,0,1-1.06-.48.865.865,0,0,1,.85-1.279c.5.01.61-.17.6-.63a11.142,11.142,0,0,1,.53-4.4,10.594,10.594,0,0,1,3.3-4.328c.52-.43,1.08-.82,1.62-1.229.63-.47.61-.82,0-1.319a38.924,38.924,0,0,1-3.08-2.639,8.274,8.274,0,0,1-2.38-5.967c0-.48-.02-.96.01-1.439.02-.39-.1-.54-.5-.52a.856.856,0,0,1-1-.62.878.878,0,0,1,.88-1.139c.61-.02,1.22-.01,1.84-.01C21.77,11.72,23.92,11.72,26.07,11.72Zm.05,1.769h0c-2.02,0-4.03.01-6.05-.01-.4,0-.52.12-.5.51.03.51.01,1.03.01,1.539A7.078,7.078,0,0,0,21.09,20a15.177,15.177,0,0,0,3.52,3.168,1.792,1.792,0,0,1,.01,3.069c-.48.35-.97.69-1.43,1.069a9.68,9.68,0,0,0-3.16,4,11.448,11.448,0,0,0-.45,4.108c-.01.38.1.53.5.52.84-.02,1.69-.01,2.53-.01,3.14,0,6.28-.01,9.42.01.47,0,.71-.08.65-.62a12.879,12.879,0,0,1-.01-1.389,7.318,7.318,0,0,0-1.62-4.638,15.236,15.236,0,0,0-3.39-3.019,1.818,1.818,0,0,1-.01-3.138c.68-.49,1.36-1,2-1.549a7.712,7.712,0,0,0,2.81-4.438c.18-1.02.13-2.069.21-3.109.04-.48-.15-.58-.59-.57C30.09,13.5,28.1,13.489,26.12,13.489Z" transform="translate(-16.838 -11.688)" fill="#c71829"/>
        <path id="Path_626" data-name="Path 626" d="M26.06,22.74c-.83-.64-1.68-1.27-2.49-1.95a7.648,7.648,0,0,1-2.47-3.35h9.91C30.16,19.97,27.97,21.22,26.06,22.74Z" transform="translate(-16.838 -11.691)" fill="#c71829"/>
        <path id="Path_627" data-name="Path 627" d="M31.23,34.62H20.9c.26-1.9,2.72-3.72,5.08-3.77C28.36,30.81,30.9,32.61,31.23,34.62Z" transform="translate(-16.838 -11.7)" fill="#c71829"/>
        <path id="Path_628" data-name="Path 628" d="M26.87,27.21c-.37.25-.57.5-.81.53-.32.05-.54-.21-.56-.55-.02-.3.32-.66.59-.57A4.778,4.778,0,0,1,26.87,27.21Z" transform="translate(-16.838 -11.695)" fill="#c71829"/>
        <path id="Path_629" data-name="Path 629" d="M26.72,29.42c-.22.15-.42.39-.66.43a.469.469,0,0,1-.55-.54.819.819,0,0,1,.55-.55c.2-.02.43.28.65.44A1.62,1.62,0,0,1,26.72,29.42Z" transform="translate(-16.838 -11.696)" fill="#c71829"/>
      </g>
    </g>
    <g id="Group_1210" data-name="Group 1210" transform="translate(2458.162 -748.688)">
      <g id="Group_1209" data-name="Group 1209">
        <path id="Path_630" data-name="Path 630" d="M56.38,11.71c1.2.64,2.37,1.25,3.65,1.93-1.27.67-2.43,1.28-3.66,1.94-.03-.42-.05-.76-.09-1.19-.26.06-.48.11-.7.17a10.6,10.6,0,0,0,.2,20.38c.46.12.63.31.58.76a7.136,7.136,0,0,0-.01.81c-.2-.03-.33-.03-.45-.06a12.035,12.035,0,0,1-.46-23.33c.84-.24.84-.24.89-1.13A1.077,1.077,0,0,1,56.38,11.71Z" fill="#196be5"/>
        <path id="Path_631" data-name="Path 631" d="M60.95,37.71c-1.22-.65-2.38-1.26-3.67-1.94,1.27-.67,2.43-1.29,3.68-1.95.02.44.04.78.06,1.2.23-.05.41-.07.58-.12a10.613,10.613,0,0,0,.05-20.35c-.77-.23-.77-.23-.77-1.06,0-.17.02-.33.03-.56a10.11,10.11,0,0,1,3.19,1.08,12.027,12.027,0,0,1-2.28,22.3c-.8.23-.8.23-.83,1.07C60.98,37.46,60.97,37.53,60.95,37.71Z" fill="#196be5"/>
        <path id="Path_632" data-name="Path 632" d="M58.59,30.97c-1.06,0-2.13-.01-3.19.01-.46.01-.69-.18-.69-.62s.19-.65.66-.64c2.16.02,4.32.01,6.48,0,.47,0,.67.22.66.65s-.23.63-.69.62C60.75,30.95,59.67,30.97,58.59,30.97Z" fill="#196be5"/>
        <path id="Path_633" data-name="Path 633" d="M58.62,19.96c-1.08,0-2.16-.01-3.24.01-.46.01-.67-.2-.67-.64s.22-.64.68-.63c2.14.01,4.29.01,6.43,0,.45,0,.68.16.7.61s-.19.65-.71.65Z" fill="#196be5"/>
        <path id="Path_634" data-name="Path 634" d="M58.68,26.08c.17.75.85,1.19,1.4,1.73a3.031,3.031,0,0,1,1.05,1.57H55.99a10.746,10.746,0,0,1,.7-1.11c.28-.34.65-.61.95-.94C58.01,26.93,58.34,26.49,58.68,26.08Z" fill="#196be5"/>
        <path id="Path_635" data-name="Path 635" d="M61.45,20.24h.46a3.081,3.081,0,0,1-.7,2.73c-.39.38-.77.78-1.15,1.18-.66.69-.66.73.01,1.45.47.5.93,1,1.38,1.52a2.715,2.715,0,0,1,.47,2.05c0,.08-.16.22-.25.22s-.19-.13-.27-.21c-.02-.02-.01-.07-.01-.1a2.835,2.835,0,0,0-1.16-2.5c-.32-.31-.62-.64-.91-.98a.955.955,0,0,1,.03-1.5c.38-.42.76-.84,1.18-1.22a2.434,2.434,0,0,0,.85-2.16c-.01-.12,0-.24,0-.36A.747.747,0,0,0,61.45,20.24Z" fill="#196be5"/>
        <path id="Path_636" data-name="Path 636" d="M55.7,20.13a2.368,2.368,0,0,1,.13.2,3.254,3.254,0,0,0,1.38,3.08,6.825,6.825,0,0,1,.74.78.9.9,0,0,1,.01,1.34c-.41.48-.85.95-1.3,1.39a2.431,2.431,0,0,0-.83,2.02c.02.21.07.52-.29.44-.11-.02-.23-.28-.25-.44a2.685,2.685,0,0,1,.84-2.28c.44-.43.84-.9,1.28-1.34a.566.566,0,0,0-.01-.92c-.44-.44-.85-.9-1.3-1.32a2.95,2.95,0,0,1-.8-2.6C55.31,20.36,55.55,20.26,55.7,20.13Z" fill="#196be5"/>
        <path id="Path_637" data-name="Path 637" d="M58.67,24.45c-.26-.39-.52-.8-.81-1.18s-.62-.71-.92-1.1a3.781,3.781,0,0,0,3.4-.11C59.82,23.02,58.77,23.47,58.67,24.45Z" fill="#196be5"/>
      </g>
    </g>
    <g id="Group_1211" data-name="Group 1211" transform="translate(2458.162 -748.688)">
      <path id="Path_638" data-name="Path 638" d="M117.69,26.35c1.18-.46,2.21-.9,3.28-1.26.25-.08.58.09.88.14-.16.25-.26.61-.49.72-.96.44-1.95.81-2.94,1.2-1.13.45-1.34.36-1.79-.71-.13-.31-.26-.61-.52-1.25a20.224,20.224,0,0,0-1.36,1.6.706.706,0,0,0,.15.68,2.317,2.317,0,0,1,.67,3.05,2.581,2.581,0,0,1-3.01,1.18.509.509,0,0,0-.2.04c-.9,2.1-1.77,2.53-3.76,1.85-1.04,2.6-1.66,2.86-4.37,1.86-.7,2.28-1.95,2.8-4.18,1.71a2.239,2.239,0,0,0-1.92-.27c-1.25.43-2.25-.3-2.81-1.8-1.99-.02-2.62-.46-3.26-2.33-2.13.2-3.09-.7-3.01-2.83-2.03-1.04-2.34-1.77-1.43-3.55-.35-.12-.68-.23-.97-.33-.12.09-.21.12-.22.17-.71,2.34-.75,2.1-2.89,1.35a7.1,7.1,0,0,1-1.25-.44,4.762,4.762,0,0,1-.82-.8,4,4,0,0,1,1.18-.08c.79.19,1.56.49,2.42.77.86-2.69,1.69-5.32,2.53-7.95.32-1.02.6-2.05.96-3.05.22-.59.04-.81-.55-1q-2.9-.9-5.74-1.92c-.33-.12-.54-.53-.81-.8a2.793,2.793,0,0,1,1.09-.12c1.93.6,3.83,1.26,5.75,1.9,1.61.54,1.61.53,1.38,2.21.78.14,1.56.33,2.36.41,1.26.13,2.54.24,3.81.26a2.873,2.873,0,0,0,1.2-.46,9.931,9.931,0,0,1,1.72-.93c1.25-.35,2.56-.49,3.81-.83a4.558,4.558,0,0,1,3.19.29c1.21.55,2.5.95,3.68,1.55a3.094,3.094,0,0,0,3.1.02c-.15-1.55-.15-1.55,1.51-2.16,2.18-.81,4.35-1.63,6.55-2.4a3.573,3.573,0,0,1,1.26.02c-.29.29-.53.72-.88.86-2.45.96-4.92,1.86-7.5,2.82C114.89,19.28,116.27,22.77,117.69,26.35ZM103.2,20.5c-.37,0-.68.02-.98,0a3.332,3.332,0,0,0-2.76.88,4.5,4.5,0,0,1-5.28.28c-.62-.38-.79-.76-.26-1.36.61-.69,1.18-1.43,1.84-2.25-2.28-.24-4.37-.47-6.56-.71-.78,2.48-1.59,5.04-2.42,7.65.8.27,1.42.65,2.35.22,1.19-.56,2.11.13,2.83,1.66a6.986,6.986,0,0,1,2.06.89,6.682,6.682,0,0,1,1,1.94,2.509,2.509,0,0,1,2.68,2.23c2.66.16,3.43,1.64,2.05,3.95.36.19.72.38,1.08.56,1.02.49,1.69.34,2.11-.43.52-.95-.03-1.36-.85-1.73-.25-.11-.36-.52-.53-.79.33-.03.72-.18.98-.06.97.42,1.89.95,2.84,1.4a1.219,1.219,0,0,0,1.82-.52c.38-.74.42-1.41-.58-1.75a2.136,2.136,0,0,1-.72-.37,6.3,6.3,0,0,1-.69-.84,3.182,3.182,0,0,1,1.15-.01c1.01.42,1.95.97,2.95,1.42a1.328,1.328,0,0,0,1.79-.69,1,1,0,0,0-.69-1.48,10.4,10.4,0,0,1-1.82-.93c-.25-.16-.35-.54-.51-.81.33-.02.71-.16.97-.04,1.21.56,2.37,1.2,3.56,1.78a1.5,1.5,0,0,0,2.06-.51,1.335,1.335,0,0,0-.66-1.94c-2.33-1.28-4.64-2.61-7.03-3.77A6.848,6.848,0,0,1,103.2,20.5Zm10.06,6.09c.81-.73,1.49-1.3,2.12-1.92a.851.851,0,0,0,.24-.73c-.81-2.11-1.66-4.2-2.51-6.32a4.413,4.413,0,0,0-.87.18,3.283,3.283,0,0,1-2.94-.19,40.481,40.481,0,0,0-3.97-1.65c-2.52-.89-4.79.46-7.17.83-.03,0-.05.05-.07.07-1.09,1.31-2.17,2.63-3.27,3.96,1.57.82,3.15.78,4.16-.36a2.852,2.852,0,0,1,2.61-.94,13.358,13.358,0,0,0,1.55,0,.9.9,0,0,1,1.09.75,4.848,4.848,0,0,0,2.98,3.11c.81.34,1.65.33,2.42,1.13C110.6,25.53,112.2,26.02,113.26,26.59Zm-22,5.21c1.05.03,2.62-1.85,2.37-2.84a1.263,1.263,0,0,0-2.06-.57,7.681,7.681,0,0,0-1.33,1.52A1.209,1.209,0,0,0,91.26,31.8Zm5.26.16a1.331,1.331,0,0,0-1.35-1.24,3.18,3.18,0,0,0-1.98,2.09,1.434,1.434,0,0,0,1.33,1.29A2.756,2.756,0,0,0,96.52,31.96Zm2.9,1.84a3.772,3.772,0,0,0-1.16-.77c-.64-.16-1.82,1.14-1.8,1.86a1.048,1.048,0,0,0,1.08,1.09C98.22,36.03,99.39,34.88,99.42,33.8Zm-8.43-6.96c-.41-.25-1.03-.81-1.19-.7a4.326,4.326,0,0,0-1.58,1.6c-.25.51.29.97.95,1.01C89.75,28.77,90.83,27.67,90.99,26.84Z" fill="#3dae5b"/>
      <path id="Path_639" data-name="Path 639" d="M117.51,26.08c1.18-.46,2.21-.9,3.28-1.26.25-.08.58.09.88.14-.16.25-.26.61-.49.72-.96.44-1.95.81-2.94,1.2-1.13.45-1.34.36-1.79-.71-.13-.31-.26-.61-.52-1.25a20.224,20.224,0,0,0-1.36,1.6.706.706,0,0,0,.15.68,2.317,2.317,0,0,1,.67,3.05,2.581,2.581,0,0,1-3.01,1.18.509.509,0,0,0-.2.04c-.9,2.1-1.77,2.53-3.76,1.85-1.04,2.6-1.66,2.86-4.37,1.86-.7,2.28-1.95,2.8-4.18,1.71a2.239,2.239,0,0,0-1.92-.27c-1.25.43-2.25-.3-2.81-1.8-1.99-.02-2.62-.46-3.26-2.33-2.13.2-3.09-.7-3.01-2.83-2.03-1.04-2.34-1.77-1.43-3.55-.35-.12-.68-.23-.97-.33-.12.09-.21.12-.22.17-.71,2.34-.75,2.1-2.89,1.35a7.1,7.1,0,0,1-1.25-.44,4.762,4.762,0,0,1-.82-.8,4,4,0,0,1,1.18-.08c.79.19,1.56.49,2.42.77.86-2.69,1.69-5.32,2.53-7.95.32-1.02.6-2.05.96-3.05.22-.59.04-.81-.55-1q-2.9-.9-5.74-1.92c-.33-.12-.54-.53-.81-.8a2.793,2.793,0,0,1,1.09-.12c1.93.6,3.83,1.26,5.75,1.9,1.61.54,1.61.53,1.38,2.21.78.14,1.56.33,2.36.41,1.26.13,2.54.24,3.81.26a2.873,2.873,0,0,0,1.2-.46,9.931,9.931,0,0,1,1.72-.93c1.25-.35,2.56-.49,3.81-.83a4.558,4.558,0,0,1,3.19.29c1.21.55,2.5.95,3.68,1.55a3.094,3.094,0,0,0,3.1.02c-.15-1.55-.15-1.55,1.51-2.16,2.18-.81,4.35-1.63,6.55-2.4a3.573,3.573,0,0,1,1.26.02c-.29.29-.53.72-.88.86-2.45.96-4.92,1.86-7.5,2.82C114.7,19.01,116.08,22.5,117.51,26.08Zm-14.49-5.85c-.37,0-.68.02-.98,0a3.332,3.332,0,0,0-2.76.88,4.5,4.5,0,0,1-5.28.28c-.62-.38-.79-.76-.26-1.36.61-.69,1.18-1.43,1.84-2.25-2.28-.24-4.37-.47-6.56-.71-.78,2.48-1.59,5.04-2.42,7.65.8.27,1.42.65,2.35.22,1.19-.56,2.11.13,2.83,1.66a6.986,6.986,0,0,1,2.06.89,6.682,6.682,0,0,1,1,1.94,2.509,2.509,0,0,1,2.68,2.23c2.66.16,3.43,1.64,2.05,3.95.36.19.72.38,1.08.56,1.02.49,1.69.34,2.11-.43.52-.95-.03-1.36-.85-1.73-.25-.11-.36-.52-.53-.79.33-.03.72-.18.98-.06.97.42,1.89.95,2.84,1.4a1.219,1.219,0,0,0,1.82-.52c.38-.74.42-1.41-.58-1.75a2.136,2.136,0,0,1-.72-.37,6.3,6.3,0,0,1-.69-.84,3.182,3.182,0,0,1,1.15-.01c1.01.42,1.95.97,2.95,1.42a1.328,1.328,0,0,0,1.79-.69,1,1,0,0,0-.69-1.48,10.4,10.4,0,0,1-1.82-.93c-.25-.16-.35-.54-.51-.81.33-.02.71-.16.97-.04,1.21.56,2.37,1.2,3.56,1.78a1.5,1.5,0,0,0,2.06-.51,1.335,1.335,0,0,0-.66-1.94c-2.33-1.28-4.64-2.61-7.03-3.77A6.817,6.817,0,0,1,103.02,20.23Zm10.05,6.08c.81-.73,1.49-1.3,2.12-1.92a.851.851,0,0,0,.24-.73c-.81-2.11-1.66-4.2-2.51-6.32a4.413,4.413,0,0,0-.87.18,3.283,3.283,0,0,1-2.94-.19,40.481,40.481,0,0,0-3.97-1.65c-2.52-.89-4.79.46-7.17.83-.03,0-.05.05-.07.07-1.09,1.31-2.17,2.63-3.27,3.96,1.57.82,3.15.78,4.16-.36a2.852,2.852,0,0,1,2.61-.94,13.358,13.358,0,0,0,1.55,0,.9.9,0,0,1,1.09.75,4.848,4.848,0,0,0,2.98,3.11c.81.34,1.65.33,2.42,1.13C110.41,25.26,112.01,25.74,113.07,26.31Zm-22,5.22c1.05.03,2.62-1.85,2.37-2.84a1.263,1.263,0,0,0-2.06-.57,7.681,7.681,0,0,0-1.33,1.52A1.214,1.214,0,0,0,91.07,31.53Zm5.27.15a1.331,1.331,0,0,0-1.35-1.24,3.18,3.18,0,0,0-1.98,2.09,1.434,1.434,0,0,0,1.33,1.29A2.757,2.757,0,0,0,96.34,31.68Zm2.89,1.84a3.772,3.772,0,0,0-1.16-.77c-.64-.16-1.82,1.14-1.8,1.86a1.048,1.048,0,0,0,1.08,1.09C98.03,35.76,99.2,34.6,99.23,33.52ZM90.8,26.57c-.41-.25-1.03-.81-1.19-.7a4.326,4.326,0,0,0-1.58,1.6c-.25.51.29.97.95,1.01C89.56,28.49,90.65,27.4,90.8,26.57Z" fill="#3dae5b"/>
    </g>
  </g>
</svg>
