<svg xmlns="http://www.w3.org/2000/svg" width="800" height="600" viewBox="0 0 800 600">
  <g id="Group_1124" data-name="Group 1124" transform="translate(-3408 11612)">
    <g id="icons" transform="translate(3408 -11612)" fill="#fff" stroke="#707070" stroke-width="1" opacity="0">
      <rect width="800" height="600" stroke="none"/>
      <rect x="0.5" y="0.5" width="799" height="599" fill="none"/>
    </g>
    <path id="Path_196" data-name="Path 196" d="M11.632,0A11.631,11.631,0,1,0,23.264,11.632,11.631,11.631,0,0,0,11.632,0Zm0,3.478A3.847,3.847,0,1,1,7.785,7.325a3.847,3.847,0,0,1,3.847-3.847Zm0,16.744a8.537,8.537,0,0,1-5.559-2.05A1.639,1.639,0,0,1,5.5,16.927a3.88,3.88,0,0,1,3.9-3.879h4.477a3.874,3.874,0,0,1,3.893,3.879,1.635,1.635,0,0,1-.575,1.246,8.534,8.534,0,0,1-5.566,2.05Z" transform="translate(3430 -11292.001)" fill="#fff"/>
    <path id="Path_197" data-name="Path 197" d="M12.18,64.183a.745.745,0,0,0-.545-.23H.776a.745.745,0,0,0-.545.23.761.761,0,0,0,0,1.091L5.66,70.7a.761.761,0,0,0,1.091,0l5.43-5.43a.761.761,0,0,0,0-1.091Z" transform="translate(3480.59 -11346.953)" fill="#fff"/>
    <path id="Path_228" data-name="Path 228" d="M6.57,12.883a.581.581,0,0,1-.823,0L2.463,9.6a.872.872,0,0,1,0-1.234l.411-.411a.872.872,0,0,1,1.234,0L6.159,10,11.7,4.462a.872.872,0,0,1,1.234,0l.411.411a.872.872,0,0,1,0,1.234Z" transform="translate(3512.793 -11288.206)" fill="#009714"/>
    <path id="Path_393" data-name="Path 393" d="M37.154,15.4a.746.746,0,0,0-1.055,0l-6.7,6.7-3.085-3.085a.746.746,0,1,0-1.055,1.055l3.613,3.613a.746.746,0,0,0,1.055,0l7.224-7.226a.746.746,0,0,0,0-1.057Z" transform="translate(3543.447 -11302.213)" fill="#888"/>
    <path id="Path_394" data-name="Path 394" d="M12.991,11.415a.746.746,0,0,0-.746.746V17.69H1.492V6.937h8.514a.746.746,0,1,0,0-1.492H.746A.746.746,0,0,0,0,6.191V18.436a.746.746,0,0,0,.746.746H12.991a.746.746,0,0,0,.746-.746V12.161A.746.746,0,0,0,12.991,11.415Z" transform="translate(3566 -11293.445)" fill="#888"/>
    <path id="Path_395" data-name="Path 395" d="M5.35,0H1.012A1.013,1.013,0,0,0,0,1.012v2.6A1.013,1.013,0,0,0,1.012,4.627H5.35A1.013,1.013,0,0,0,6.363,3.615v-2.6A1.013,1.013,0,0,0,5.35,0Zm0,0" transform="translate(3596 -11288.145)" fill="#888"/>
    <path id="Path_396" data-name="Path 396" d="M5.35,213.332H1.012A1.013,1.013,0,0,0,0,214.344v6.073a1.013,1.013,0,0,0,1.012,1.012H5.35a1.013,1.013,0,0,0,1.012-1.012v-6.073A1.013,1.013,0,0,0,5.35,213.332Zm0,0" transform="translate(3596 -11495.691)" fill="#888"/>
    <path id="Path_397" data-name="Path 397" d="M282.682,341.332h-4.338a1.013,1.013,0,0,0-1.012,1.012v2.6a1.013,1.013,0,0,0,1.012,1.012h4.338a1.013,1.013,0,0,0,1.012-1.012v-2.6a1.013,1.013,0,0,0-1.012-1.012Zm0,0" transform="translate(3326.188 -11620.223)" fill="#888"/>
    <path id="Path_398" data-name="Path 398" d="M282.682,0h-4.338a1.013,1.013,0,0,0-1.012,1.012V7.085A1.013,1.013,0,0,0,278.344,8.1h4.338a1.013,1.013,0,0,0,1.012-1.012V1.012A1.013,1.013,0,0,0,282.682,0Zm0,0" transform="translate(3326.188 -11288.145)" fill="#888"/>
    <path id="Path_399" data-name="Path 399" d="M183.044,8.591a4.3,4.3,0,1,0-4.3-4.3A4.3,4.3,0,0,0,183.044,8.591Zm-.509-6.82V1.654a.509.509,0,1,1,1.017,0v.117a1.345,1.345,0,0,1,1.061,1.313.509.509,0,1,1-1.017,0,.326.326,0,0,0-.326-.326h-.456a.325.325,0,0,0-.194.587l.423.313,1.028.761a1.348,1.348,0,0,1,.544,1.07h0a1.344,1.344,0,0,1-1.064,1.323v.119a.509.509,0,1,1-1.017,0V6.82a1.343,1.343,0,0,1-1.06-1.3.509.509,0,0,1,.507-.52h0a.509.509,0,0,1,.509.506.325.325,0,0,0,.327.324h.455a.325.325,0,0,0,.328-.33h0a.327.327,0,0,0-.132-.259l-.423-.313-1.029-.761a1.343,1.343,0,0,1,.52-2.393Z" transform="translate(3451.191 -11290)" fill="#888"/>
    <path id="Path_400" data-name="Path 400" d="M6.826,318.638a.474.474,0,0,0-.647-.173l-2.393,1.381a.475.475,0,0,0-.173.648l2.446,4.236a.474.474,0,0,0,.647.173L9.1,323.521a.474.474,0,0,0,.173-.647Z" transform="translate(3620.451 -11597.604)" fill="#888"/>
    <path id="Path_401" data-name="Path 401" d="M148.755,272.917a.713.713,0,0,0-1-.162l-2.978,2.146a1.8,1.8,0,0,1-.214.157,1.846,1.846,0,0,1-.987.283h-2.437a.509.509,0,0,1,0-1.017h2.606a.674.674,0,0,0,.674-.7.685.685,0,0,0-.69-.646H141.75a3.3,3.3,0,0,0-.439-.389,3.254,3.254,0,0,0-1.938-.636,3.589,3.589,0,0,0-3.1,1.9l2.081,3.6h3.9a4.381,4.381,0,0,0,2.186-.578,8.754,8.754,0,0,0,.744-.483c1.12-.8,3.409-2.476,3.411-2.477a.713.713,0,0,0,.165-1Z" transform="translate(3492.232 -11552.729)" fill="#888"/>
    <path id="Path_393-2" data-name="Path 393" d="M37.154,15.4a.746.746,0,0,0-1.055,0l-6.7,6.7-3.085-3.085a.746.746,0,1,0-1.055,1.055l3.613,3.613a.746.746,0,0,0,1.055,0l7.224-7.226a.746.746,0,0,0,0-1.057Z" transform="translate(3543.447 -11270.213)" fill="#fff"/>
    <path id="Path_394-2" data-name="Path 394" d="M12.991,11.415a.746.746,0,0,0-.746.746V17.69H1.492V6.937h8.514a.746.746,0,1,0,0-1.492H.746A.746.746,0,0,0,0,6.191V18.436a.746.746,0,0,0,.746.746H12.991a.746.746,0,0,0,.746-.746V12.161A.746.746,0,0,0,12.991,11.415Z" transform="translate(3566 -11261.445)" fill="#fff"/>
    <path id="Path_395-2" data-name="Path 395" d="M5.35,0H1.012A1.013,1.013,0,0,0,0,1.012v2.6A1.013,1.013,0,0,0,1.012,4.627H5.35A1.013,1.013,0,0,0,6.363,3.615v-2.6A1.013,1.013,0,0,0,5.35,0Zm0,0" transform="translate(3596 -11256.145)" fill="#fff"/>
    <path id="Path_396-2" data-name="Path 396" d="M5.35,213.332H1.012A1.013,1.013,0,0,0,0,214.344v6.073a1.013,1.013,0,0,0,1.012,1.012H5.35a1.013,1.013,0,0,0,1.012-1.012v-6.073A1.013,1.013,0,0,0,5.35,213.332Zm0,0" transform="translate(3596 -11463.691)" fill="#fff"/>
    <path id="Path_397-2" data-name="Path 397" d="M282.682,341.332h-4.338a1.013,1.013,0,0,0-1.012,1.012v2.6a1.013,1.013,0,0,0,1.012,1.012h4.338a1.013,1.013,0,0,0,1.012-1.012v-2.6a1.013,1.013,0,0,0-1.012-1.012Zm0,0" transform="translate(3326.188 -11588.223)" fill="#fff"/>
    <path id="Path_398-2" data-name="Path 398" d="M282.682,0h-4.338a1.013,1.013,0,0,0-1.012,1.012V7.085A1.013,1.013,0,0,0,278.344,8.1h4.338a1.013,1.013,0,0,0,1.012-1.012V1.012A1.013,1.013,0,0,0,282.682,0Zm0,0" transform="translate(3326.188 -11256.145)" fill="#fff"/>
    <path id="Path_399-2" data-name="Path 399" d="M183.044,8.591a4.3,4.3,0,1,0-4.3-4.3A4.3,4.3,0,0,0,183.044,8.591Zm-.509-6.82V1.654a.509.509,0,1,1,1.017,0v.117a1.345,1.345,0,0,1,1.061,1.313.509.509,0,1,1-1.017,0,.326.326,0,0,0-.326-.326h-.456a.325.325,0,0,0-.194.587l.423.313,1.028.761a1.348,1.348,0,0,1,.544,1.07h0a1.344,1.344,0,0,1-1.064,1.323v.119a.509.509,0,1,1-1.017,0V6.82a1.343,1.343,0,0,1-1.06-1.3.509.509,0,0,1,.507-.52h0a.509.509,0,0,1,.509.506.325.325,0,0,0,.327.324h.455a.325.325,0,0,0,.328-.33h0a.327.327,0,0,0-.132-.259l-.423-.313-1.029-.761a1.343,1.343,0,0,1,.52-2.393Z" transform="translate(3451.191 -11258)" fill="#fff"/>
    <path id="Path_400-2" data-name="Path 400" d="M6.826,318.638a.474.474,0,0,0-.647-.173l-2.393,1.381a.475.475,0,0,0-.173.648l2.446,4.236a.474.474,0,0,0,.647.173L9.1,323.521a.474.474,0,0,0,.173-.647Z" transform="translate(3620.451 -11565.604)" fill="#fff"/>
    <path id="Path_401-2" data-name="Path 401" d="M148.755,272.917a.713.713,0,0,0-1-.162l-2.978,2.146a1.8,1.8,0,0,1-.214.157,1.846,1.846,0,0,1-.987.283h-2.437a.509.509,0,0,1,0-1.017h2.606a.674.674,0,0,0,.674-.7.685.685,0,0,0-.69-.646H141.75a3.3,3.3,0,0,0-.439-.389,3.254,3.254,0,0,0-1.938-.636,3.589,3.589,0,0,0-3.1,1.9l2.081,3.6h3.9a4.381,4.381,0,0,0,2.186-.578,8.754,8.754,0,0,0,.744-.483c1.12-.8,3.409-2.476,3.411-2.477a.713.713,0,0,0,.165-1Z" transform="translate(3492.232 -11520.729)" fill="#fff"/>
    <path id="Path_228-2" data-name="Path 228" d="M6.57,12.883a.581.581,0,0,1-.823,0L2.463,9.6a.872.872,0,0,1,0-1.234l.411-.411a.872.872,0,0,1,1.234,0L6.159,10,11.7,4.462a.872.872,0,0,1,1.234,0l.411.411a.872.872,0,0,1,0,1.234Z" transform="translate(3512.793 -11258.206)" fill="#888"/>
    <path id="checked" d="M0,70.029l4.7,4.71,9.027-9.018-1.3-1.278L4.7,72.165,1.278,68.742Z" transform="translate(3483.279 -11318.428)" fill="#fff3f3"/>
    <path id="Path_260" data-name="Path 260" d="M9.142,98.725c-3.494,0-6.662,2.1-9,5.522a.862.862,0,0,0,0,.951c2.338,3.422,5.506,5.526,9,5.526s6.662-2.1,9-5.522a.862.862,0,0,0,0-.951C15.8,100.829,12.636,98.725,9.142,98.725Zm.251,10.225a4.252,4.252,0,0,1-.5-8.45,4.252,4.252,0,0,1,.5,8.45ZM9.277,107a2.29,2.29,0,0,1-.266-4.55A2.29,2.29,0,0,1,9.277,107Z" transform="translate(3688 -11386.725)" fill="#fff"/>
    <circle id="Ellipse_46" data-name="Ellipse 46" cx="7" cy="7" r="7" transform="translate(3657 -11289)" fill="#fff"/>
    <path id="checked-2" data-name="checked" d="M0,68.1l3.211,3.084,6.166-5.9-.885-.837L3.211,69.5.873,67.258Z" transform="translate(3659.328 -11349.314)" fill="#e41739"/>
    <g id="Ellipse_73" data-name="Ellipse 73" transform="translate(3657 -11256)" fill="#fff" stroke="#000" stroke-width="1">
      <circle cx="7" cy="7" r="7" stroke="none"/>
      <circle cx="7" cy="7" r="6.5" fill="none"/>
    </g>
    <path id="checked-3" data-name="checked" d="M0,68.1l3.211,3.084,6.166-5.9-.885-.837L3.211,69.5.873,67.258Z" transform="translate(3659.328 -11316.314)"/>
    <path id="Path_530" data-name="Path 530" d="M16.891,19.834V18.223A3.223,3.223,0,0,0,13.669,15H7.223A3.223,3.223,0,0,0,4,18.223v1.611" transform="translate(3759.186 -11294.834)" fill="none" stroke="#fff" stroke-linecap="round" stroke-linejoin="round" stroke-width="1.5"/>
    <circle id="Ellipse_52" data-name="Ellipse 52" cx="3.5" cy="3.5" r="3.5" transform="translate(3766.186 -11290)" fill="none" stroke="#fff" stroke-linecap="round" stroke-linejoin="round" stroke-width="1.5"/>
    <rect id="Rectangle_442" data-name="Rectangle 442" width="15" height="11" rx="2" transform="translate(3732 -11289)" fill="none" stroke="#fff" stroke-linecap="round" stroke-linejoin="round" stroke-width="1.3"/>
    <line id="Line_150" data-name="Line 150" x2="6" transform="translate(3737 -11275)" fill="none" stroke="#fff" stroke-linecap="round" stroke-linejoin="round" stroke-width="1.3"/>
    <line id="Line_151" data-name="Line 151" y2="3" transform="translate(3740 -11278)" fill="none" stroke="#fff" stroke-linecap="round" stroke-linejoin="round" stroke-width="1.3"/>
    <path id="shield" d="M10,17s6-3,6-7.5V4.25L10,2,4,4.25V9.5C4,14,10,17,10,17Z" transform="translate(3789.633 -11293.5)" fill="none" stroke="#fff" stroke-linecap="round" stroke-linejoin="round" stroke-width="1.5"/>
    <path id="Path_531" data-name="Path 531" d="M8.444,19.332H4.815A1.815,1.815,0,0,1,3,17.517V4.815A1.815,1.815,0,0,1,4.815,3H8.444" transform="translate(3820.186 -11294.332)" fill="none" stroke="#fff" stroke-linecap="round" stroke-linejoin="round" stroke-width="1.3"/>
    <path id="Path_532" data-name="Path 532" d="M16,16.073l4.537-4.537L16,7" transform="translate(3818.98 -11294.703)" fill="none" stroke="#fff" stroke-linecap="round" stroke-linejoin="round" stroke-width="1.3"/>
    <line id="Line_152" data-name="Line 152" x1="11" transform="translate(3828.186 -11283)" fill="none" stroke="#fff" stroke-linecap="round" stroke-linejoin="round" stroke-width="1.3"/>
    <g id="plus" transform="translate(3888 -11289)">
      <path id="Path_534" data-name="Path 534" d="M134.563,240.875h-6.125a.438.438,0,0,1,0-.875h6.125a.438.438,0,0,1,0,.875Zm0,0" transform="translate(-124.5 -233.438)"/>
      <path id="Path_535" data-name="Path 535" d="M240.438,135a.438.438,0,0,1-.437-.437v-6.125a.438.438,0,0,1,.875,0v6.125a.438.438,0,0,1-.438.437Zm0,0" transform="translate(-233.438 -124.5)"/>
      <path id="Path_536" data-name="Path 536" d="M12.4,14H1.6A1.606,1.606,0,0,1,0,12.4V1.6A1.606,1.606,0,0,1,1.6,0H12.4A1.606,1.606,0,0,1,14,1.6V12.4A1.606,1.606,0,0,1,12.4,14ZM1.6.875A.73.73,0,0,0,.875,1.6V12.4a.73.73,0,0,0,.729.729H12.4a.73.73,0,0,0,.729-.729V1.6A.73.73,0,0,0,12.4.875Zm0,0"/>
    </g>
    <g id="plus-2" data-name="plus" transform="translate(3918 -11289)">
      <path id="Path_534-2" data-name="Path 534" d="M134.563,240.875h-6.125a.438.438,0,0,1,0-.875h6.125a.438.438,0,0,1,0,.875Zm0,0" transform="translate(-124.5 -233.438)"/>
      <path id="Path_536-2" data-name="Path 536" d="M12.4,14H1.6A1.606,1.606,0,0,1,0,12.4V1.6A1.606,1.606,0,0,1,1.6,0H12.4A1.606,1.606,0,0,1,14,1.6V12.4A1.606,1.606,0,0,1,12.4,14ZM1.6.875A.73.73,0,0,0,.875,1.6V12.4a.73.73,0,0,0,.729.729H12.4a.73.73,0,0,0,.729-.729V1.6A.73.73,0,0,0,12.4.875Zm0,0"/>
    </g>
    <g id="chat_1_" data-name="chat (1)" transform="translate(3858.5 -11305.834)">
      <path id="Path_537" data-name="Path 537" d="M9.459,19.779A4.986,4.986,0,0,0,0,21.964a4.914,4.914,0,0,0,.475,2.123L.009,26.422a.426.426,0,0,0,.5.5l2.364-.467a4.9,4.9,0,0,0,.986.345,5.826,5.826,0,0,1,5.6-7.021Z" fill="#e41739"/>
      <path id="Path_538" data-name="Path 538" d="M170.982,152.093a4.956,4.956,0,0,0,.213-.526h-.016a4.973,4.973,0,0,0-4.473-6.559h0a4.968,4.968,0,1,0-.239,9.93,4.914,4.914,0,0,0,2.117-.475c2.589.512,2.387.475,2.447.475a.426.426,0,0,0,.418-.509Z" transform="translate(-156.923 -124.373)" fill="#e41739"/>
    </g>
    <g id="Group_298" data-name="Group 298" transform="translate(3950.053 -11287.729)">
      <path id="Path_546" data-name="Path 546" d="M123.974,5.571,118.522.133a.457.457,0,1,0-.645.647L123,5.894l-5.128,5.114a.457.457,0,0,0,.645.647l5.452-5.437a.457.457,0,0,0,0-.647Z" transform="translate(-117.742)" fill="#e41739"/>
    </g>
    <path id="close_1_" data-name="close (1)" d="M9.559,8.214,15.85,1.923A1.047,1.047,0,0,0,14.37.443L8.078,6.734,1.787.443a1.047,1.047,0,1,0-1.48,1.48L6.6,8.214.307,14.506a1.047,1.047,0,1,0,1.48,1.48L8.078,9.694l6.291,6.291a1.047,1.047,0,1,0,1.48-1.48Zm0,0" transform="translate(3972 -11288.292)" fill="#888"/>
    <path id="close_1_2" data-name="close (1)" d="M4.443,3.891,7.368.967A.487.487,0,0,0,6.68.279L3.755,3.2.831.279A.487.487,0,1,0,.143.967L3.067,3.891.143,6.816A.487.487,0,1,0,.831,7.5L3.755,4.579,6.68,7.5a.487.487,0,0,0,.688-.688Zm0,0" transform="translate(3998.557 -11283.885)" fill="#e41739"/>
    <g id="Group_298-2" data-name="Group 298" transform="translate(4038.895 -11283.184) rotate(90)">
      <path id="Path_546-2" data-name="Path 546" d="M123.974,5.571,118.522.133a.457.457,0,1,0-.645.647L123,5.894l-5.128,5.114a.457.457,0,0,0,.645.647l5.452-5.437a.457.457,0,0,0,0-.647Z" transform="translate(-117.742)"/>
    </g>
    <g id="Group_298-3" data-name="Group 298" transform="translate(4027.105 -11245.816) rotate(-90)">
      <path id="Path_546-3" data-name="Path 546" d="M123.974,5.571,118.522.133a.457.457,0,1,0-.645.647L123,5.894l-5.128,5.114a.457.457,0,0,0,.645.647l5.452-5.437a.457.457,0,0,0,0-.647Z" transform="translate(-117.742)"/>
    </g>
    <rect id="Rectangle_837" data-name="Rectangle 837" width="13" height="8" rx="2" transform="translate(3772 -11251.387)" fill="none" stroke="#000" stroke-linecap="round" stroke-linejoin="round" stroke-width="1.5"/>
    <path id="Path_626" data-name="Path 626" d="M7,8.576V5.653a3.653,3.653,0,1,1,7.306,0V8.576" transform="translate(3767.924 -11260)" fill="none" stroke="#000" stroke-linecap="round" stroke-linejoin="round" stroke-width="1.5"/>
    <path id="Path_627" data-name="Path 627" d="M16.6,19.726V18.15A3.15,3.15,0,0,0,13.451,15H7.15A3.15,3.15,0,0,0,4,18.15v1.575" transform="translate(3804 -11262.727)" fill="none" stroke="#000" stroke-linecap="round" stroke-linejoin="round" stroke-width="1.5"/>
    <circle id="Ellipse_103" data-name="Ellipse 103" cx="3" cy="3" r="3" transform="translate(3811 -11257)" fill="none" stroke="#000" stroke-linecap="round" stroke-linejoin="round" stroke-width="1.5"/>
    <circle id="Ellipse_112" data-name="Ellipse 112" cx="8" cy="8" r="8" transform="translate(4053 -11292)" fill="#030303" opacity="0.54"/>
    <path id="close_1_3" data-name="close (1)" d="M4.443,3.891,7.368.967A.487.487,0,0,0,6.68.279L3.755,3.2.831.279A.487.487,0,1,0,.143.967L3.067,3.891.143,6.816A.487.487,0,1,0,.831,7.5L3.755,4.579,6.68,7.5a.487.487,0,0,0,.688-.688Zm0,0" transform="translate(4057.557 -11287.885)" fill="#fff"/>
    <g id="send-button_1_" data-name="send-button (1)" transform="translate(3529.127 -11596.17)">
      <g id="send">
        <path id="Path_8533" data-name="Path 8533" d="M0,50.2l13.941-5.975L0,38.25V42.9l9.958,1.328L0,45.553Z" transform="translate(0 -38.25)" fill="#fff"/>
      </g>
    </g>
    <g id="paperclip" transform="translate(3439.959 -11605)">
      <g id="Group_825" data-name="Group 825" transform="translate(28.042)">
        <path id="Path_8534" data-name="Path 8534" d="M53.728,2.288a7.835,7.835,0,0,0-11.068,0L31.007,13.941a.921.921,0,0,0,1.3,1.3L43.962,3.59a6.13,6.13,0,0,1,8.464,0,5.991,5.991,0,0,1,0,8.463L36.154,28.508a3.77,3.77,0,0,1-5.208,0,3.686,3.686,0,0,1,0-5.207L46.567,7.5a1.414,1.414,0,0,1,1.953,0,1.383,1.383,0,0,1,0,1.954L33.551,24.6a1.026,1.026,0,0,0,0,1.3.92.92,0,0,0,1.3,0l14.97-15.149a3.225,3.225,0,0,0,0-4.557,3.3,3.3,0,0,0-4.556,0L29.644,22a5.524,5.524,0,1,0,7.812,7.811L53.728,13.355a7.834,7.834,0,0,0,0-11.067Z" transform="translate(-28.042)" fill="#b9b9b9"/>
      </g>
    </g>
    <path id="smile_1_" data-name="smile (1)" d="M15.879,31.758a15.879,15.879,0,1,1,11.228-4.651,15.879,15.879,0,0,1-11.228,4.651Zm0-29.277a13.4,13.4,0,1,0,13.4,13.4A13.4,13.4,0,0,0,15.879,2.481ZM21.693,18.62a1.24,1.24,0,0,0-1.712.38,5.46,5.46,0,0,1-4.164,2.4A5.46,5.46,0,0,1,11.653,19,1.241,1.241,0,0,0,9.56,20.332a7.976,7.976,0,0,0,6.257,3.552,7.976,7.976,0,0,0,6.257-3.552,1.24,1.24,0,0,0-.381-1.712ZM10.421,10.234A1.551,1.551,0,1,1,8.87,11.785a1.551,1.551,0,0,1,1.551-1.551Zm9.3,1.551a1.551,1.551,0,1,0,1.551-1.551,1.551,1.551,0,0,0-1.551,1.551Z" transform="translate(3415.535 -11605.5)" fill="#b9b9b9" stroke="#fff" stroke-width="0.5"/>
    <g id="Group_884" data-name="Group 884" transform="translate(3429.5 -11332.513)">
      <g id="Group_883" data-name="Group 883">
        <path id="Path_8715" data-name="Path 8715" d="M23.287,22.677,12.66,12.994a1.209,1.209,0,0,0-1.636,0L.4,22.677a1.215,1.215,0,0,0,.818,2.112h1.7v9.7a.7.7,0,0,0,.7.7H9.434a.7.7,0,0,0,.7-.7V28.6h3.423v5.89a.7.7,0,0,0,.7.7h5.824a.7.7,0,0,0,.7-.7v-9.7h1.7a1.214,1.214,0,0,0,.818-2.112Z" transform="translate(0 -12.675)" fill="#fff"/>
      </g>
    </g>
    <g id="Group_886" data-name="Group 886" transform="translate(3445.412 -11331.121)">
      <g id="Group_885" data-name="Group 885">
        <path id="Path_8716" data-name="Path 8716" d="M348.651,42.73h-4.678l5.374,4.887v-4.19a.7.7,0,0,0-.7-.7Z" transform="translate(-343.973 -42.73)" fill="#fff"/>
      </g>
    </g>
    <g id="Group_1122" data-name="Group 1122" transform="translate(-1028 -824)">
      <path id="Path_530-2" data-name="Path 530" d="M16.891,19.834V18.223A3.223,3.223,0,0,0,13.669,15H7.223A3.223,3.223,0,0,0,4,18.223v1.611" transform="translate(4787.186 -10470.834)" fill="none" stroke="#fff" stroke-linecap="round" stroke-linejoin="round" stroke-width="1.5"/>
      <circle id="Ellipse_52-2" data-name="Ellipse 52" cx="3.5" cy="3.5" r="3.5" transform="translate(4794.186 -10466)" fill="#fff" stroke="#fff" stroke-linecap="round" stroke-linejoin="round" stroke-width="1.5"/>
    </g>
    <g id="Group_1123" data-name="Group 1123" transform="translate(-1028 -822)">
      <circle id="Ellipse_136" data-name="Ellipse 136" cx="3.303" cy="3.303" r="3.303" transform="translate(4764.466 -10433.461)" fill="#fff"/>
      <path id="Path_9067" data-name="Path 9067" d="M-11231.2,21569.4s-.113-3.334,3.994-3.764a4.1,4.1,0,0,1,4,3.764,5.967,5.967,0,0,0,2.393-2.02,6.817,6.817,0,0,0-3.479-4.424,4.6,4.6,0,0,1-5.787,0,6.021,6.021,0,0,0-3.509,4.41,5.407,5.407,0,0,0,2.207,2.027Z" transform="translate(15994.955 -31989.902)" fill="#fff"/>
      <path id="Path_9068" data-name="Path 9068" d="M-11125.1,21547.4l.792-.322h3.22l.766.322a3.712,3.712,0,0,1-4.584.211,2.08,2.08,0,0,0-.192-.213Z" transform="translate(15890.468 -31974.561)" fill="#fff"/>
      <path id="Subtraction_28" data-name="Subtraction 28" d="M3.44,5.817H2.661L2.44,5.155l-.61-.234L1.22,5.3.649,4.7l.338-.6L.714,3.454,0,3.286V2.649l.649-.195.273-.662L.545,1.221,1.168.608l.6.339L2.343.692,2.529,0h.793l.2.608.624.3.608-.3.591.506-.3.575.3.688.6.169v.649l-.6.182L5.05,4l.351.584-.519.636-.649-.351-.649.286-.143.662ZM2.993,1.423a1.5,1.5,0,1,0,1.5,1.5,1.5,1.5,0,0,0-1.5-1.5Z" transform="translate(4764.754 -10423.205)" fill="#fff"/>
    </g>
  </g>
</svg>
