<svg xmlns="http://www.w3.org/2000/svg" width="27.975" height="31.416" viewBox="0 0 27.975 31.416">
  <g id="paperclip" transform="translate(-28.041)">
    <g id="Group_825" data-name="Group 825" transform="translate(28.042 0)">
      <path id="Path_8534" data-name="Path 8534" d="M53.728,2.288a7.835,7.835,0,0,0-11.068,0L31.007,13.941a.921.921,0,0,0,1.3,1.3L43.962,3.59a6.13,6.13,0,0,1,8.464,0,5.991,5.991,0,0,1,0,8.463L36.154,28.508a3.77,3.77,0,0,1-5.208,0,3.686,3.686,0,0,1,0-5.207L46.567,7.5a1.414,1.414,0,0,1,1.953,0,1.383,1.383,0,0,1,0,1.954L33.551,24.6a1.026,1.026,0,0,0,0,1.3.92.92,0,0,0,1.3,0L49.821,10.751a3.225,3.225,0,0,0,0-4.557,3.3,3.3,0,0,0-4.556,0L29.644,22a5.56,5.56,0,0,0,0,7.811,5.553,5.553,0,0,0,7.812,0L53.728,13.355A7.834,7.834,0,0,0,53.728,2.288Z" transform="translate(-28.042 0)" fill="#b9b9b9"/>
    </g>
  </g>
</svg>
