<svg xmlns="http://www.w3.org/2000/svg" width="17" height="48" viewBox="0 0 17 48">
  <g id="Group_481" data-name="Group 481" transform="translate(11683 -11039.833)">
    <g id="Rectangle_871" data-name="Rectangle 871" transform="translate(-11683 11039.833)" fill="#fff" stroke="#707070" stroke-width="1">
      <rect width="17" height="17" stroke="none"/>
      <rect x="0.5" y="0.5" width="16" height="16" fill="none"/>
    </g>
    <rect id="Rectangle_872" data-name="Rectangle 872" width="17" height="17" transform="translate(-11683 11070.833)" fill="#ec3d3d"/>
    <g id="tick_3_" data-name="tick (3)" transform="translate(-11679.69 11008.19)">
      <g id="Group_475" data-name="Group 475" transform="translate(0 67.997)">
        <path id="Path_631" data-name="Path 631" d="M10.23,68.15a.519.519,0,0,0-.734,0L3.276,74.369.886,71.978a.519.519,0,1,0-.734.734L2.909,75.47a.519.519,0,0,0,.734,0l6.586-6.586A.519.519,0,0,0,10.23,68.15Z" transform="translate(0 -67.997)" fill="#fff" stroke="#fff" stroke-width="0.5"/>
      </g>
    </g>
  </g>
</svg>
