<svg xmlns="http://www.w3.org/2000/svg" width="24.592" height="24.592" viewBox="0 0 24.592 24.592">
  <g id="settings_1_" data-name="settings (1)" transform="translate(0.25 0.25)">
    <g id="Group_500" data-name="Group 500" transform="translate(0 8.031)">
      <g id="Group_499" data-name="Group 499">
        <path id="Path_633" data-name="Path 633" d="M14.857,166.023h-.442a.4.4,0,0,1-.372-.259c-.049-.128-.1-.254-.158-.379a.4.4,0,0,1,.08-.448l.315-.315a1.207,1.207,0,0,0,0-1.7l-1.135-1.135a1.207,1.207,0,0,0-1.7,0l-.315.314a.4.4,0,0,1-.448.08c-.124-.057-.25-.109-.379-.161a.4.4,0,0,1-.261-.373V161.2a1.2,1.2,0,0,0-1.2-1.2H7.228a1.2,1.2,0,0,0-1.2,1.2v.442a.4.4,0,0,1-.259.372c-.128.049-.254.1-.379.158a.4.4,0,0,1-.448-.08l-.315-.315a1.207,1.207,0,0,0-1.7,0L1.785,162.92a1.207,1.207,0,0,0,0,1.7l.314.315a.4.4,0,0,1,.08.448c-.057.124-.109.25-.159.379a.4.4,0,0,1-.375.259H1.2a1.2,1.2,0,0,0-1.2,1.2v1.606a1.2,1.2,0,0,0,1.2,1.2h.442a.4.4,0,0,1,.372.259c.049.128.1.254.158.379a.4.4,0,0,1-.08.448l-.315.315a1.207,1.207,0,0,0,0,1.7l1.135,1.135a1.207,1.207,0,0,0,1.7,0l.315-.314a.4.4,0,0,1,.448-.08c.124.057.25.109.379.161a.4.4,0,0,1,.263.373v.442a1.2,1.2,0,0,0,1.2,1.2H8.834a1.2,1.2,0,0,0,1.2-1.2v-.442a.4.4,0,0,1,.259-.372c.128-.049.254-.1.379-.158a.4.4,0,0,1,.448.08l.315.315a1.208,1.208,0,0,0,1.7,0l1.135-1.135a1.207,1.207,0,0,0,0-1.7l-.314-.315a.4.4,0,0,1-.08-.448c.057-.124.109-.25.161-.379a.4.4,0,0,1,.373-.261h.442a1.2,1.2,0,0,0,1.2-1.2v-1.606A1.2,1.2,0,0,0,14.857,166.023Zm.4,2.811a.4.4,0,0,1-.4.4h-.442a1.209,1.209,0,0,0-1.124.777q-.064.169-.138.332a1.208,1.208,0,0,0,.241,1.348l.314.314a.4.4,0,0,1,0,.568h0l-1.135,1.135a.4.4,0,0,1-.568,0l-.315-.314a1.207,1.207,0,0,0-1.348-.241c-.109.049-.22.1-.331.138a1.208,1.208,0,0,0-.776,1.123v.442a.4.4,0,0,1-.4.4H7.228a.4.4,0,0,1-.4-.4v-.442a1.209,1.209,0,0,0-.777-1.124q-.169-.064-.332-.138a1.209,1.209,0,0,0-1.348.241l-.314.314a.4.4,0,0,1-.568,0h0l-1.135-1.134a.4.4,0,0,1,0-.568l.314-.315a1.208,1.208,0,0,0,.241-1.348c-.049-.109-.1-.22-.138-.331a1.208,1.208,0,0,0-1.123-.777H1.2a.4.4,0,0,1-.4-.4v-1.606a.4.4,0,0,1,.4-.4h.442a1.209,1.209,0,0,0,1.124-.777q.064-.169.138-.332a1.208,1.208,0,0,0-.241-1.348l-.316-.314a.4.4,0,0,1,0-.568h0l1.135-1.135a.4.4,0,0,1,.568,0l.315.314a1.207,1.207,0,0,0,1.348.241c.109-.049.22-.1.331-.138a1.208,1.208,0,0,0,.778-1.123V161.2a.4.4,0,0,1,.4-.4H8.834a.4.4,0,0,1,.4.4v.442a1.209,1.209,0,0,0,.777,1.124q.169.064.332.138a1.207,1.207,0,0,0,1.348-.241l.314-.314a.4.4,0,0,1,.568,0l1.135,1.135a.4.4,0,0,1,0,.568l-.314.315a1.208,1.208,0,0,0-.241,1.348c.049.109.1.22.138.331a1.208,1.208,0,0,0,1.123.776h.442a.4.4,0,0,1,.4.4v1.606Z" transform="translate(0 -160)" stroke="#000" stroke-width="0.5"/>
      </g>
    </g>
    <g id="Group_502" data-name="Group 502" transform="translate(4.415 12.447)">
      <g id="Group_501" data-name="Group 501">
        <path id="Path_634" data-name="Path 634" d="M95.18,251.453c0-.1-.011-.192-.022-.288s-.028-.2-.049-.3c-.014-.065-.033-.13-.05-.2q-.034-.124-.076-.245c-.02-.056-.04-.111-.061-.166a3.576,3.576,0,0,0-.177-.376c-.005-.009-.008-.019-.014-.029a3.562,3.562,0,0,0-.361-.526c-.012-.014-.025-.028-.037-.042-.055-.065-.112-.129-.172-.19-.031-.033-.064-.063-.1-.094s-.08-.074-.12-.11-.1-.083-.149-.123l-.066-.049A3.588,3.588,0,0,0,91.574,248c-.04,0-.08.006-.12.008-.086,0-.171.007-.258.016l-.137.016a3.679,3.679,0,0,0-.389.073,3.616,3.616,0,0,0,0,7,.091.091,0,0,1,.02,0,3.832,3.832,0,0,0,.421.08c.094.012.187.014.281.018.063,0,.12.012.186.012.114,0,.233-.008.355-.02a.391.391,0,0,0,.04-.005c.1-.011.2-.025.3-.045.04-.008.077-.018.116-.027.071-.016.141-.034.213-.055.056-.017.111-.037.166-.056l.169-.062c.057-.022.1-.047.157-.071.067-.031.135-.061.2-.1h0a4.753,4.753,0,0,0,1.029-.743,1.264,1.264,0,0,0,.215-.263,4.286,4.286,0,0,0,.6-1.65c.011-.077.021-.155.027-.234s.01-.145.011-.217c0-.023,0-.045,0-.067C95.188,251.56,95.183,251.508,95.18,251.453Zm-.8.263c0,.033,0,.067,0,.1-.007.1-.02.194-.036.292a2.817,2.817,0,0,1-1.411,1.967c-.05.026-.1.051-.148.073l-.033.016a2.9,2.9,0,0,1-.732.222l-.054.008c-.05.007-.1.013-.149.018-.065.006-.13.009-.2.01h-.084a2.814,2.814,0,0,1-.284-.018L91.2,254.4a2.974,2.974,0,0,1-.328-.062,2.811,2.811,0,0,1,0-5.445h0a2.908,2.908,0,0,1,.705-.088,2.778,2.778,0,0,1,.343.023l.091.014c.087.014.173.031.257.053l.083.021a2.835,2.835,0,0,1,.612.258l.092.056c.063.04.125.08.186.126.033.024.065.047.1.072a2.9,2.9,0,0,1,.226.2c.029.029.055.061.082.091.046.05.091.1.134.156.03.037.058.076.086.115.04.058.08.118.116.179l.061.1a2.758,2.758,0,0,1,.138.294c.016.04.03.08.044.12.026.074.049.149.068.224.01.04.021.076.03.115a2.828,2.828,0,0,1,.051.329c0,.029,0,.059,0,.088C94.382,251.53,94.383,251.623,94.38,251.716Z" transform="translate(-87.959 -248)" stroke="#000" stroke-width="0.5"/>
      </g>
    </g>
    <g id="Group_504" data-name="Group 504" transform="translate(4.38)">
      <g id="Group_503" data-name="Group 503">
        <path id="Path_635" data-name="Path 635" d="M105.769,8.432h-1.263a.392.392,0,0,1-.374-.263,8.361,8.361,0,0,0-.451-1.089.393.393,0,0,1,.077-.453l.9-.9a1.2,1.2,0,0,0,0-1.7l-1.707-1.7a1.2,1.2,0,0,0-1.7,0l-.9.895a.393.393,0,0,1-.453.077,8.342,8.342,0,0,0-1.089-.453.392.392,0,0,1-.265-.374V1.2a1.2,1.2,0,0,0-1.2-1.2H94.927a1.2,1.2,0,0,0-1.2,1.2V2.467a.392.392,0,0,1-.263.374,8.368,8.368,0,0,0-1.089.453.392.392,0,0,1-.453-.077l-.9-.9a1.207,1.207,0,0,0-1.7,0l-1.7,1.7a1.2,1.2,0,0,0,0,1.7l1.317,1.319a.4.4,0,0,0,.569-.567L88.182,5.163a.4.4,0,0,1,0-.568l1.7-1.7a.4.4,0,0,1,.568,0l.9.9a1.194,1.194,0,0,0,1.38.226,7.6,7.6,0,0,1,.984-.409,1.2,1.2,0,0,0,.811-1.136V1.2a.4.4,0,0,1,.4-.4h2.409a.4.4,0,0,1,.4.4V2.467A1.194,1.194,0,0,0,98.55,3.6a7.573,7.573,0,0,1,.985.41,1.2,1.2,0,0,0,1.379-.227l.9-.9a.4.4,0,0,1,.568,0l1.7,1.7a.4.4,0,0,1,0,.567l-.9.9a1.2,1.2,0,0,0-.226,1.38,7.6,7.6,0,0,1,.409.984,1.194,1.194,0,0,0,1.136.811h1.263a.4.4,0,0,1,.4.4v2.409a.4.4,0,0,1-.4.4h-1.263a1.194,1.194,0,0,0-1.136.811,7.566,7.566,0,0,1-.41.985,1.2,1.2,0,0,0,.227,1.379l.9.9a.4.4,0,0,1,0,.568l-1.7,1.7a.4.4,0,0,1-.567,0l-1.319-1.317a.4.4,0,0,0-.577.559l.01.01,1.319,1.317a1.2,1.2,0,0,0,1.7,0l1.7-1.7a1.2,1.2,0,0,0,0-1.7l-.894-.9a.394.394,0,0,1-.077-.453,8.341,8.341,0,0,0,.453-1.089.392.392,0,0,1,.374-.265h1.263a1.2,1.2,0,0,0,1.2-1.2V9.637A1.2,1.2,0,0,0,105.769,8.432Z" transform="translate(-87.261)" stroke="#000" stroke-width="0.5"/>
      </g>
    </g>
    <g id="Group_506" data-name="Group 506" transform="translate(9.447 5.624)">
      <g id="Group_505" data-name="Group 505">
        <path id="Path_636" data-name="Path 636" d="M195.713,113.576a5.225,5.225,0,0,0-7.382,0,.4.4,0,0,0,.568.568,4.417,4.417,0,0,1,6.288,6.2l-.042.042a.4.4,0,0,0,.558.578l.01-.01A5.225,5.225,0,0,0,195.713,113.576Z" transform="translate(-188.219 -112.049)" stroke="#000" stroke-width="0.5"/>
      </g>
    </g>
  </g>
</svg>
