<svg xmlns="http://www.w3.org/2000/svg" width="45" height="45" viewBox="0 0 45 45">
  <g id="Group_771" data-name="Group 771" transform="translate(-800 -3305)">
    <g id="Ellipse_98" data-name="Ellipse 98" transform="translate(800 3305)" fill="none" stroke="#fff" stroke-width="1">
      <circle cx="22.5" cy="22.5" r="22.5" stroke="none"/>
      <circle cx="22.5" cy="22.5" r="22" fill="none"/>
    </g>
    <g id="down-arrow" transform="translate(828.092 3317.965) rotate(90)">
      <path id="Path_360" data-name="Path 360" d="M19.177.132,9.955,9.355.734.132A.433.433,0,0,0,.122.745L9.65,10.273a.433.433,0,0,0,.612,0L19.79.745a.433.433,0,1,0-.6-.623l-.011.011Z" transform="translate(0.001)" fill="#fff"/>
      <path id="Path_361" data-name="Path 361" d="M9.956,10.4a.433.433,0,0,1-.307-.126L.122.745A.433.433,0,0,1,.734.133L9.956,9.355,19.178.132a.433.433,0,0,1,.623.6L19.79.745l-9.528,9.528A.433.433,0,0,1,9.956,10.4Z" transform="translate(0 0)" fill="#fff"/>
    </g>
  </g>
</svg>
