<svg xmlns="http://www.w3.org/2000/svg" width="25.737" height="26.174" viewBox="0 0 25.737 26.174">
  <g id="star" transform="translate(1.015 0.996)">
    <g id="Group_36" data-name="Group 36">
      <path id="Path_163" data-name="Path 163" d="M23.676,27.886a.709.709,0,0,0-.561-.5l-7.35-1.14-3.287-7.11a.676.676,0,0,0-1.246,0l-3.287,7.11-7.35,1.14a.709.709,0,0,0-.561.5.777.777,0,0,0,.176.76L5.528,34.18,4.273,42a.766.766,0,0,0,.276.725.657.657,0,0,0,.731.057l6.574-3.69,6.574,3.69a.658.658,0,0,0,.732-.056A.766.766,0,0,0,19.437,42l-1.256-7.815L23.5,28.646A.776.776,0,0,0,23.676,27.886Z" transform="translate(0 -18.718)" fill="none" stroke="#fff" stroke-width="2"/>
    </g>
  </g>
</svg>
