<svg xmlns="http://www.w3.org/2000/svg" width="22.909" height="24" viewBox="0 0 22.909 24">
  <path id="Commercial" d="M12.091,0a5.487,5.487,0,0,1,5.342,5.61v0a6.468,6.468,0,0,1-.549,2.379h3.2L23.546,24H.637L4.1,7.991H7.3a6.469,6.469,0,0,1-.549-2.379v0A5.487,5.487,0,0,1,12.091,0Zm3.8,5.61a3.9,3.9,0,0,0-3.8-3.986A3.9,3.9,0,0,0,8.3,5.61v0A6.181,6.181,0,0,0,9.722,9.047a16.636,16.636,0,0,0,2.369,2.594,16.636,16.636,0,0,0,2.369-2.594,6.181,6.181,0,0,0,1.427-3.434l.107,0h-.107Zm-3.8-2.423A2.357,2.357,0,0,1,14.386,5.6a2.357,2.357,0,0,1-2.295,2.41A2.357,2.357,0,0,1,9.8,5.6,2.357,2.357,0,0,1,12.091,3.187ZM12.84,5.6a.75.75,0,1,0-.749.787A.77.77,0,0,0,12.84,5.6Zm7.04,8.783L18.85,9.615H16a18.717,18.717,0,0,1-3.79,4l-.048.039-.067.054-.067-.054-.048-.039a18.72,18.72,0,0,1-3.79-4H5.333l-.34,1.573H7.558L9.08,14.38ZM8.125,16,6.6,12.812H4.641L4.3,14.38H5.667l1.519,3.2h7.145l-3.044,4.795H13.2l3.044-4.795h4.329L20.231,16Zm-1.9,3.2L4.71,16H3.951L2.573,22.376H9.429l2.013-3.171Zm15.38,3.171-.686-3.171H17.071l-2.013,3.171Z" transform="translate(-0.637)" fill="#505050" fill-rule="evenodd"/>
</svg>
