<svg xmlns="http://www.w3.org/2000/svg" width="45" height="45" viewBox="0 0 45 45">
  <g id="Group_772" data-name="Group 772" transform="translate(-1246.5 -3305)">
    <g id="Path_777" data-name="Path 777" transform="translate(1246.5 3305)" fill="none">
      <path d="M22.5,0A22.5,22.5,0,1,1,0,22.5,22.5,22.5,0,0,1,22.5,0Z" stroke="none"/>
      <path d="M 22.5 1 C 19.59708023071289 1 16.78152084350586 1.568321228027344 14.13154029846191 2.689170837402344 C 11.57144927978516 3.771991729736328 9.272048950195313 5.322360992431641 7.297199249267578 7.297199249267578 C 5.322360992431641 9.272048950195313 3.771991729736328 11.57144927978516 2.689170837402344 14.13154029846191 C 1.568321228027344 16.78152084350586 1 19.59708023071289 1 22.5 C 1 25.40291976928711 1.568321228027344 28.21847915649414 2.689170837402344 30.86845970153809 C 3.771991729736328 33.42855072021484 5.322360992431641 35.72795104980469 7.297199249267578 37.70280075073242 C 9.272048950195313 39.67763900756836 11.57144927978516 41.22800827026367 14.13154029846191 42.31082916259766 C 16.78152084350586 43.43167877197266 19.59708023071289 44 22.5 44 C 25.40291976928711 44 28.21847915649414 43.43167877197266 30.86845970153809 42.31082916259766 C 33.42855072021484 41.22800827026367 35.72795104980469 39.67763900756836 37.70280075073242 37.70280075073242 C 39.67763900756836 35.72795104980469 41.22800827026367 33.42855072021484 42.31082916259766 30.86845970153809 C 43.43167877197266 28.21847915649414 44 25.40291976928711 44 22.5 C 44 19.59708023071289 43.43167877197266 16.78152084350586 42.31082916259766 14.13154029846191 C 41.22800827026367 11.57144927978516 39.67763900756836 9.272048950195313 37.70280075073242 7.297199249267578 C 35.72795104980469 5.322360992431641 33.42855072021484 3.771991729736328 30.86845970153809 2.689170837402344 C 28.21847915649414 1.568321228027344 25.40291976928711 1 22.5 1 M 22.5 0 C 34.92641067504883 0 45 10.07358932495117 45 22.5 C 45 34.92641067504883 34.92641067504883 45 22.5 45 C 10.07358932495117 45 0 34.92641067504883 0 22.5 C 0 10.07358932495117 10.07358932495117 0 22.5 0 Z" stroke="none" fill="#fff"/>
    </g>
    <g id="down-arrow" transform="translate(1273.917 3317.966) rotate(90)">
      <path id="Path_360" data-name="Path 360" d="M19.177,10.267,9.955,1.045.734,10.267a.433.433,0,0,1-.612-.612L9.65.127a.433.433,0,0,1,.612,0L19.79,9.655a.433.433,0,1,1-.6.623l-.011-.011Z" transform="translate(0.001 0.001)" fill="#fff"/>
      <path id="Path_361" data-name="Path 361" d="M9.956,0A.433.433,0,0,0,9.65.126L.122,9.655a.433.433,0,0,0,.612.612L9.956,1.046l9.222,9.222a.433.433,0,0,0,.623-.6l-.011-.011L10.262.127A.433.433,0,0,0,9.956,0Z" transform="translate(0)" fill="#fff"/>
    </g>
  </g>
</svg>
