<svg xmlns="http://www.w3.org/2000/svg" width="103" height="103" viewBox="0 0 103 103">
  <g id="Group_22853" data-name="Group 22853" transform="translate(-1715 -75)">
    <circle id="Ellipse_1" data-name="Ellipse 1" cx="51.5" cy="51.5" r="51.5" transform="translate(1715 75)" fill="#1ea226"/>
    <g id="trophy-award-svgrepo-com" transform="translate(1741.999 102)">
      <g id="Group_22850" data-name="Group 22850" transform="translate(0.001)">
        <g id="Group_22849" data-name="Group 22849" transform="translate(0)">
          <path id="Path_79158" data-name="Path 79158" d="M40.542,3.141V0H9.46V3.141H0V4.626a14.98,14.98,0,0,0,3.094,9.328,10.282,10.282,0,0,0,6.365,3.92v.012a15.568,15.568,0,0,0,11.7,15.06V39H13.5v4.017H12.23a4.14,4.14,0,0,0-4.135,4.135V50H41.908V47.148a4.14,4.14,0,0,0-4.135-4.135H36.5V39H28.841V32.947a15.568,15.568,0,0,0,11.7-15.06v-.012a10.282,10.282,0,0,0,6.365-3.92A14.98,14.98,0,0,0,50,4.626V3.141ZM9.46,14.845c-3.323-.82-5.923-4.337-6.407-8.733H9.46ZM36.5,45.983h1.274a1.166,1.166,0,0,1,1.159,1.046H11.071a1.166,1.166,0,0,1,1.159-1.046H36.5Zm-7.658-4.017h4.687v1.046H16.474V41.966H28.841ZM24.131,39V33.4h.02c.112.006.225.01.337.014l.091,0q.21.006.422.006t.422-.006l.091,0c.113,0,.225-.008.337-.014h.02V39ZM37.572,3.141V17.887a12.59,12.59,0,0,1-10.512,12.4q-.493.081-.992.124h-.015q-.258.021-.518.032h-.013q-.522.021-1.044,0h-.013q-.259-.011-.518-.032h-.014q-.5-.042-.992-.124a12.59,12.59,0,0,1-10.512-12.4V2.97H37.572Zm2.97,11.7V6.111H46.95C46.466,10.508,43.865,14.025,40.542,14.845Z" transform="translate(-0.001)" fill="#fff"/>
        </g>
      </g>
      <g id="Group_22852" data-name="Group 22852" transform="translate(16.096 6.118)">
        <g id="Group_22851" data-name="Group 22851">
          <path id="Path_79159" data-name="Path 79159" d="M180.38,70.664l-6.153-.894-2.752-5.575-2.752,5.575-6.153.894L167.022,75l-1.051,6.128,5.5-2.893,5.5,2.893L175.927,75Zm-7.252,5.169-1.653-.869-1.653.869.316-1.841-1.337-1.3,1.848-.269.827-1.675.827,1.675,1.848.269-1.337,1.3Z" transform="translate(-162.57 -64.194)" fill="#fff"/>
        </g>
      </g>
    </g>
  </g>
</svg>
