<svg xmlns="http://www.w3.org/2000/svg" width="75" height="62.618" viewBox="0 0 75 62.618">
  <path id="Path_168" data-name="Path 168" d="M53.841,31.672,43.431,39.48V28.044H49.74L26.08,10.3,2.5,28.044H8.809V72.918h13.17V61.089h8.36V72.839H71.191v-23.5H77.5ZM19.14,56.515H14.487V50.521H19.14Zm0-10.647H14.487V39.874H19.14Zm0-10.647H14.487V29.227H19.14Zm9.306,21.293H23.793V50.521h4.653Zm0-10.647H23.793V39.874h4.653Zm0-10.647H23.793V29.227h4.653Zm9.227,21.293H33.021V50.521h4.653Zm0-10.647H33.021V39.874h4.653Zm0-10.647H33.021V29.227h4.653ZM46.9,67.161H42.248V61.168H46.9Zm0-10.647H42.248V50.521H46.9Zm9.227,10.647H51.475V61.168h4.653Zm0-10.647H51.475V50.521h4.653Zm9.227,10.647H60.7V61.168h4.653Zm0-10.647H60.7V50.521h4.653Z" transform="translate(-2.5 -10.3)" fill="#fff"/>
</svg>
