<svg xmlns="http://www.w3.org/2000/svg" width="75" height="77.95" viewBox="0 0 75 77.95">
  <g id="Group_100" data-name="Group 100" transform="translate(-78.009 -60.93)">
    <path id="Path_128" data-name="Path 128" d="M233.679,220.128v.913H227.8a.484.484,0,0,1-.315-.114l-1.1-.965-2.6-2.286a5.73,5.73,0,0,0-1.045-.728,6.478,6.478,0,0,0-6.081,0,5.734,5.734,0,0,0-1.042.727l-2.6,2.286-1.1.964a.477.477,0,0,1-.317.115h-5.235a6.392,6.392,0,0,0-2.7.588,5.831,5.831,0,0,0-1.248.783,5.081,5.081,0,0,0-1.5,2H193.2a.8.8,0,0,0-.845.742v24.017H173.58V220.128l.888-.67.888-.671,5.092-3.846,9.512-7.184L203.63,197.43,231.9,218.786l.888.67Z" transform="translate(-88.121 -118.235)" fill="#fff"/>
    <path id="Path_129" data-name="Path 129" d="M152.949,90.737a.967.967,0,0,1-.9.562H144.9l-1-.78-.873-.677L115.509,68.485,88,89.843l-.873.677-1,.78h-7.15a.965.965,0,0,1-.9-.562.812.812,0,0,1,.269-.956L115.509,60.93l17.065,13.245V68.526a.42.42,0,0,1,.44-.4h7.858a.421.421,0,0,1,.44.4V80.958l11.364,8.821A.816.816,0,0,1,152.949,90.737Z" transform="translate(0 0)" fill="#fff"/>
    <path id="Path_130" data-name="Path 130" d="M483.216,485.442l-3.25-3.251a2.731,2.731,0,0,1-.8-1.932v-4.6a2.732,2.732,0,0,0-2.732-2.732h-4.6a2.729,2.729,0,0,1-1.932-.8l-3.25-3.25c-.019-.02-.04-.039-.06-.058l-.042-.039c-.052-.047-.105-.092-.16-.134l-.077-.058c-.035-.025-.069-.048-.105-.072l0,0-.009-.005c-.018-.012-.039-.024-.059-.036l-.027-.017c-.027-.015-.053-.031-.08-.045s-.064-.034-.1-.051-.041-.02-.061-.029l-.122-.054-.051-.02a.522.522,0,0,0-.051-.019h0l-.034-.013-.022-.007c-.029-.01-.058-.02-.088-.028l-.106-.029-.006,0-.028-.007-.016,0-.015,0-.056-.011-.017,0a2.754,2.754,0,0,0-1.068,0l-.017,0-.056.011-.015,0-.016,0-.028.007-.007,0-.106.029c-.03.008-.059.018-.088.028l-.022.007-.034.013h0c-.017.006-.034.011-.051.019l-.051.02-.062.026c-.021.009-.041.017-.061.027l-.06.029c-.035.017-.07.036-.1.055l-.052.028-.051.031c-.029.017-.057.035-.085.054l-.033.022,0,0-.075.053c-.037.027-.073.055-.109.085a2.358,2.358,0,0,0-.207.187l-3.251,3.25a2.728,2.728,0,0,1-1.932.8h-4.6c-.047,0-.094,0-.14,0h-.014c-.044,0-.087.006-.129.01l-.07.008-.1.015h-.011l-.022,0-.063.012-.107.024c-.035.008-.069.018-.1.028s-.08.023-.119.036-.051.017-.075.027l-.063.024-.063.026c-.077.033-.153.07-.226.109l-.018.01-.108.063-.044.027-.073.049-.089.064a.261.261,0,0,0-.024.019c-.033.024-.065.051-.1.077l0,0c-.026.022-.052.044-.077.067s-.022.019-.032.031-.042.04-.062.06l-.02.021-.007.007-.063.068c-.008.009-.016.016-.023.025s-.043.049-.063.074l-.041.052c-.014.017-.028.035-.04.052l-.037.05c-.042.058-.08.116-.116.177s-.06.1-.088.158c-.014.026-.027.053-.04.081l-.037.083c-.021.049-.041.1-.059.148-.007.017-.013.035-.019.053a.172.172,0,0,0-.009.028l-.009.027c-.009.027-.017.054-.025.083a.12.12,0,0,0,0,.012c-.007.024-.013.049-.02.074,0,0,0,0,0,0-.008.032-.016.065-.022.1s-.009.042-.012.062-.006.033-.009.048,0,.007,0,.011c0,.021-.007.042-.009.063s-.007.051-.01.077c0,0,0,.01,0,.015s0,.005,0,.009c0,.029-.005.057-.007.087,0,.063-.007.127-.007.192v3.685c.043-.052.084-.106.124-.161-.038.084-.079.166-.124.247v.826a2.728,2.728,0,0,1-.8,1.932l-3.02,3.021-.23.23a2.839,2.839,0,0,0-.288.338h0c.015.046.031.091.049.135-.025-.033-.049-.066-.073-.1-.021.03-.041.06-.06.091l-.015.022c-.017.026-.033.054-.048.081s-.036.063-.052.094h0c-.018.033-.034.067-.05.1l-.012.023c-.009.019-.017.037-.025.056l-.007.017c-.01.023-.02.048-.03.072,0,0,0,.007,0,.011-.015.04-.03.079-.043.119a.018.018,0,0,0,0,.006c-.009.029-.019.058-.027.086s-.019.065-.027.1h0a2.766,2.766,0,0,0-.059.294c0,.02-.006.04-.008.06s-.005.044-.007.065,0,.031,0,.047,0,.034,0,.052,0,.051,0,.077,0,.056,0,.084,0,.067,0,.1,0,.056.005.085c0,0,0,.009,0,.013,0,.027,0,.053.007.079s.006.062.011.093.009.06.013.089a0,0,0,0,0,0,0c0,.03.011.06.017.091s.012.061.02.091a.028.028,0,0,1,0,.008c.007.028.014.056.022.083s.021.073.033.109.028.083.043.125.027.071.042.1.025.057.038.085.016.037.026.055c.019.04.041.08.062.119.011.019.022.04.033.058.034.058.071.116.111.172.026.036.052.073.08.11a2.2,2.2,0,0,0,.143.168c.012.015.026.029.039.043l.049.051,3.25,3.25.021.022c.021.021.042.042.06.063l.023.025c.026.03.053.059.078.09s.052.065.077.1l.02.028c.022.03.042.059.063.09s.047.072.069.109l.005.009c.022.036.043.073.063.111s.037.069.053.1a.278.278,0,0,1,.015.033.155.155,0,0,1,.008.019c.01.02.02.041.028.062l.006.016.028.068c.01.027.021.055.03.082l0,.015c.008.022.015.044.022.066s.012.038.017.056.018.066.026.1.01.037.014.056.008.037.012.056.012.061.017.091.009.05.013.075,0,.034.006.051c.006.044.01.089.013.134a.292.292,0,0,1,0,.038c0,.017,0,.033,0,.05h0a.047.047,0,0,1,0,.013c0,.034,0,.067,0,.1v4.627c0,.017,0,.032,0,.049s0,.043,0,.065,0,.068.007.1a.125.125,0,0,0,0,.013c0,.018,0,.036.006.054s0,.031.005.047.006.04.01.061,0,.027.006.041.007.04.011.06.009.047.015.071.009.044.015.064c.011.045.023.09.036.134.006.021.013.043.021.064s.021.064.034.1.021.055.031.082l.011.025c.008.02.017.041.027.062h0c.014.033.03.065.045.1l0,.01c.018.035.037.07.056.1l.015.026c.015.027.031.053.047.08l.02.031c.022.034.044.068.068.1s.042.058.062.085l0,0c.013.018.027.036.042.054s.036.045.055.067l.009.01.006.008c.016.019.032.036.049.054l.008.008c.013.016.027.03.042.045s.051.052.077.077a2.724,2.724,0,0,0,1.884.752h4.6a2.73,2.73,0,0,1,1.931.8l3.251,3.25c.016.016.033.033.051.049.033.033.069.064.1.094s.059.049.089.072l.035.028.013.009.081.059c.038.026.076.051.114.075l.082.049.011.006c.027.016.055.031.083.045s.079.04.12.059l.051.023.072.03.058.023.067.025.079.025c.026.008.052.017.079.023l.079.021.08.02c.049.01.1.02.145.027l.073.011c.035,0,.071.01.106.012l.065.006q.1.007.2.007c.066,0,.131,0,.2-.007l.066-.006c.035,0,.071-.008.106-.012s.049-.006.073-.011c.048-.008.1-.017.145-.027l.08-.02.08-.021c.026-.007.052-.015.079-.023l.079-.025.067-.025.057-.023.061-.025.061-.028a2.642,2.642,0,0,0,.52-.316l.031-.024.077-.063c.035-.031.07-.062.1-.094l.051-.049,3.25-3.25a2.732,2.732,0,0,1,1.931-.8h4.6a2.732,2.732,0,0,0,2.732-2.731v-4.6a2.733,2.733,0,0,1,.8-1.932l3.25-3.25A2.731,2.731,0,0,0,483.216,485.442Zm-27.308-3.121a3.914,3.914,0,0,1,7.829,0v1.464a3.914,3.914,0,1,1-7.829,0Zm2,14.438L456.25,495.1l16.355-16.356,1.654,1.654Zm16.7-3.572a3.914,3.914,0,0,1-7.829,0v-1.464a3.914,3.914,0,1,1,7.829,0Z" transform="translate(-331.443 -367.786)" fill="#fff"/>
    <path id="Path_131" data-name="Path 131" d="M612.991,632.125v1.464a1.575,1.575,0,1,1-3.151,0v-1.464a1.575,1.575,0,0,1,3.151,0Z" transform="translate(-485.658 -520.063)" fill="#fff"/>
    <path id="Path_132" data-name="Path 132" d="M752.362,752.706v1.464a1.576,1.576,0,0,1-3.152,0v-1.464a1.576,1.576,0,1,1,3.152,0Z" transform="translate(-612.927 -630.152)" fill="#fff"/>
  </g>
</svg>
