<svg xmlns="http://www.w3.org/2000/svg" width="75" height="66.914" viewBox="0 0 75 66.914">
  <g id="Group_101" data-name="Group 101" transform="translate(-16.215 -75.893)">
    <g id="Group_94" data-name="Group 94" transform="translate(16.215 75.893)">
      <path id="Path_133" data-name="Path 133" d="M77.941,16H21.059A8.933,8.933,0,0,0,12,24.775V61.712c0,.038.01.076.01.115,0,.019-.01.038-.01.057,0,.057.02.115.02.172a8.938,8.938,0,0,0,9.039,8.431H45.553v4.78H33.711a3.826,3.826,0,1,0,0,7.647H65.289a3.826,3.826,0,1,0,0-7.647H53.447v-4.78H77.941a8.931,8.931,0,0,0,9.039-8.431c0-.057.02-.115.02-.172,0-.019-.01-.038-.01-.057,0-.038.01-.076.01-.115V24.775A8.933,8.933,0,0,0,77.941,16ZM21.059,23.647H77.941a1.149,1.149,0,0,1,1.165,1.128V58.061H19.895V24.775A1.149,1.149,0,0,1,21.059,23.647Z" transform="translate(-12 -16)" fill="#fff"/>
    </g>
    <g id="Group_95" data-name="Group 95" transform="translate(43.12 88.333)">
      <path id="Path_147" data-name="Path 147" d="M21.346,44.53H6.962A1.959,1.959,0,0,0,5,46.486v.754a.56.56,0,0,0,.559.559H22.744a.557.557,0,0,0,.559-.559v-.754A1.958,1.958,0,0,0,21.346,44.53Z" transform="translate(-5 -25.019)" fill="#fff"/>
      <path id="Path_148" data-name="Path 148" d="M8.311,40.832H22.7c.084,0,.168.006.251.011a2.719,2.719,0,0,0-2.655-2.163H10.715A2.719,2.719,0,0,0,8.06,40.843C8.144,40.837,8.228,40.832,8.311,40.832Z" transform="translate(-6.35 -22.438)" fill="#fff"/>
      <path id="Path_149" data-name="Path 149" d="M34.784,21.584l-12.1-4.862.643-1.621.492.2a.676.676,0,0,0,.207.039.562.562,0,0,0,.52-.352l.609-1.593a.534.534,0,0,0-.006-.425.544.544,0,0,0-.307-.3L17.28,9.658a.556.556,0,0,0-.727.313l-.615,1.587a.556.556,0,0,0,.313.727l.469.19-2.738,6.874-.475-.19a.56.56,0,0,0-.727.313l-.7,1.749a.548.548,0,0,0,.006.43.541.541,0,0,0,.3.3l7.561,3.012a.676.676,0,0,0,.207.039.613.613,0,0,0,.224-.045.589.589,0,0,0,.3-.307l.71-1.755a.565.565,0,0,0-.313-.727l-.481-.19.6-1.526L33.3,25.311a2.016,2.016,0,0,0,.743.14,1.933,1.933,0,0,0,.788-.162,2.005,2.005,0,0,0-.05-3.705Z" transform="translate(-8.104 -9.617)" fill="#fff"/>
    </g>
  </g>
</svg>
