<svg xmlns="http://www.w3.org/2000/svg" width="75.14" height="67.231" viewBox="0 0 75.14 67.231">
  <g id="Group_102" data-name="Group 102" transform="translate(-2.5 -7.5)">
    <path id="Path_150" data-name="Path 150" d="M40.386,66.821V47.047A3.586,3.586,0,0,1,42.364,43.8l10.124-5.3V9.319A1.79,1.79,0,0,0,50.669,7.5H4.319A1.79,1.79,0,0,0,2.5,9.319V70.38A1.84,1.84,0,0,0,4.319,72.2H46.4l-4.113-2.136A3.661,3.661,0,0,1,40.386,66.821ZM26.466,18.1H43.708a1.819,1.819,0,1,1,0,3.638H26.466a1.819,1.819,0,1,1,0-3.638Zm0,13.683H43.708A1.84,1.84,0,0,1,45.528,33.6a1.79,1.79,0,0,1-1.819,1.819H26.466A1.79,1.79,0,0,1,24.647,33.6,1.84,1.84,0,0,1,26.466,31.782ZM20.3,59.228l-4.9,4.9a1.866,1.866,0,0,1-1.266.554,1.574,1.574,0,0,1-1.266-.554L9.935,61.205a1.846,1.846,0,0,1,2.61-2.61l1.582,1.582,3.638-3.638a1.862,1.862,0,0,1,2.61,0A2.044,2.044,0,0,1,20.3,59.228Zm0-13.683-4.9,4.9A2.037,2.037,0,0,1,14.127,51a1.574,1.574,0,0,1-1.266-.554L9.935,47.522a1.846,1.846,0,0,1,2.61-2.61l1.582,1.582,3.638-3.638a1.862,1.862,0,0,1,2.61,0A2.044,2.044,0,0,1,20.3,45.545Zm0-13.683-4.9,4.9a1.866,1.866,0,0,1-1.266.554,1.574,1.574,0,0,1-1.266-.554L9.935,33.839a1.846,1.846,0,1,1,2.61-2.61l1.582,1.582,3.638-3.638a1.862,1.862,0,0,1,2.61,0A2.044,2.044,0,0,1,20.3,31.861Zm0-13.683-4.9,4.9a1.867,1.867,0,0,1-1.266.554,1.574,1.574,0,0,1-1.266-.554L9.935,20.155a1.846,1.846,0,0,1,2.61-2.61l1.582,1.582,3.638-3.638a1.862,1.862,0,0,1,2.61,0A2.044,2.044,0,0,1,20.3,18.178ZM34.138,62.866H26.466a1.819,1.819,0,0,1,0-3.638h7.672a1.79,1.79,0,0,1,1.819,1.819A1.84,1.84,0,0,1,34.138,62.866Zm0-13.683H26.466a1.819,1.819,0,1,1,0-3.638h7.672a1.819,1.819,0,0,1,0,3.638Z" transform="translate(0 0)" fill="#fff"/>
    <path id="Path_151" data-name="Path 151" d="M72.37,46.2,57.5,54.109l14.87,7.83,14.791-7.83Z" transform="translate(-11.498 -8.09)" fill="#fff"/>
    <path id="Path_152" data-name="Path 152" d="M78.6,68.009V85.727l14.949-7.909V60.1Z" transform="translate(-15.909 -10.996)" fill="#fff"/>
    <path id="Path_153" data-name="Path 153" d="M55,77.817l14.949,7.909V68.009L55,60.1Z" transform="translate(-10.975 -10.996)" fill="#fff"/>
  </g>
</svg>
