<svg xmlns="http://www.w3.org/2000/svg" width="89" height="133" viewBox="0 0 89 133">
  <g id="pin-location-svgrepo-com" transform="translate(-3.009 -0.021)">
    <g id="Group_22849" data-name="Group 22849" transform="translate(3)">
      <path id="Path_79158" data-name="Path 79158" d="M44.513.021C19.93.021.009,19.281.009,43.054A41.871,41.871,0,0,0,3.742,60.309l40.771,72.712L85.268,60.309a41.589,41.589,0,0,0,3.741-17.255c0-23.781-19.921-43.033-44.5-43.033ZM44.7,75.694c-15.951,0-28.871-13.388-28.871-29.922,0-16.517,12.919-29.905,28.871-29.905,15.927,0,28.846,13.4,28.846,29.905,0,16.534-12.919,29.922-28.846,29.922Z" fill="#0682d9" fill-rule="evenodd"/>
    </g>
  </g>
</svg>
