<svg xmlns="http://www.w3.org/2000/svg" width="40" height="52.427" viewBox="0 0 40 52.427">
  <g id="Group_22849" data-name="Group 22849" transform="translate(-1763 -158)">
    <path id="Path_79158" data-name="Path 79158" d="M19.511.021C8.738.021.009,7.406.009,16.522a14.385,14.385,0,0,0,1.636,6.617L19.511,51.021,37.37,23.139a14.29,14.29,0,0,0,1.639-6.617c0-9.119-8.729-16.5-19.5-16.5Z" transform="translate(1763.491 158.479)" fill="#0682d9" stroke="#fff" stroke-width="1" fill-rule="evenodd"/>
    <path id="building-svgrepo-com" d="M17.087,4.064,9.56,1.053a.753.753,0,0,0-1.033.7V4.763H1.753A.753.753,0,0,0,1,5.516V16.807a.753.753,0,0,0,.753.753H16.807a.753.753,0,0,0,.753-.753V4.763A.753.753,0,0,0,17.087,4.064ZM2.505,6.269H8.527v9.785H2.505Zm7.527,9.785V2.864l6.022,2.409v1H11.538V7.774h4.516V9.28H11.538v1.505h4.516v1.505H11.538V13.8h4.516v2.258ZM5.516,9.28H7.775v1.505H5.516Zm-2.258,0H4.764v1.505H3.258ZM5.516,7.022H7.775V8.527H5.516Zm-2.258,0H4.764V8.527H3.258Zm2.258,4.516H7.775v1.505H5.516Zm-2.258,0H4.764v1.505H3.258ZM5.516,13.8H7.775V15.3H5.516Zm-2.258,0H4.764V15.3H3.258Z" transform="translate(1774 168.001)" fill="#fff"/>
  </g>
</svg>
