<svg xmlns="http://www.w3.org/2000/svg" width="75.122" height="89.752" viewBox="0 0 75.122 89.752">
  <g id="Layer_13" data-name="Layer 13" transform="translate(-7)">
    <path id="Path_154" data-name="Path 154" d="M82.122,78.73V1.8a1.8,1.8,0,0,0-1.8-1.8H8.8A1.8,1.8,0,0,0,7,1.8V78.73ZM30.336,64.711l-6.13,6.13a1.8,1.8,0,0,1-2.531,0L18.829,68a1.8,1.8,0,1,1,2.531-2.54l1.58,1.58L27.8,62.171a1.8,1.8,0,0,1,2.531,2.54Zm0-16.811-6.166,6.13a1.8,1.8,0,0,1-2.531,0l-2.845-2.872a1.8,1.8,0,0,1,2.567-2.513L22.9,50.261l4.865-4.856a1.8,1.8,0,0,1,2.567,2.5Zm0-16.82-6.13,6.13a1.8,1.8,0,0,1-2.531,0l-2.845-2.845a1.8,1.8,0,1,1,2.531-2.531l1.58,1.571L27.8,28.541a1.8,1.8,0,0,1,2.531,2.54Zm7.485-16.811H71.128a1.8,1.8,0,1,1,0,3.59H37.821a1.8,1.8,0,1,1,0-3.59Zm0,16.811H71.128a1.8,1.8,0,1,1,0,3.59H37.821a1.8,1.8,0,1,1,0-3.59Zm0,16.82H71.128a1.8,1.8,0,1,1,0,3.59H37.821a1.8,1.8,0,1,1,0-3.59Zm0,16.811H71.128a1.8,1.8,0,1,1,0,3.59H37.821a1.8,1.8,0,1,1,0-3.59Zm-19.027-49.7a1.8,1.8,0,0,1,2.531,0L22.9,16.6l4.865-4.865a1.806,1.806,0,1,1,2.567,2.54l-6.13,6.13a1.788,1.788,0,0,1-2.54,0l-2.836-2.845a1.8,1.8,0,0,1-.036-2.54ZM82.122,82.33v5.627a1.8,1.8,0,0,1-1.8,1.8H8.8a1.8,1.8,0,0,1-1.8-1.8V82.321Z" transform="translate(0)" fill="#fff"/>
  </g>
</svg>
