<svg xmlns="http://www.w3.org/2000/svg" width="219" height="64.798" viewBox="0 0 219 64.798">
  <g id="Group_69" data-name="Group 69" transform="translate(1662.15 -6480.77)">
    <path id="Path_72" data-name="Path 72" d="M768.3,348.945v-7.476h3.315a4.569,4.569,0,0,1,1.523.2,1.719,1.719,0,0,1,.814.717,2.157,2.157,0,0,1,.309,1.124,1.9,1.9,0,0,1-.513,1.344,2.6,2.6,0,0,1-1.629.692,2.687,2.687,0,0,1,.6.375,4.885,4.885,0,0,1,.814.994l1.3,2.036h-1.246l-.985-1.556a12.016,12.016,0,0,0-.717-1.034,2.353,2.353,0,0,0-.5-.5,1.377,1.377,0,0,0-.456-.2,2.824,2.824,0,0,0-.554-.041h-1.14v3.323Zm.994-4.178h2.126a3.257,3.257,0,0,0,1.059-.138,1.157,1.157,0,0,0,.578-.448,1.2,1.2,0,0,0,.2-.676,1.108,1.108,0,0,0-.391-.871,1.784,1.784,0,0,0-1.214-.342h-2.362Z" transform="translate(-2430.45 6194.437)" fill="#fff"/>
    <path id="Path_73" data-name="Path 73" d="M784.089,347.645l.953.114a2.313,2.313,0,0,1-.814,1.287,2.794,2.794,0,0,1-3.429-.269,2.859,2.859,0,0,1-.7-2.052,2.989,2.989,0,0,1,.709-2.126,2.386,2.386,0,0,1,1.824-.749,2.313,2.313,0,0,1,1.776.741,2.932,2.932,0,0,1,.684,2.077v.244h-4.072a2.085,2.085,0,0,0,.5,1.368,1.49,1.49,0,0,0,1.132.472,1.466,1.466,0,0,0,.863-.261,1.8,1.8,0,0,0,.57-.847Zm-3.013-1.49h3.013a1.833,1.833,0,0,0-.342-1.018,1.409,1.409,0,0,0-1.14-.538,1.466,1.466,0,0,0-1.059.423,1.629,1.629,0,0,0-.448,1.132Z" transform="translate(-2432.639 6193.995)" fill="#fff"/>
    <path id="Path_74" data-name="Path 74" d="M794.124,348.716a3.574,3.574,0,0,1-.985.611,2.745,2.745,0,0,1-1.01.179,1.946,1.946,0,0,1-1.368-.44,1.409,1.409,0,0,1-.48-1.116,1.473,1.473,0,0,1,.179-.725,1.563,1.563,0,0,1,.472-.529,2.443,2.443,0,0,1,.66-.3,7.812,7.812,0,0,1,.814-.13,8.475,8.475,0,0,0,1.629-.318V345.7a1.026,1.026,0,0,0-.261-.814,1.547,1.547,0,0,0-1.042-.31,1.628,1.628,0,0,0-.961.228,1.368,1.368,0,0,0-.456.814l-.9-.122a2.207,2.207,0,0,1,.407-.937,1.791,1.791,0,0,1,.814-.546,3.787,3.787,0,0,1,1.23-.187,3.1,3.1,0,0,1,1.124.163,1.491,1.491,0,0,1,.643.407,1.54,1.54,0,0,1,.285.627,5.13,5.13,0,0,1,.041.814v1.222a12.22,12.22,0,0,0,.065,1.629,1.946,1.946,0,0,0,.228.651h-.961A2.063,2.063,0,0,1,794.124,348.716Zm-.081-2.052a6.575,6.575,0,0,1-1.5.35,3.365,3.365,0,0,0-.814.179.815.815,0,0,0-.358.3.749.749,0,0,0-.13.432.814.814,0,0,0,.277.619,1.205,1.205,0,0,0,.814.244,1.913,1.913,0,0,0,.945-.236,1.417,1.417,0,0,0,.6-.635,2.224,2.224,0,0,0,.147-.92Z" transform="translate(-2434.529 6193.999)" fill="#fff"/>
    <path id="Path_75" data-name="Path 75" d="M800.88,348.946V341.47h.912v7.476Z" transform="translate(-2436.496 6194.436)" fill="#fff"/>
    <path id="Path_76" data-name="Path 76" d="M813.64,348.946V341.47h5.408v.88h-4.422v2.289h4.137v.88h-4.137v2.541h4.593v.888Z" transform="translate(-2438.865 6194.436)" fill="#fff"/>
    <path id="Path_77" data-name="Path 77" d="M824.65,347.763l.912-.138a1.229,1.229,0,0,0,.423.814,1.458,1.458,0,0,0,.977.293,1.433,1.433,0,0,0,.936-.253.814.814,0,0,0,.31-.611.57.57,0,0,0-.277-.489,3.673,3.673,0,0,0-.937-.31,8.843,8.843,0,0,1-1.4-.44,1.3,1.3,0,0,1-.586-.513,1.344,1.344,0,0,1-.2-.733,1.441,1.441,0,0,1,.163-.668,1.53,1.53,0,0,1,.456-.513,1.824,1.824,0,0,1,.578-.269,2.819,2.819,0,0,1,.815-.106,3.111,3.111,0,0,1,1.116.179,1.564,1.564,0,0,1,.717.5,2.026,2.026,0,0,1,.309.814l-.9.122a.977.977,0,0,0-.35-.652,1.311,1.311,0,0,0-.814-.236,1.507,1.507,0,0,0-.9.212.6.6,0,0,0-.269.489.48.48,0,0,0,.114.326.815.815,0,0,0,.35.244l.814.236a10.083,10.083,0,0,1,1.36.424,1.279,1.279,0,0,1,.6.48,1.344,1.344,0,0,1,.22.814,1.629,1.629,0,0,1-.261.871,1.808,1.808,0,0,1-.814.627,2.859,2.859,0,0,1-1.148.22,2.525,2.525,0,0,1-1.629-.44,2.036,2.036,0,0,1-.684-1.295Z" transform="translate(-2440.908 6193.999)" fill="#fff"/>
    <path id="Path_78" data-name="Path 78" d="M836.484,348.161l.138.814a3.943,3.943,0,0,1-.7.081,1.629,1.629,0,0,1-.814-.163.9.9,0,0,1-.383-.415,3.078,3.078,0,0,1-.114-1.083v-3.119H834v-.709h.676v-1.344l.912-.554v1.9h.92v.709h-.92v3.168a1.629,1.629,0,0,0,.049.5.334.334,0,0,0,.155.179.579.579,0,0,0,.318.065A2.761,2.761,0,0,0,836.484,348.161Z" transform="translate(-2442.643 6194.399)" fill="#fff"/>
    <path id="Path_79" data-name="Path 79" d="M844.694,348.716a3.545,3.545,0,0,1-.977.611,2.786,2.786,0,0,1-1.018.179,1.947,1.947,0,0,1-1.368-.44,1.434,1.434,0,0,1-.481-1.116,1.564,1.564,0,0,1,.179-.725,1.581,1.581,0,0,1,.481-.529,2.444,2.444,0,0,1,.66-.3,7.466,7.466,0,0,1,.814-.13,8.471,8.471,0,0,0,1.629-.318q0-.2,0-.244a1.026,1.026,0,0,0-.261-.814,2.011,2.011,0,0,0-2-.081,1.368,1.368,0,0,0-.456.814l-.9-.122a2.209,2.209,0,0,1,.4-.937,1.776,1.776,0,0,1,.815-.546,3.72,3.72,0,0,1,1.23-.187,3.15,3.15,0,0,1,1.124.163,1.458,1.458,0,0,1,.635.407,1.352,1.352,0,0,1,.285.627,4.893,4.893,0,0,1,.049.814v1.222a12.832,12.832,0,0,0,.057,1.629,1.962,1.962,0,0,0,.236.652h-.945a2.058,2.058,0,0,1-.187-.627Zm-.073-2.052a6.69,6.69,0,0,1-1.5.35,3.255,3.255,0,0,0-.814.179.8.8,0,0,0-.212,1.352,1.181,1.181,0,0,0,.814.244,1.89,1.89,0,0,0,.945-.236,1.434,1.434,0,0,0,.611-.635,2.224,2.224,0,0,0,.147-.92Z" transform="translate(-2443.914 6193.999)" fill="#fff"/>
    <path id="Path_80" data-name="Path 80" d="M853.329,348.161l.13.814a3.858,3.858,0,0,1-.692.081,1.629,1.629,0,0,1-.815-.163.9.9,0,0,1-.383-.415,3.259,3.259,0,0,1-.114-1.083v-3.119h-.676v-.709h.676v-1.344l.912-.554v1.9h.928v.709h-.928v3.168a1.631,1.631,0,0,0,.049.5.35.35,0,0,0,.163.179.546.546,0,0,0,.31.065,2.87,2.87,0,0,0,.44-.033Z" transform="translate(-2445.757 6194.399)" fill="#fff"/>
    <path id="Path_81" data-name="Path 81" d="M861.728,347.645l.945.114a2.264,2.264,0,0,1-.814,1.287,2.793,2.793,0,0,1-3.429-.269,2.859,2.859,0,0,1-.7-2.052,3.03,3.03,0,0,1,.7-2.126,2.444,2.444,0,0,1,1.832-.749,2.313,2.313,0,0,1,1.775.741,2.932,2.932,0,0,1,.684,2.077q0,.086,0,.244h-4.072a2.134,2.134,0,0,0,.5,1.368,1.515,1.515,0,0,0,1.14.472,1.417,1.417,0,0,0,.855-.261,1.752,1.752,0,0,0,.578-.847Zm-3.013-1.49h3.021a1.832,1.832,0,0,0-.342-1.018,1.409,1.409,0,0,0-1.14-.538,1.5,1.5,0,0,0-1.067.423,1.694,1.694,0,0,0-.472,1.132Z" transform="translate(-2447.045 6193.995)" fill="#fff"/>
    <path id="Path_82" data-name="Path 82" d="M875,348.946v-7.476h2.81a3.372,3.372,0,0,1,1.368.228,1.742,1.742,0,0,1,.814.692,1.857,1.857,0,0,1,.293.994,1.686,1.686,0,0,1-.261.9,1.8,1.8,0,0,1-.814.684,1.98,1.98,0,0,1,1.042.684,1.791,1.791,0,0,1,.448,1.14,2.207,2.207,0,0,1-.22.977,1.832,1.832,0,0,1-.546.692,2.257,2.257,0,0,1-.814.366,4.62,4.62,0,0,1-1.205.13Zm.994-4.333h1.629a3.6,3.6,0,0,0,.945-.09,1.067,1.067,0,0,0,.57-.375,1.051,1.051,0,0,0,.187-.652,1.172,1.172,0,0,0-.179-.652.814.814,0,0,0-.5-.391,4.112,4.112,0,0,0-1.14-.106h-1.49Zm0,3.445h1.857a4.324,4.324,0,0,0,.676,0,1.572,1.572,0,0,0,.57-.2,1.091,1.091,0,0,0,.375-.415,1.213,1.213,0,0,0,.155-.627,1.238,1.238,0,0,0-.22-.733,1.116,1.116,0,0,0-.594-.432,3.756,3.756,0,0,0-1.091-.122h-1.727Z" transform="translate(-2450.251 6194.437)" fill="#fff"/>
    <path id="Path_83" data-name="Path 83" d="M886.56,349.386V343.97h.814v.814a2.207,2.207,0,0,1,.586-.766,1.018,1.018,0,0,1,.586-.179,1.8,1.8,0,0,1,.945.293l-.318.855a1.246,1.246,0,0,0-.627-.2.928.928,0,0,0-.546.179,1.075,1.075,0,0,0-.342.5,3.73,3.73,0,0,0-.147,1.075v2.834Z" transform="translate(-2452.397 6193.997)" fill="#fff"/>
    <path id="Path_84" data-name="Path 84" d="M893.5,346.676a2.769,2.769,0,0,1,.814-2.223,2.493,2.493,0,0,1,1.7-.6,2.443,2.443,0,0,1,1.824.733,2.761,2.761,0,0,1,.708,2.02,3.648,3.648,0,0,1-.309,1.629,2.223,2.223,0,0,1-.912.928,2.679,2.679,0,0,1-1.311.334,2.443,2.443,0,0,1-1.841-.733,2.907,2.907,0,0,1-.676-2.085Zm.945,0a2.3,2.3,0,0,0,.456,1.564,1.515,1.515,0,0,0,2.28,0,2.345,2.345,0,0,0,.448-1.58,2.2,2.2,0,0,0-.456-1.523,1.433,1.433,0,0,0-1.132-.521,1.458,1.458,0,0,0-1.14.513,2.264,2.264,0,0,0-.456,1.547Z" transform="translate(-2453.682 6193.995)" fill="#fff"/>
    <path id="Path_85" data-name="Path 85" d="M904.14,348.946V341.47h.912v4.259l2.174-2.2h1.189l-2.069,2,2.28,3.412H907.5l-1.792-2.769-.652.619v2.15Z" transform="translate(-2455.659 6194.436)" fill="#fff"/>
    <path id="Path_86" data-name="Path 86" d="M917.259,347.645l.953.114a2.264,2.264,0,0,1-.814,1.287,2.81,2.81,0,0,1-3.437-.269,2.858,2.858,0,0,1-.692-2.052,2.989,2.989,0,0,1,.7-2.126,2.444,2.444,0,0,1,1.824-.749,2.3,2.3,0,0,1,1.775.741,2.9,2.9,0,0,1,.692,2.077v.244h-4.072a2.085,2.085,0,0,0,.5,1.368,1.5,1.5,0,0,0,1.132.472,1.45,1.45,0,0,0,.863-.261,1.8,1.8,0,0,0,.57-.847Zm-3.013-1.49h3.03a1.767,1.767,0,0,0-.35-1.018,1.393,1.393,0,0,0-1.132-.537,1.483,1.483,0,0,0-1.067.423A1.7,1.7,0,0,0,914.246,346.154Z" transform="translate(-2457.352 6193.995)" fill="#fff"/>
    <path id="Path_87" data-name="Path 87" d="M923.82,349.386V343.97h.814v.814a2.11,2.11,0,0,1,.578-.766,1.027,1.027,0,0,1,.595-.179,1.775,1.775,0,0,1,.937.293l-.309.855a1.3,1.3,0,0,0-.676-.2.888.888,0,0,0-.537.179.969.969,0,0,0-.342.5,3.458,3.458,0,0,0-.155,1.075v2.834Z" transform="translate(-2459.312 6193.997)" fill="#fff"/>
    <path id="Path_88" data-name="Path 88" d="M934.644,348.72a3.664,3.664,0,0,1-.977.611,2.785,2.785,0,0,1-1.018.179,1.947,1.947,0,0,1-1.368-.44,1.433,1.433,0,0,1-.481-1.116,1.474,1.474,0,0,1,.163-.725,1.565,1.565,0,0,1,.472-.529,2.494,2.494,0,0,1,.668-.3,7.464,7.464,0,0,1,.814-.13,8.48,8.48,0,0,0,1.629-.318v-.244a.994.994,0,0,0-.261-.814,1.531,1.531,0,0,0-1.042-.31,1.58,1.58,0,0,0-.953.228,1.327,1.327,0,0,0-.456.814l-.872-.106a2.206,2.206,0,0,1,.407-.937,1.792,1.792,0,0,1,.814-.546,3.786,3.786,0,0,1,1.23-.187,3.169,3.169,0,0,1,1.132.163,1.506,1.506,0,0,1,.635.407,1.441,1.441,0,0,1,.285.627,4.88,4.88,0,0,1,.049.814v1.222a12.82,12.82,0,0,0,.057,1.629,2.144,2.144,0,0,0,.228.652h-.953A2.06,2.06,0,0,1,934.644,348.72Zm-.073-2.052a6.8,6.8,0,0,1-1.5.35,3.451,3.451,0,0,0-.814.179.814.814,0,0,0-.358.3.749.749,0,0,0-.13.432.814.814,0,0,0,.277.619,1.205,1.205,0,0,0,.815.244,1.889,1.889,0,0,0,.945-.236,1.433,1.433,0,0,0,.611-.635,2.224,2.224,0,0,0,.147-.92Z" transform="translate(-2460.607 6193.995)" fill="#fff"/>
    <path id="Path_89" data-name="Path 89" d="M941.147,349.834l.888.13a.88.88,0,0,0,.31.6,1.539,1.539,0,0,0,.937.252,1.629,1.629,0,0,0,.985-.252,1.311,1.311,0,0,0,.472-.717,6.8,6.8,0,0,0,.065-1.173,1.9,1.9,0,0,1-1.5.709,2.044,2.044,0,0,1-1.735-.814,3.1,3.1,0,0,1-.611-1.93,3.6,3.6,0,0,1,.285-1.433,2.134,2.134,0,0,1,2.06-1.368,1.922,1.922,0,0,1,1.58.774v-.643h.814v4.683a4.471,4.471,0,0,1-.252,1.792,1.882,1.882,0,0,1-.814.814,2.809,2.809,0,0,1-1.368.31,2.59,2.59,0,0,1-1.572-.44,1.474,1.474,0,0,1-.546-1.295Zm.757-3.258a2.321,2.321,0,0,0,.423,1.556,1.384,1.384,0,0,0,2.117,0,2.248,2.248,0,0,0,.432-1.531,2.223,2.223,0,0,0-.44-1.5,1.376,1.376,0,0,0-1.067-.5,1.3,1.3,0,0,0-1.034.5A2.167,2.167,0,0,0,941.9,346.576Z" transform="translate(-2462.492 6193.997)" fill="#fff"/>
    <path id="Path_90" data-name="Path 90" d="M955.247,347.645l.945.114a2.264,2.264,0,0,1-.814,1.287,2.81,2.81,0,0,1-3.437-.269,2.858,2.858,0,0,1-.692-2.052,3.03,3.03,0,0,1,.7-2.126,2.444,2.444,0,0,1,1.824-.749,2.3,2.3,0,0,1,1.775.741,2.9,2.9,0,0,1,.692,2.077q0,.086,0,.244h-4.072a2.085,2.085,0,0,0,.5,1.368,1.5,1.5,0,0,0,1.132.472,1.425,1.425,0,0,0,.863-.261A1.807,1.807,0,0,0,955.247,347.645Zm-3.013-1.49h3.022a1.767,1.767,0,0,0-.35-1.018,1.393,1.393,0,0,0-1.132-.537,1.483,1.483,0,0,0-1.067.423,1.629,1.629,0,0,0-.472,1.132Z" transform="translate(-2464.401 6193.995)" fill="#fff"/>
    <path id="Path_91" data-name="Path 91" d="M966.88,348.946l2.875-7.476h1.067l3.062,7.476h-1.132l-.888-2.264h-3.127l-.814,2.264Zm2.158-3.07h2.541l-.814-2.069c-.236-.635-.415-1.148-.529-1.556a10.193,10.193,0,0,1-.407,1.433Z" transform="translate(-2467.303 6194.436)" fill="#fff"/>
    <path id="Path_92" data-name="Path 92" d="M982.927,349.416V348.6a1.987,1.987,0,0,1-1.718.92,2.207,2.207,0,0,1-.9-.187,1.556,1.556,0,0,1-.619-.456,1.726,1.726,0,0,1-.277-.684,4.333,4.333,0,0,1-.057-.855V344h.912v3.005a5.936,5.936,0,0,0,.057.969.953.953,0,0,0,.366.562,1.156,1.156,0,0,0,.7.212,1.555,1.555,0,0,0,.774-.212,1.254,1.254,0,0,0,.513-.578,2.964,2.964,0,0,0,.147-1.059V344h.92v5.416Z" transform="translate(-2469.618 6193.967)" fill="#fff"/>
    <path id="Path_93" data-name="Path 93" d="M993.06,347.4l.9.122a2.33,2.33,0,0,1-.757,1.458,2.215,2.215,0,0,1-1.5.529,2.33,2.33,0,0,1-1.784-.725,2.932,2.932,0,0,1-.676-2.085,3.764,3.764,0,0,1,.293-1.539,2,2,0,0,1,.88-.985,2.638,2.638,0,0,1,1.295-.326,2.224,2.224,0,0,1,1.442.448,1.987,1.987,0,0,1,.717,1.262l-.888.138a1.5,1.5,0,0,0-.456-.814,1.173,1.173,0,0,0-.814-.277,1.441,1.441,0,0,0-1.124.5,2.361,2.361,0,0,0-.432,1.58,2.444,2.444,0,0,0,.416,1.58,1.352,1.352,0,0,0,1.091.5,1.271,1.271,0,0,0,.9-.334,1.628,1.628,0,0,0,.489-1.026Z" transform="translate(-2471.452 6193.995)" fill="#fff"/>
    <path id="Path_94" data-name="Path 94" d="M1000.961,348.161l.138.814a3.861,3.861,0,0,1-.692.081,1.629,1.629,0,0,1-.814-.163.9.9,0,0,1-.383-.415,3.259,3.259,0,0,1-.114-1.083v-3.119h-.676v-.709h.676v-1.344l.912-.554v1.9h.92v.709h-.92v3.168a1.631,1.631,0,0,0,.049.5.334.334,0,0,0,.155.179.578.578,0,0,0,.318.065,2.672,2.672,0,0,0,.432-.033Z" transform="translate(-2473.156 6194.399)" fill="#fff"/>
    <path id="Path_95" data-name="Path 95" d="M1005.73,342.521V341.47h.92v1.051Zm0,6.426V343.53h.92v5.416Z" transform="translate(-2474.512 6194.436)" fill="#fff"/>
    <path id="Path_96" data-name="Path 96" d="M1011.228,346.676a2.794,2.794,0,0,1,.814-2.223,2.492,2.492,0,0,1,1.7-.6,2.443,2.443,0,0,1,1.824.733,2.761,2.761,0,0,1,.708,2.02,3.543,3.543,0,0,1-.31,1.629,2.223,2.223,0,0,1-.912.928,2.68,2.68,0,0,1-1.311.334,2.443,2.443,0,0,1-1.841-.733,2.908,2.908,0,0,1-.676-2.085Zm.945,0a2.345,2.345,0,0,0,.456,1.564,1.458,1.458,0,0,0,1.14.513,1.441,1.441,0,0,0,1.14-.521,2.346,2.346,0,0,0,.456-1.58,2.2,2.2,0,0,0-.464-1.523,1.425,1.425,0,0,0-1.132-.521,1.458,1.458,0,0,0-1.14.513,2.3,2.3,0,0,0-.456,1.556Z" transform="translate(-2475.531 6193.995)" fill="#fff"/>
    <path id="Path_97" data-name="Path 97" d="M1021.86,349.388v-5.416h.814v.766a1.938,1.938,0,0,1,1.718-.888,2.322,2.322,0,0,1,.9.171,1.417,1.417,0,0,1,.611.464,1.759,1.759,0,0,1,.293.676,5.565,5.565,0,0,1,.049.9v3.331h-.92V346.13a2.443,2.443,0,0,0-.106-.814.814.814,0,0,0-.383-.44,1.157,1.157,0,0,0-.635-.171,1.523,1.523,0,0,0-1.018.375,1.84,1.84,0,0,0-.4,1.336v2.956Z" transform="translate(-2477.506 6193.995)" fill="#fff"/>
    <path id="Path_98" data-name="Path 98" d="M1031.62,347.763l.912-.138a1.262,1.262,0,0,0,.423.814,1.49,1.49,0,0,0,.977.293,1.433,1.433,0,0,0,.937-.252.814.814,0,0,0,.31-.611.561.561,0,0,0-.269-.489,3.917,3.917,0,0,0-.945-.31,8.667,8.667,0,0,1-1.393-.44,1.321,1.321,0,0,1-.595-.513,1.344,1.344,0,0,1-.2-.733,1.44,1.44,0,0,1,.163-.668,1.629,1.629,0,0,1,.456-.513,1.791,1.791,0,0,1,.586-.269,2.728,2.728,0,0,1,.814-.106,3.112,3.112,0,0,1,1.116.179,1.564,1.564,0,0,1,.717.5,1.923,1.923,0,0,1,.318.814l-.9.122a.977.977,0,0,0-.35-.652,1.311,1.311,0,0,0-.814-.236,1.507,1.507,0,0,0-.9.212.6.6,0,0,0-.269.489.529.529,0,0,0,.114.326.815.815,0,0,0,.35.244l.814.236a10.934,10.934,0,0,1,1.36.423,1.36,1.36,0,0,1,.6.481,1.342,1.342,0,0,1,.22.814,1.563,1.563,0,0,1-.269.871,1.808,1.808,0,0,1-.814.627,2.819,2.819,0,0,1-1.14.22,2.541,2.541,0,0,1-1.629-.44A2.069,2.069,0,0,1,1031.62,347.763Z" transform="translate(-2479.317 6193.999)" fill="#fff"/>
    <path id="Path_99" data-name="Path 99" d="M818.342,296.985h.31a11.6,11.6,0,1,0,.212-23.195H790.44v7.134h28.309a4.48,4.48,0,0,1-.1,8.959H790.44v7.126h0v15.718h7.582l.073-15.311h8.641l23.439,22.266V308.167l-13.031-11.158Z" transform="translate(-2434.559 6206.996)" fill="#fff"/>
    <rect id="Rectangle_49" data-name="Rectangle 49" width="30.793" height="7.216" transform="translate(-1594.52 6496.749)" fill="#fff"/>
    <rect id="Rectangle_50" data-name="Rectangle 50" width="37.504" height="7.085" transform="translate(-1594.52 6480.77)" fill="#fff"/>
    <rect id="Rectangle_51" data-name="Rectangle 51" width="37.504" height="7.085" transform="translate(-1594.52 6512.72)" fill="#fff"/>
    <path id="Path_100" data-name="Path 100" d="M948.4,285.308A11.532,11.532,0,0,0,937.383,273.8h-27.9v7.085h27.495a4.447,4.447,0,0,1,.155,8.893H909.44v23.032h27.9a11.5,11.5,0,0,0,7.786-19.489,11.476,11.476,0,0,0,3.274-8.014Zm-31.844,20.418v-8.893h20.418a4.447,4.447,0,0,1,.155,8.893Z" transform="translate(-2456.643 6206.995)" fill="#fff"/>
    <path id="Path_101" data-name="Path 101" d="M792.62,273.77v38.921h21.142V305.6H800.178V287.175l30.647,32.577.024-11.377-31.917-34.6Z" transform="translate(-2292.073 6207)" fill="#e41739"/>
  </g>
</svg>
