<svg xmlns="http://www.w3.org/2000/svg" width="335.555" height="239.614" viewBox="0 0 335.555 239.614">
  <g id="Group_23324" data-name="Group 23324" transform="translate(-7698 -2562)">
    <path id="Path_80523" data-name="Path 80523" d="M338.758,158.916a5.329,5.329,0,0,0,.631-.111c5.286-1.9,6.035-5.757,5.984-11.006-.285-28.945-.159-57.894-.094-86.841.005-2.334-.467-3.683-2.785-4.9a17.355,17.355,0,0,1-8.589-20.029,17.914,17.914,0,0,1,34.567-.34,17.439,17.439,0,0,1-8.208,20.21c-2.459,1.359-3.12,2.791-3.111,5.465q.154,45.1.007,90.211c-.008,2.628.556,4.115,3.054,5.5,6.025,3.351,8.958,8.837,8.973,15.753q.051,23.4,0,46.79c-.022,8.019-3.629,13.965-11.02,17.133-7.291,3.125-13.9,1.49-19.627-3.908-.359-.338-.75-.643-.949-.813-3.322,4.112-6.309,8.459-9.938,12.179a57.5,57.5,0,0,1-42.564,17.979c-55.783.056-111.568.156-167.35-.047-21.563-.079-38.227-9.817-50.266-27.6-.488-.721-.951-1.46-1.434-2.186a4.3,4.3,0,0,0-.467-.449c-.769.662-1.546,1.369-2.361,2.028-5.635,4.553-11.887,5.7-18.55,2.794-6.764-2.954-10.713-8.344-10.823-15.721q-.367-24.7-.009-49.408c.085-6.589,3.5-11.645,9.292-14.795,1.882-1.024,2.657-2.02,2.651-4.212q-.113-46.041-.013-92.083a4.1,4.1,0,0,0-2.524-4.3,17.36,17.36,0,0,1-8.915-19.891,17.9,17.9,0,0,1,34.734-.189A17.346,17.346,0,0,1,60.358,56.12C58,57.366,57.663,58.8,57.667,61.065c.051,29.072.2,58.146-.11,87.216-.057,5.436,1.112,9.006,6.13,10.32C89.75,93.985,136.344,57.887,207.318,58.952,268.136,59.864,321.372,102.406,338.758,158.916ZM201.642,130.463v.023c-18.469,0-36.941-.253-55.4.065-22.128.381-40.185,18.82-40.589,40.9a41.9,41.9,0,0,0,40.99,42.784c12.724.246,25.456.064,38.184.065,23.585,0,47.171.148,70.754-.049a41.872,41.872,0,0,0,.347-83.741C237.832,130.28,219.736,130.463,201.642,130.463Z" transform="translate(7664.34 2539.349)" fill="#fff"/>
    <path id="Path_80524" data-name="Path 80524" d="M201.477,142.434c18.091,0,36.182-.106,54.272.039a29.732,29.732,0,0,1,28.885,23.7c2.837,14.029-4.05,27.871-17.164,33.443a32.759,32.759,0,0,1-12.3,2.592q-53.709.3-107.42.083a29.871,29.871,0,0,1-30.132-29.832c-.03-16.684,13.264-29.916,30.339-30.005C165.794,142.358,183.635,142.43,201.477,142.434Zm-42.266,47.9a17.959,17.959,0,1,0-17.63-18.469A18.049,18.049,0,0,0,159.211,190.331ZM261.357,172.27a17.958,17.958,0,1,0-18.043,18.061A18.03,18.03,0,0,0,261.357,172.27Z" transform="translate(7664.34 2539.349)" fill="#fcfcfc" stroke="#0682d9" stroke-width="3"/>
  </g>
</svg>
