<svg xmlns="http://www.w3.org/2000/svg" width="16.716" height="26.513" viewBox="0 0 16.716 26.513">
  <g id="download_invoice" data-name="download invoice" transform="translate(-2286.001 -673)">
    <g id="invoice" transform="translate(2235.474 674)">
      <g id="Group_549" data-name="Group 549" transform="translate(50.526)">
        <path id="Path_775" data-name="Path 775" d="M66.7-.436a.92.92,0,0,0-1,.152L64.258.992a.1.1,0,0,1-.137,0L62.16-.762a.934.934,0,0,0-1.246,0L58.955.99a.1.1,0,0,1-.138,0L56.857-.762a.934.934,0,0,0-1.246,0L53.65.992a.1.1,0,0,1-.138,0L52.07-.284a.927.927,0,0,0-1.543.7V20.549a.929.929,0,0,0,1.546.7l1.441-1.276a.1.1,0,0,1,.137,0l1.961,1.754a.934.934,0,0,0,1.246,0l1.959-1.752a.1.1,0,0,1,.138,0l1.959,1.752a.934.934,0,0,0,1.246,0l1.961-1.754a.1.1,0,0,1,.138,0L65.7,21.249a.927.927,0,0,0,1.543-.7V.416A.919.919,0,0,0,66.7-.436ZM63.282,12.971H54.438a.416.416,0,1,1,0-.831h8.843a.415.415,0,0,1,0,.831Z" transform="translate(-50.526)" fill="#0682d9"/>
      </g>
    </g>
    <g id="Group_550" data-name="Group 550" transform="translate(2292.145 675.63)">
      <g id="Group_531" data-name="Group 531">
        <path id="Path_766" data-name="Path 766" d="M178.211,96.38a.909.909,0,1,1,1.049-.9.583.583,0,1,0,1.166,0,2.1,2.1,0,0,0-1.632-1.991V93.1a.583.583,0,1,0-1.166,0v.395A2.1,2.1,0,0,0,176,95.481a2.146,2.146,0,0,0,2.215,2.064.909.909,0,1,1-1.049.9.583.583,0,1,0-1.166,0,2.1,2.1,0,0,0,1.632,1.991v.476a.583.583,0,1,0,1.166,0v-.476a2.1,2.1,0,0,0,1.632-1.991,2.146,2.146,0,0,0-2.219-2.065Z" transform="translate(-175.996 -92.513)" fill="#fff"/>
      </g>
    </g>
    <g id="Group_551" data-name="Group 551" transform="translate(-9.801 6.487)">
      <g id="Ellipse_111" data-name="Ellipse 111" transform="translate(2298.288 681)" fill="#fff" stroke="#0682d9" stroke-width="1">
        <circle cx="6.013" cy="6.013" r="6.013" stroke="none"/>
        <circle cx="6.013" cy="6.013" r="5.513" fill="none"/>
      </g>
      <path id="Path_776" data-name="Path 776" d="M143.19,29.953a.418.418,0,0,0,.591,0l1.577-1.577a.418.418,0,1,0-.591-.591l-.863.863v-3.23a.418.418,0,1,0-.836,0v3.23l-.863-.863a.418.418,0,1,0-.591.591Z" transform="translate(2160.928 659.476)" fill="#0682d9"/>
    </g>
  </g>
</svg>
