<svg xmlns="http://www.w3.org/2000/svg" width="313" height="45" viewBox="0 0 313 45">
  <g id="Group_552" data-name="Group 552" transform="translate(-5760 -1240)">
    <rect id="Rectangle_953" data-name="Rectangle 953" width="313" height="45" transform="translate(5760 1240)" fill="none"/>
    <g id="bed" transform="translate(5778.643 1176.5)">
      <g id="Group_621" data-name="Group 621" transform="translate(8.101 82.668)">
        <g id="Group_620" data-name="Group 620">
          <path id="Path_809" data-name="Path 809" d="M159.678,154.6H150.5c-.449,0-1.2.222-1.2,1.725v2.3h11.576v-2.3C160.876,154.826,160.127,154.6,159.678,154.6Z" transform="translate(-149.3 -154.6)" fill="#757575"/>
        </g>
      </g>
      <g id="Group_623" data-name="Group 623" transform="translate(0 80)">
        <g id="Group_622" data-name="Group 622">
          <path id="Path_810" data-name="Path 810" d="M3.25,88H1.295V80H0V95.5H1.295v-4H18.562v4h1.3V88Z" transform="translate(0 -80)" fill="#757575"/>
        </g>
      </g>
      <g id="Group_625" data-name="Group 625" transform="translate(2.742 82.574)">
        <g id="Group_624" data-name="Group 624">
          <circle id="Ellipse_114" data-name="Ellipse 114" cx="2.107" cy="2.107" r="2.107" transform="translate(0 0)" fill="#757575"/>
        </g>
      </g>
    </g>
    <path id="bath" d="M16.884,39.75H2.768V34.768a1.107,1.107,0,0,1,2.042-.592,2.351,2.351,0,0,0,.237,2.873.415.415,0,0,0,.017.568l.391.391a.415.415,0,0,0,.587,0L9.33,34.72a.415.415,0,0,0,0-.587l-.391-.391a.415.415,0,0,0-.568-.017,2.348,2.348,0,0,0-2.22-.532,2.767,2.767,0,0,0-5.042,1.575V39.75H.83a.83.83,0,0,0-.83.83v.554a.83.83,0,0,0,.83.83h.277v1.107a3.313,3.313,0,0,0,1.107,2.475V46.67a.83.83,0,0,0,.83.83H3.6a.83.83,0,0,0,.83-.83v-.277h8.857v.277a.83.83,0,0,0,.83.83h.554a.83.83,0,0,0,.83-.83V45.547a3.313,3.313,0,0,0,1.107-2.475V41.964h.277a.83.83,0,0,0,.83-.83V40.58a.83.83,0,0,0-.831-.83Z" transform="translate(5818.786 1224.5)" fill="#757575"/>
    <g id="date" transform="translate(5846 1256.5)">
      <g id="Group_627" data-name="Group 627">
        <g id="Group_626" data-name="Group 626">
          <path id="Path_811" data-name="Path 811" d="M14.969,1.8h-1.8V.6a.6.6,0,0,0-1.2,0V1.8H4.79V.6a.6.6,0,1,0-1.2,0V1.8H1.8A1.8,1.8,0,0,0,0,3.593V14.969a1.8,1.8,0,0,0,1.8,1.8H14.969a1.8,1.8,0,0,0,1.8-1.8V3.593A1.8,1.8,0,0,0,14.969,1.8Zm.6,13.173a.6.6,0,0,1-.6.6H1.8a.6.6,0,0,1-.6-.6v-8.9H15.568Z" fill="#757575"/>
        </g>
      </g>
      <g id="Group_629" data-name="Group 629" transform="translate(4.199 7.39)">
        <g id="Group_628" data-name="Group 628">
          <path id="Path_812" data-name="Path 812" d="M127.861,239.311a.6.6,0,0,0-.832,0l-4.367,4.367-1.972-1.972a.6.6,0,0,0-.847.847l2.4,2.4a.6.6,0,0,0,.847,0l4.79-4.79a.6.6,0,0,0-.019-.852Z" transform="translate(-119.676 -239.143)" fill="#757575"/>
        </g>
      </g>
    </g>
    <g id="hammer" transform="translate(5874.999 1238.72)">
      <path id="Path_813" data-name="Path 813" d="M16.853,23.533,14.37,26.016c-.853-.852-1.922-1.856-1.816-2.405-.057-.028-.112-.057-.166-.088a1,1,0,0,1-.088.1L8.538,27.388a1.555,1.555,0,0,1-.446,1.271L2.661,34.09a1.558,1.558,0,0,1-2.2-2.2l5.431-5.431a1.554,1.554,0,0,1,1.271-.446l3.761-3.762a.985.985,0,0,1,.178-.139l-.008-.036a.849.849,0,0,0-.029-.086l-.024-.067q-.015-.035-.03-.072c-.017-.042-.036-.088-.059-.134l-.065-.133-.075-.131a1.745,1.745,0,0,0-.107-.172l-.065-.1-.061-.08c-.051-.067-.1-.13-.149-.185l-.036-.039a2.176,2.176,0,0,0-.214-.216l-.064-.057c-.027-.025-.054-.05-.083-.073L9.88,20.42l-.012-.009a1.581,1.581,0,0,0-.212-.133l-.091-.052a1.234,1.234,0,0,0-.2-.1l-.108-.045-.064-.027a.5.5,0,0,0-.068-.027l-.167-.047-.111-.031a1.147,1.147,0,0,0-.143-.036l-.448-.066a.3.3,0,0,1-.043-.579l.441-.127a1.639,1.639,0,0,1,.237-.047L9,19.077l.194-.03a1.206,1.206,0,0,1,.168-.012h.186a2.163,2.163,0,0,1,.376.008l.086.007a2.751,2.751,0,0,1,.427.059l.239.048c.074.018.135.037.2.056l.075.023a4.05,4.05,0,0,1,.5.183l.022.009a4.155,4.155,0,0,1,.378.186l.1.053.02.011.115.07c.1.062.21.127.309.2l.165.118.024.018.164.131c.044.034.085.069.123.1a1.477,1.477,0,0,1,.8.413l.35.35a2.437,2.437,0,0,1,.437.641C15,21.611,15.743,22.422,16.853,23.533Z" fill="#757575"/>
    </g>
    <g id="ruler" transform="translate(5904.086 1256.393)">
      <path id="Path_814" data-name="Path 814" d="M13.515.152,0,13.413l3.352,3.416L16.865,3.568Zm1.027,4.53-.463.455L13.4,4.45l-.427.42.674.687-.636.624L11.976,5.123l-.429.42L12.586,6.6l-.463.454-.674-.687-.428.42.674.687-.625.613L9.922,6.92l-.428.42,1.148,1.169-.463.453-.784-.8-.428.42.783.8-.635.623L7.967,8.837l-.428.42,1.148,1.169-.462.454-.783-.8-.428.42.783.8-.587.576-1.148-1.17-.428.421L6.781,12.3l-.463.453-.783-.8-.427.421.783.8-.635.624-1.148-1.17-.428.42,1.147,1.17-.464.454-.783-.8-.427.42.783.8-.572.561L1.178,13.425,13.5,1.329l2.185,2.227-.72.707L13.931,3.2l-.428.42Z" fill="#757575"/>
    </g>
    <g id="dimention" transform="translate(5931 1258.466)">
      <path id="Path_815" data-name="Path 815" d="M18.177,2H2.234A.234.234,0,0,0,2,2.234V18.177a.234.234,0,0,0,.234.234H7.627a.234.234,0,0,0,.234-.234V7.861H18.177a.234.234,0,0,0,.234-.234V2.234A.234.234,0,0,0,18.177,2ZM2.469,2.469H17.942V7.392H7.627a.234.234,0,0,0-.234.234V17.942H2.469Z" transform="translate(-2 -2)" fill="#757575" stroke="#707070" stroke-width="0.5"/>
      <path id="Path_816" data-name="Path 816" d="M15.112,67a.234.234,0,0,0-.234.234v2.7a.234.234,0,0,0,.234.234c.129,0,.234.429.234.3V67.234A.234.234,0,0,0,15.112,67Z" transform="translate(-11.859 -67)" fill="#757575" stroke="#707070" stroke-width="0.5"/>
      <path id="Path_817" data-name="Path 817" d="M24.463,65a.234.234,0,0,0-.234.234v3.172a.235.235,0,0,0,.469,0V65.234A.234.234,0,0,0,24.463,65Z" transform="translate(-19.018 -65)" fill="#757575" stroke="#707070" stroke-width="0.5"/>
      <path id="Path_818" data-name="Path 818" d="M33.812,67a.234.234,0,0,0-.234.234v2.7a.235.235,0,1,0,.469,0v-2.7A.234.234,0,0,0,33.812,67Z" transform="translate(-26.175 -67)" fill="#757575" stroke="#707070" stroke-width="0.5"/>
      <path id="Path_819" data-name="Path 819" d="M43.162,65a.234.234,0,0,0-.234.234v3.172a.235.235,0,1,0,.469,0V65.234A.234.234,0,0,0,43.162,65Z" transform="translate(-33.333 -65)" fill="#757575" stroke="#707070" stroke-width="0.5"/>
      <path id="Path_820" data-name="Path 820" d="M52.512,67a.234.234,0,0,0-.234.234v2.7a.235.235,0,1,0,.469,0v-2.7A.234.234,0,0,0,52.512,67Z" transform="translate(-40.491 -67)" fill="#757575" stroke="#707070" stroke-width="0.5"/>
      <path id="Path_821" data-name="Path 821" d="M61.862,65a.234.234,0,0,0-.234.234v3.172a.234.234,0,1,0,.469,0V65.234A.234.234,0,0,0,61.862,65Z" transform="translate(-47.649 -65)" fill="#757575" stroke="#707070" stroke-width="0.5"/>
      <path id="Path_822" data-name="Path 822" d="M4.938,57h-2.7a.235.235,0,0,0,0,.469H5.375c.129,0-.2-.1-.2-.234A.234.234,0,0,0,4.938,57Z" transform="translate(-2 -53.952)" fill="#757575" stroke="#707070" stroke-width="0.5"/>
      <path id="Path_823" data-name="Path 823" d="M5.407,47.65H2.234a.234.234,0,1,0,0,.469H5.407a.235.235,0,0,0,0-.469Z" transform="translate(-2 -42.41)" fill="#757575" stroke="#707070" stroke-width="0.5"/>
      <path id="Path_824" data-name="Path 824" d="M4.938,38.3h-2.7a.235.235,0,0,0,0,.469h2.7a.235.235,0,0,0,0-.469Z" transform="translate(-2 -30.868)" fill="#757575" stroke="#707070" stroke-width="0.5"/>
      <path id="Path_825" data-name="Path 825" d="M5.407,28.95H2.234a.235.235,0,0,0,0,.469H5.407a.234.234,0,1,0,0-.469Z" transform="translate(-2 -19.326)" fill="#757575" stroke="#707070" stroke-width="0.5"/>
      <path id="Path_826" data-name="Path 826" d="M4.938,19.6h-2.7a.234.234,0,1,0,0,.469h2.7a.234.234,0,1,0,0-.469Z" transform="translate(-2 -7.784)" fill="#757575" stroke="#707070" stroke-width="0.5"/>
      <path id="Path_827" data-name="Path 827" d="M5.407,10.25H2.234a.235.235,0,0,0,0,.469H5.407a.234.234,0,1,0,0-.469Z" transform="translate(-2 3.758)" fill="#757575" stroke="#707070" stroke-width="0.5"/>
    </g>
    <g id="garage" transform="translate(5959.646 1253.556)">
      <g id="Group_631" data-name="Group 631" transform="translate(0 4.484)">
        <g id="Group_630" data-name="Group 630">
          <rect id="Rectangle_954" data-name="Rectangle 954" width="10.39" height="1.738" transform="translate(3.083 11.187)" fill="#707070"/>
          <rect id="Rectangle_955" data-name="Rectangle 955" width="10.39" height="1.738" transform="translate(3.083 8.092)" fill="#707070"/>
          <rect id="Rectangle_956" data-name="Rectangle 956" width="10.39" height="1.863" transform="translate(3.083 14.319)" fill="#707070"/>
          <path id="Path_828" data-name="Path 828" d="M8.278,4.484,0,9.087V20.668H1.738V11.285a.33.33,0,0,1,.317-.343H14.5a.33.33,0,0,1,.317.343v9.384h1.738V9.087Z" transform="translate(0 -4.484)" fill="#707070"/>
        </g>
      </g>
    </g>
    <path id="dollar-currency-symbol" d="M85.917,11.337a3.535,3.535,0,0,0-1.54-3.074,9.216,9.216,0,0,0-2.7-1.138c-1.949-.591-2.514-.9-2.514-1.834,0-1.038,1.349-1.407,2.5-1.407a4.828,4.828,0,0,1,2.409.649l1.191-1.845a6.827,6.827,0,0,0-2.921-.964V0h-2.2V1.844c-1.953.43-3.184,1.706-3.184,3.447a3.3,3.3,0,0,0,1.5,2.867,9.219,9.219,0,0,0,2.574,1.07c1.911.578,2.687.93,2.679,2.1v.009c0,.979-1.3,1.326-2.408,1.326a4.12,4.12,0,0,1-2.838-1.144l-1.6,1.51a6.128,6.128,0,0,0,3.271,1.719v1.8h2.2V14.782C84.517,14.472,85.914,13.165,85.917,11.337Z" transform="translate(5910.609 1258.466)" fill="#707070"/>
    <g id="Group_632" data-name="Group 632" transform="translate(12399 -12580.827)">
      <path id="Path_833" data-name="Path 833" d="M15,55h1.153v1.729H15Z" transform="translate(-6401.782 13796.74)" fill="#707070"/>
      <path id="Path_835" data-name="Path 835" d="M15,45.136v1.153h1.153V45.136a3.735,3.735,0,0,1,.151-1.043l-1.043-.521A4.867,4.867,0,0,0,15,45.136Z" transform="translate(-6401.782 13804.876)" fill="#707070"/>
      <path id="Path_839" data-name="Path 839" d="M7,37.511H8.729V34.052a5.476,5.476,0,0,1,10.952,0V37.51H21.41V28H7Z" transform="translate(-6396.087 13815.959)" fill="#707070"/>
      <path id="Path_840" data-name="Path 840" d="M33,32.051V33.2a3.718,3.718,0,0,1,1.462.422l.841-.841A4.862,4.862,0,0,0,33,32.051Z" transform="translate(-6414.594 13813.075)" fill="#707070"/>
      <path id="Path_841" data-name="Path 841" d="M40.616,35.767l-.822.822A3.763,3.763,0,0,1,40.938,38l1.03-.515A4.928,4.928,0,0,0,40.616,35.767Z" transform="translate(-6419.43 13810.431)" fill="#707070"/>
      <path id="Path_842" data-name="Path 842" d="M18.838,36.589l-.822-.822a4.923,4.923,0,0,0-1.351,1.714l1.03.515a3.763,3.763,0,0,1,1.143-1.407Z" transform="translate(-6402.966 13810.431)" fill="#707070"/>
      <path id="Path_843" data-name="Path 843" d="M45,55h1.153v1.729H45Z" transform="translate(-6423.136 13796.74)" fill="#707070"/>
      <path id="Path_844" data-name="Path 844" d="M44.477,44.092a3.736,3.736,0,0,1,.151,1.043v1.153h1.153V45.136a4.867,4.867,0,0,0-.261-1.565Z" transform="translate(-6422.764 13804.876)" fill="#707070"/>
      <path id="Path_846" data-name="Path 846" d="M25.313,33.2V32.051a4.859,4.859,0,0,0-2.3.734l.841.841a3.709,3.709,0,0,1,1.459-.426Z" transform="translate(-6407.484 13813.075)" fill="#707070"/>
      <path id="Path_847" data-name="Path 847" d="M31.419,57.287h.6l.024-.119a3.189,3.189,0,0,0-.472-2.387A3.208,3.208,0,0,0,31.419,57.287Z" transform="translate(-6413.424 13796.184)" fill="#707070"/>
      <path id="Path_848" data-name="Path 848" d="M3,22H19.716v2.71H3Z" transform="translate(-6393.24 13818.672)" fill="#707070"/>
      <path id="Path_852" data-name="Path 852" d="M3,22H19.716v1.788H3Z" transform="translate(-6393.24 13832.047)" fill="#707070"/>
      <path id="Path_849" data-name="Path 849" d="M30.112,49.932A4.69,4.69,0,0,1,28.5,47.206l-1.766,1.765a2.516,2.516,0,0,0,0,3.558l.236.236h.478A4.01,4.01,0,0,1,28.1,49.3a.418.418,0,0,1,.645,0l.247.329a3.991,3.991,0,0,1,.726,3.137h.15l.556-.556a1.423,1.423,0,0,0-.1-2.1Z" transform="translate(-6410.301 13800.704)" fill="#707070"/>
    </g>
    <g id="document" transform="translate(5974.976 1259.845)">
      <path id="Path_853" data-name="Path 853" d="M62.434,16.317H72a1.436,1.436,0,0,0,1.434-1.434V4.78H70.083a1.436,1.436,0,0,1-1.434-1.434V0H62.434A1.436,1.436,0,0,0,61,1.434V14.883a1.436,1.436,0,0,0,1.434,1.434Zm1.912-9.593h5.737a.478.478,0,0,1,0,.956H64.346a.478.478,0,1,1,0-.956Zm0,1.912h5.737a.478.478,0,0,1,0,.956H64.346a.478.478,0,1,1,0-.956Zm0,1.912h5.737a.478.478,0,0,1,0,.956H64.346a.478.478,0,1,1,0-.956Zm0,1.912H68.17a.478.478,0,1,1,0,.956H64.346a.478.478,0,1,1,0-.956Z" fill="#707070"/>
      <path id="Path_854" data-name="Path 854" d="M331.478,12.333h3.066L331,8.789v3.066A.478.478,0,0,0,331.478,12.333Z" transform="translate(-261.395 -8.509)" fill="#707070"/>
    </g>
  </g>
</svg>
