<svg xmlns="http://www.w3.org/2000/svg" width="193.944" height="32.53" viewBox="0 0 193.944 32.53">
  <g id="Group_1058" data-name="Group 1058" transform="translate(10863.509 6099)">
    <path id="icons8-sun" d="M19.016,3.967a.837.837,0,0,0-.09.023.722.722,0,0,0-.563.72V9.032a.72.72,0,1,0,1.441,0V4.71a.721.721,0,0,0-.788-.743ZM8.752,8.2a.721.721,0,0,0-.363,1.237L11.453,12.5a.72.72,0,1,0,1.013-1.013L9.4,8.424A.723.723,0,0,0,8.82,8.2Zm20.437,0a.724.724,0,0,0-.428.225L25.7,11.485A.72.72,0,1,0,26.713,12.5l3.061-3.061A.72.72,0,0,0,29.189,8.2ZM19.016,11.913a.619.619,0,0,0-.068.023.753.753,0,0,0-.135.022l-.022.023a7.182,7.182,0,0,0-6.91,7.135c.267.462,14.359.17,14.4,0a7.184,7.184,0,0,0-6.865-7.135c-.025,0-.042-.023-.068-.023a.7.7,0,0,0-.225-.045h-.113Zm.022,1.441h.113a5.763,5.763,0,0,1,5.694,5.762c-.117.031-11.427.169-11.524,0a5.762,5.762,0,0,1,5.718-5.763ZM4.476,18.4a.727.727,0,1,0,.2,1.441H30.607a.72.72,0,1,0,0-1.441Zm24.489,0a.727.727,0,0,0,.2,1.441h4.322a.72.72,0,1,0,0-1.441H28.964Z" transform="translate(-10866.849 -6094.864)" fill="#333" stroke="#333" stroke-width="1"/>
    <path id="icons8-sun-2" data-name="icons8-sun" d="M18.831,3.967a.827.827,0,0,0-.089.022.713.713,0,0,0-.556.712V8.97a.712.712,0,1,0,1.423,0V4.7a.712.712,0,0,0-.778-.734ZM8.693,8.148a.707.707,0,0,0-.556.5.715.715,0,0,0,.2.723l3.024,3.024a.712.712,0,1,0,1-1L9.337,8.37a.714.714,0,0,0-.578-.222Zm20.189,0a.715.715,0,0,0-.422.222l-3.024,3.024a.712.712,0,1,0,1,1L29.459,9.37a.711.711,0,0,0-.578-1.223Zm-10.05,3.669a.612.612,0,0,0-.067.022.744.744,0,0,0-.133.022l-.022.022a7.093,7.093,0,1,0,.623,0c-.025,0-.042-.022-.067-.022a.687.687,0,0,0-.222-.044h-.111Zm.022,1.423h.111a5.7,5.7,0,1,1-.111,0ZM4.468,18.22a.719.719,0,0,0,.2,1.423H8.937a.712.712,0,1,0,0-1.423Zm24.191,0a.718.718,0,1,0,.2,1.423h4.269a.712.712,0,1,0,0-1.423ZM11.783,25.246a.715.715,0,0,0-.422.222L8.337,28.492a.712.712,0,1,0,1,1l3.024-3.024a.712.712,0,0,0-.511-1.223Zm14.008,0a.707.707,0,0,0-.556.5.715.715,0,0,0,.2.723l3.024,3.024a.712.712,0,1,0,1-1l-3.024-3.024a.711.711,0,0,0-.511-.222h-.133Zm-6.959,2.913a.829.829,0,0,0-.089.022.713.713,0,0,0-.556.712v4.269a.712.712,0,1,0,1.423,0v-4.27a.712.712,0,0,0-.778-.734Z" transform="translate(-10812.85 -6100.884)" stroke="#333" stroke-width="1"/>
    <g id="Group_1033" data-name="Group 1033" transform="translate(-11481.5 -6590.013)">
      <g id="Subtraction_29" data-name="Subtraction 29" transform="translate(-6289 -621.737)">
        <path id="Path_9082" data-name="Path 9082" d="M7040.5,1141.74a14.258,14.258,0,0,1-10.251-4.332,14.933,14.933,0,0,1,1.994-22.621,14.3,14.3,0,0,1,4.161-2.034,14.949,14.949,0,0,0-1,5.4,14.664,14.664,0,0,0,14.5,14.793,14.26,14.26,0,0,0,4.1-.6,14.718,14.718,0,0,1-5.24,6.761,14.226,14.226,0,0,1-8.264,2.633Z" fill="none"/>
        <path id="Path_9083" data-name="Path 9083" d="M7040.5,1139.74a12.243,12.243,0,0,0,7.1-2.27,12.79,12.79,0,0,0,2.66-2.53h-.36a16.663,16.663,0,0,1-16.5-16.79,18.112,18.112,0,0,1,.1-1.81c-.04.03-.07.05-.1.07a12.584,12.584,0,0,0-2.85,2.79,13.02,13.02,0,0,0,1.12,16.8,12.287,12.287,0,0,0,8.83,3.74m0,2a14.213,14.213,0,0,1-10.25-4.34,14.916,14.916,0,0,1,1.99-22.62,14.34,14.34,0,0,1,4.16-2.03,15,15,0,0,0-1,5.4,14.671,14.671,0,0,0,14.5,14.79,14.225,14.225,0,0,0,4.1-.6,14.655,14.655,0,0,1-5.24,6.76A14.24,14.24,0,0,1,7040.5,1141.74Z" fill="#333"/>
      </g>
      <circle id="Ellipse_148" data-name="Ellipse 148" cx="2.5" cy="2.5" r="2.5" transform="translate(751 495)" fill="#333"/>
      <circle id="Ellipse_149" data-name="Ellipse 149" cx="1.5" cy="1.5" r="1.5" transform="translate(755 505)" fill="#333"/>
    </g>
    <g id="Group_1057" data-name="Group 1057" transform="translate(-11756.621 -6543.754)">
      <path id="Path_9079" data-name="Path 9079" d="M-5915.271-600.81v-5.807s-.373-5.807,6.761-7.01c.041,0,0,3.069,0,3.069l4.4-4.4-4.4-4.48v3.028a10.251,10.251,0,0,0-9.623,10.162c.042,0,0,5.434,0,5.434" transform="translate(6990.114 1074.563)" fill="none" stroke="#333" stroke-linecap="round" stroke-width="1.5"/>
      <path id="Path_9080" data-name="Path 9080" d="M-5923.865-642.863v-8.025h3.152l-4.543-4.088-4.543,4.088h3.155v8.361" transform="translate(6998.791 1101)" fill="none" stroke="#333" stroke-linecap="round" stroke-width="1.5"/>
      <path id="Path_9081" data-name="Path 9081" d="M-5954.958-613s-1.839-3.526-7.243-3.9c-.039.041,0-2.862,0-2.862l-4.178,4.687,4.178,4.314v-3.318s3.832-.373,6.209,4.355" transform="translate(7026 1074.804)" fill="none" stroke="#333" stroke-linecap="round" stroke-width="1.5"/>
    </g>
  </g>
</svg>
