<svg xmlns="http://www.w3.org/2000/svg" width="45" height="45.429" viewBox="0 0 45 45.429">
  <g id="Best_Quality" data-name="Best Quality" transform="translate(-0.491 0.036)">
    <path id="Path_156" data-name="Path 156" d="M3.148,83.19a1.9,1.9,0,1,0-.8,3.647H5.179V80.87A3.062,3.062,0,0,0,3.148,83.19Z" transform="translate(0 -42.67)" fill="#0682d9"/>
    <path id="Path_157" data-name="Path 157" d="M19.2,15.86V13.92H12.35V22.7Z" transform="translate(-6.221 -7.321)" fill="#0682d9"/>
    <path id="Path_158" data-name="Path 158" d="M29.627,13.71,12.36,30.987V51.377H31.039V33.222a1.016,1.016,0,0,1,1.015-1.016h9.824a1.016,1.016,0,0,1,1.011,1.016v3.965a2.308,2.308,0,0,1,2.89.132c.383.236.439.284.718.284v-7ZM23.846,46.359h-3.9a.473.473,0,0,1,0-.945h3.9a.473.473,0,0,1,0,.945Zm3.977-11.615h0v8.033a.666.666,0,0,1-.661.666H16.634a.666.666,0,0,1-.666-.657V33.222a1.016,1.016,0,0,1,1.015-1.016h9.847a1.016,1.016,0,0,1,.992,1.016Z" transform="translate(-6.226 -7.211)" fill="#0682d9"/>
    <path id="Path_159" data-name="Path 159" d="M45.957,20.858C43.4,18.29,30.756,5.572,25.619.414a1.517,1.517,0,0,0-2.157,0L3.125,20.858a1.432,1.432,0,0,0,0,2.021l.918.875a1.414,1.414,0,0,0,2.01,0L24.56,5.159,43.048,23.753a1.414,1.414,0,0,0,2.01,0l.88-.88a1.432,1.432,0,0,0,.019-2.016Z" transform="translate(-1.163 0)" fill="#0682d9"/>
    <path id="Path_160" data-name="Path 160" d="M53.91,60.22V76h7.174a4.756,4.756,0,0,0-.409-.7c-.271-.285-1.26-.475-1.754-1.341s-.181-1.8-.285-2.192-.846-1.056-.846-2.04.742-1.65.846-2.035-.19-1.369.285-2.192,1.474-1.051,1.754-1.341.509-1.274,1.341-1.75a3.435,3.435,0,0,1,1.926-.266v-1.9Zm2.135,8.406a.989.989,0,1,1,.989-.989A.989.989,0,0,1,56.045,68.626Z" transform="translate(-28.186 -31.838)" fill="#0682d9"/>
    <rect id="Rectangle_9" data-name="Rectangle 9" width="4.526" height="2.943" transform="translate(10.655 28.458)" fill="#0682d9"/>
    <rect id="Rectangle_10" data-name="Rectangle 10" width="4.526" height="2.943" transform="translate(10.655 32.354)" fill="#0682d9"/>
    <rect id="Rectangle_11" data-name="Rectangle 11" width="4.526" height="2.943" transform="translate(16.125 32.354)" fill="#0682d9"/>
    <rect id="Rectangle_12" data-name="Rectangle 12" width="4.531" height="2.943" transform="translate(16.125 28.458)" fill="#0682d9"/>
    <path id="Path_161" data-name="Path 161" d="M63.855,54.843c-10.5,0-9.961-.038-9.961.071v1.531H63.927V54.914A.071.071,0,0,0,63.855,54.843Z" transform="translate(-28.175 -28.92)" fill="#0682d9"/>
    <path id="Path_162" data-name="Path 162" d="M31.95,54.843c-10.5,0-9.956-.038-9.956.071v1.531H32.026V54.914a.071.071,0,0,0-.076-.071Z" transform="translate(-11.343 -28.92)" fill="#0682d9"/>
    <rect id="Rectangle_13" data-name="Rectangle 13" width="9.628" height="3.285" rx="1.643" transform="translate(4.741 2.363)" fill="#0682d9"/>
    <path id="Path_163" data-name="Path 163" d="M79.07,71.948c0-.642-.651-1.193-.808-1.792s.119-1.426-.195-1.954-1.155-.7-1.6-1.146-.6-1.284-1.146-1.6-1.341-.029-1.959-.19-1.146-.813-1.792-.813-1.2.651-1.792.813-1.426-.124-1.959.19-.7,1.16-1.146,1.6-1.284.594-1.6,1.146-.029,1.341-.195,1.954-.813,1.151-.813,1.792.656,1.2.813,1.8-.119,1.426.195,1.954,1.155.7,1.6,1.146.6,1.284,1.146,1.6,1.341.029,1.959.19,1.146.813,1.792.813,1.2-.651,1.792-.813,1.426.124,1.959-.19.7-1.155,1.146-1.6,1.284-.594,1.6-1.146.029-1.341.195-1.954S79.07,72.594,79.07,71.948Zm-3.019.475-1.027,1,.242,1.426a1.674,1.674,0,0,1-2.42,1.745l-1.274-.67c-1.2.628-1.512.865-2.049.865a1.674,1.674,0,0,1-1.645-1.954l.242-1.426-1.027-1a1.664,1.664,0,0,1,.922-2.853l1.426-.209.632-1.307a1.669,1.669,0,0,1,3,0l.632,1.288,1.426.209a1.669,1.669,0,0,1,.922,2.862Z" transform="translate(-33.579 -34.057)" fill="#0682d9"/>
    <path id="Path_164" data-name="Path 164" d="M76.043,72.455l.689,1.4a.718.718,0,0,0,.542.395l1.545.223a.718.718,0,0,1,.395,1.222L78.1,76.772a.723.723,0,0,0-.2.637l.261,1.54a.718.718,0,0,1-1.036.756l-1.384-.727a.718.718,0,0,0-.666,0l-1.384.728a.718.718,0,0,1-1.041-.756l.266-1.54a.723.723,0,0,0-.209-.637l-1.117-1.089a.718.718,0,0,1,.4-1.222l1.545-.223a.708.708,0,0,0,.518-.385l.689-1.4a.718.718,0,0,1,1.308,0Z" transform="translate(-37.408 -38.035)" fill="#0682d9"/>
  </g>
</svg>
