<svg xmlns="http://www.w3.org/2000/svg" width="44.607" height="29.682" viewBox="0 0 44.607 29.682">
  <g id="_13._Rating" data-name="13. Rating" transform="translate(-8 -91)">
    <path id="Path_165" data-name="Path 165" d="M48.29,91H12.317A4.322,4.322,0,0,0,8,95.317v14.569a4.322,4.322,0,0,0,4.317,4.317h6.757l-1.307,4.647a1.44,1.44,0,0,0,2.1,1.638L30.812,114.2H48.29a4.322,4.322,0,0,0,4.317-4.317V95.317A4.322,4.322,0,0,0,48.29,91ZM22.943,102.956l-1.308.95.5,1.538a1.44,1.44,0,0,1-2.214,1.609l-1.308-.951-1.308.95a1.44,1.44,0,0,1-2.214-1.609l.5-1.538-1.308-.95a1.44,1.44,0,0,1,.846-2.6h1.617l.5-1.538a1.44,1.44,0,0,1,2.737,0l.5,1.538H22.1a1.439,1.439,0,0,1,.846,2.6Zm11.691,0-1.308.95.5,1.538a1.44,1.44,0,0,1-2.214,1.609L30.3,106.1c-1.392,1.011-1.565,1.225-2.154,1.225a1.44,1.44,0,0,1-1.369-1.884l.5-1.538-1.308-.95a1.44,1.44,0,0,1,.846-2.6h1.617l.5-1.538a1.44,1.44,0,0,1,2.737,0l.5,1.538h1.617a1.439,1.439,0,0,1,.845,2.6Zm11.691,0-1.308.95.5,1.538a1.44,1.44,0,0,1-1.369,1.884c-.589,0-.781-.228-2.154-1.225l-1.308.95a1.44,1.44,0,0,1-2.214-1.609l.5-1.538-1.308-.95a1.44,1.44,0,0,1,.845-2.6h1.617l.5-1.538a1.44,1.44,0,0,1,2.737,0l.5,1.538h1.617A1.44,1.44,0,0,1,46.325,102.956Z" transform="translate(0 0)" fill="#0682d9"/>
  </g>
</svg>
