<svg xmlns="http://www.w3.org/2000/svg" width="26.231" height="45" viewBox="0 0 26.231 45">
  <g id="Group_93" data-name="Group 93" transform="translate(0)">
    <path id="Path_155" data-name="Path 155" d="M202.016,61.012C198.07,54.178,188.9,42.371,188.9,34.286a13.116,13.116,0,1,1,26.231,0C215.131,42.371,205.961,54.178,202.016,61.012Zm13.078.288c0,2.69-5.855,4.87-13.078,4.87s-13.078-2.18-13.078-4.87c0-2.063,3.444-3.826,8.307-4.536l1.113,1.73c-3.332.383-5.666,1.273-5.666,2.31,0,1.387,4.174,2.511,9.324,2.511s9.324-1.124,9.324-2.511c0-1.037-2.335-1.927-5.666-2.31l1.113-1.73C211.65,57.474,215.093,59.236,215.093,61.3ZM202.016,28.975a5.311,5.311,0,1,1-5.311,5.311A5.312,5.312,0,0,1,202.016,28.975Z" transform="translate(-188.9 -21.17)" fill="#0682d9" fill-rule="evenodd"/>
  </g>
</svg>
