<svg xmlns="http://www.w3.org/2000/svg" width="75" height="79.282" viewBox="0 0 75 79.282">
  <g id="Group_99" data-name="Group 99" transform="translate(-90.52 -56.18)">
    <path id="Path_126" data-name="Path 126" d="M165.52,63.66l-.005,3.86h-57.2A1.59,1.59,0,0,0,106.633,69v65H100.2a1.589,1.589,0,0,1-1.676-1.48V63.66a1.589,1.589,0,0,1,1.676-1.48h63.648A1.589,1.589,0,0,1,165.52,63.66Z" transform="translate(-8 -6)" fill="#fff"/>
    <path id="Path_127" data-name="Path 127" d="M272.39,161.456l-10.716-10.44-.008-.008a.924.924,0,0,0-.644-.259H208.563a1.466,1.466,0,0,0-1.483,1.444v69.235a1.466,1.466,0,0,0,1.483,1.443h62.613a1.465,1.465,0,0,0,1.482-1.443V162.085A.882.882,0,0,0,272.39,161.456Zm-53.875,40.262h42.707v2.668H218.515Zm0-5.766v-2.668h42.707v2.668Zm-.288-23.968,14.979-12.554,6.56,5.5v-2.513l.459,0h3.607l0,.447v5.479l.645.541,3.7,3.1a.479.479,0,0,1,.14.535.5.5,0,0,1-.463.312h-2.817v13.863h-7.5V176.226a.811.811,0,0,0-.821-.8h-7.035a.81.81,0,0,0-.819.8v10.465h-7.5V172.829h-2.817a.5.5,0,0,1-.463-.312A.475.475,0,0,1,218.227,171.985Zm18.457,40.834h-18.17v-2.668h18.17Zm17.469,1.587a.935.935,0,0,1-.7-.043.9.9,0,0,1-.461-.511c-.06-.173-.146-.416-.239-.677a3.513,3.513,0,0,1-2.526,1.693,6.718,6.718,0,0,1-1.021.1,1.554,1.554,0,0,1-1.273-.488c-.487-.586-.212-1.264.03-1.861a2.71,2.71,0,0,0,.084-2.612,1.571,1.571,0,0,0-.091-.141,6.094,6.094,0,0,0-1.069,1.956c-.407,1.022-.669,1.982-.672,1.991l-1.764-.454a22.138,22.138,0,0,1,.818-2.388c.8-1.927,1.574-2.84,2.521-2.961a1.83,1.83,0,0,1,1.843,1.115,4.26,4.26,0,0,1,.081,4.017l.215-.032c1-.161,1.356-.9,1.685-1.787.167-.444.417-1.113,1.16-1.113h.013c.731.007,1.024.685,1.2,1.089.11.256.241.594.427,1.11a20.366,20.366,0,0,0,6.156-3.871l1.3,1.249A21.754,21.754,0,0,1,254.153,214.406Zm13.779-51.091a.913.913,0,0,1-.843.549h-6.98a.9.9,0,0,1-.913-.889v-6.8a.89.89,0,0,1,.563-.822.932.932,0,0,1,.995.193l6.979,6.8A.872.872,0,0,1,267.932,163.315Z" transform="translate(-107.138 -87.41)" fill="#fff"/>
  </g>
</svg>
