<svg id="Group_1398" data-name="Group 1398" xmlns="http://www.w3.org/2000/svg" width="114" height="85.763" viewBox="0 0 114 85.763">
  <rect id="Rectangle_15965" data-name="Rectangle 15965" width="97.681" height="53.008" rx="23.14" transform="translate(8.163 17.068)" fill="none" stroke="#231f20" stroke-miterlimit="10" stroke-width="2"/>
  <rect id="Rectangle_15966" data-name="Rectangle 15966" width="67.896" height="36.844" rx="18.422" transform="translate(23.052 25.226)" fill="#0f4c82" stroke="#231f20" stroke-miterlimit="10" stroke-width="2"/>
  <circle id="Ellipse_155" data-name="Ellipse 155" cx="5.639" cy="5.639" r="5.639" transform="translate(37.435 33.392)" fill="#fff"/>
  <circle id="Ellipse_156" data-name="Ellipse 156" cx="5.639" cy="5.639" r="5.639" transform="translate(64.966 33.392)" fill="#fff"/>
  <path id="Path_9252" data-name="Path 9252" d="M58.79,62.41s7.22,5.383,17.84.241" transform="translate(-11.432 -12.148)" fill="none" stroke="#fff" stroke-miterlimit="10" stroke-width="3"/>
  <rect id="Rectangle_15967" data-name="Rectangle 15967" width="1.316" height="7.22" transform="translate(56.615 9.92)" fill="#231f20" stroke="#231f20" stroke-miterlimit="10" stroke-width="1"/>
  <path id="Path_9256" data-name="Path 9256" d="M4.46,0A4.46,4.46,0,1,1,0,4.46,4.46,4.46,0,0,1,4.46,0Z" transform="translate(52.54 1)" fill="#0f4c82" stroke="#231f20" stroke-width="2"/>
  <path id="Path_9253" data-name="Path 9253" d="M131.69,43.89V59.549a1.38,1.38,0,0,0,1.957,1.251,9.575,9.575,0,0,0,5.206-8.872c0-4.244-2.407-7.837-5.687-9.065a1.1,1.1,0,0,0-1.476,1.027Z" transform="translate(-25.853 -8.268)" fill="none" stroke="#231f20" stroke-miterlimit="10" stroke-width="2"/>
  <path id="Path_9254" data-name="Path 9254" d="M8.163,43.89V59.549A1.38,1.38,0,0,1,6.206,60.8,9.592,9.592,0,0,1,1,51.928c0-4.244,2.407-7.837,5.687-9.065A1.1,1.1,0,0,1,8.163,43.89Z" transform="translate(0 -8.268)" fill="none" stroke="#231f20" stroke-miterlimit="10" stroke-width="2"/>
  <path id="Path_9255" data-name="Path 9255" d="M5.518,63.88c0,6.474-3.209,15.9,0,25.87,1.989,6.193,53.97,3.1,53.97,3.1" transform="translate(-0.612 -12.439)" fill="none" stroke="#231f20" stroke-miterlimit="10" stroke-width="2"/>
  <circle id="Ellipse_158" data-name="Ellipse 158" cx="4.035" cy="4.035" r="4.035" transform="translate(58.179 76.693)" fill="none" stroke="#231f20" stroke-miterlimit="10" stroke-width="2"/>
</svg>
